<svg width="274" height="311" viewBox="0 0 274 311" fill="none" xmlns="http://www.w3.org/2000/svg">
<path d="M2 154C1.17157 154 0.5 154.672 0.5 155.5C0.5 156.328 1.17157 157 2 157V154ZM272.5 2.01568C272.509 1.1873 271.844 0.508741 271.016 0.500082L257.516 0.358975C256.688 0.350316 256.009 1.01483 256.001 1.84321C255.992 2.6716 256.657 3.35015 257.485 3.35881L269.484 3.48424L269.359 15.4836C269.35 16.312 270.015 16.9905 270.843 16.9992C271.672 17.0078 272.35 16.3433 272.359 15.5149L272.5 2.01568ZM4.03899 156.994C4.8674 156.988 5.53474 156.313 5.52952 155.484C5.52431 154.656 4.84852 153.988 4.02011 153.994L4.03899 156.994ZM8.02768 153.943C7.1994 153.959 6.54069 154.643 6.55641 155.471C6.57213 156.3 7.25633 156.958 8.0846 156.943L8.02768 153.943ZM12.0875 156.841C12.9155 156.815 13.5654 156.122 13.539 155.294C13.5127 154.466 12.8202 153.816 11.9921 153.843L12.0875 156.841ZM15.9668 153.69C15.1392 153.727 14.4984 154.428 14.5356 155.256C14.5727 156.084 15.2737 156.724 16.1013 156.687L15.9668 153.69ZM20.1436 156.479C20.9707 156.43 21.602 155.721 21.5537 154.894C21.5054 154.067 20.7959 153.435 19.9689 153.484L20.1436 156.479ZM23.9267 153.226C23.1004 153.285 22.4788 154.003 22.5382 154.83C22.5977 155.656 23.3157 156.278 24.142 156.218L23.9267 153.226ZM28.1494 155.902C28.9748 155.831 29.5864 155.105 29.5156 154.279C29.4447 153.454 28.7181 152.842 27.8927 152.913L28.1494 155.902ZM31.8786 152.542C31.0543 152.625 30.4529 153.36 30.5355 154.184C30.618 155.009 31.3531 155.61 32.1775 155.528L31.8786 152.542ZM36.1606 155.1C36.9837 155.006 37.5745 154.262 37.4802 153.439C37.386 152.616 36.6424 152.025 35.8193 152.12L36.1606 155.1ZM39.7752 151.638C38.9536 151.744 38.3737 152.496 38.4799 153.317C38.5861 154.139 39.3382 154.719 40.1598 154.613L39.7752 151.638ZM44.1625 154.065C44.9824 153.947 45.5512 153.186 45.4328 152.366C45.3145 151.546 44.5539 150.978 43.7339 151.096L44.1625 154.065ZM47.647 150.502C46.8289 150.632 46.2715 151.401 46.4021 152.219C46.5326 153.037 47.3015 153.595 48.1196 153.464L47.647 150.502ZM52.1056 152.797C52.9216 152.654 53.4673 151.877 53.3244 151.061C53.1815 150.245 52.4041 149.699 51.5881 149.842L52.1056 152.797ZM55.509 149.125C54.6953 149.28 54.1617 150.066 54.3171 150.879C54.4725 151.693 55.2581 152.227 56.0718 152.071L55.509 149.125ZM59.9921 151.292C60.8034 151.124 61.3249 150.33 61.157 149.519C60.9892 148.707 60.1954 148.186 59.3842 148.354L59.9921 151.292ZM63.303 147.511C62.4945 147.691 61.9855 148.493 62.1661 149.302C62.3467 150.11 63.1486 150.619 63.9571 150.438L63.303 147.511ZM67.8761 149.531C68.6817 149.337 69.178 148.527 68.9847 147.722C68.7914 146.916 67.9816 146.42 67.176 146.613L67.8761 149.531ZM71.0285 145.657C70.2261 145.863 69.7427 146.68 69.9487 147.482C70.1548 148.285 70.9723 148.768 71.7747 148.562L71.0285 145.657ZM75.6831 147.525C76.4821 147.306 76.9523 146.481 76.7334 145.682C76.5145 144.883 75.6894 144.413 74.8904 144.632L75.6831 147.525ZM78.7064 143.553C77.911 143.785 77.454 144.618 77.6857 145.413C77.9173 146.208 78.7499 146.665 79.5453 146.434L78.7064 143.553ZM83.4109 145.274C84.2025 145.029 84.6459 144.19 84.4015 143.398C84.157 142.607 83.3172 142.163 82.5256 142.408L83.4109 145.274ZM86.3215 141.201C85.534 141.459 85.1041 142.306 85.3614 143.093C85.6186 143.881 86.4655 144.31 87.253 144.053L86.3215 141.201ZM91.0562 142.777C91.8395 142.507 92.2556 141.653 91.9857 140.87C91.7159 140.087 90.8621 139.671 90.0789 139.941L91.0562 142.777ZM93.8464 138.608C93.0676 138.891 92.6654 139.751 92.948 140.53C93.2305 141.308 94.0909 141.711 94.8696 141.428L93.8464 138.608ZM98.6377 140.026C99.4118 139.731 99.8001 138.865 99.505 138.091C99.21 137.316 98.3432 136.928 97.5691 137.223L98.6377 140.026ZM101.278 135.775C100.509 136.083 100.134 136.955 100.442 137.725C100.749 138.494 101.622 138.868 102.392 138.561L101.278 135.775ZM106.123 137.034C106.888 136.714 107.248 135.836 106.928 135.071C106.608 134.307 105.73 133.947 104.965 134.267L106.123 137.034ZM108.613 132.706C107.854 133.038 107.508 133.923 107.839 134.682C108.171 135.441 109.056 135.787 109.815 135.455L108.613 132.706ZM113.504 133.807C114.257 133.463 114.59 132.574 114.246 131.82C113.902 131.066 113.012 130.734 112.258 131.078L113.504 133.807ZM115.862 129.4C115.114 129.755 114.795 130.65 115.151 131.399C115.506 132.147 116.401 132.465 117.149 132.109L115.862 129.4ZM120.775 130.352C121.518 129.985 121.822 129.085 121.455 128.343C121.088 127.6 120.188 127.296 119.445 127.663L120.775 130.352ZM123.003 125.87C122.266 126.249 121.975 127.153 122.353 127.89C122.732 128.627 123.636 128.917 124.373 128.539L123.003 125.87ZM127.935 126.676C128.666 126.287 128.943 125.378 128.553 124.647C128.164 123.916 127.255 123.639 126.524 124.028L127.935 126.676ZM130.031 122.127C129.305 122.527 129.042 123.439 129.442 124.165C129.843 124.89 130.755 125.154 131.48 124.753L130.031 122.127ZM134.986 122.785C135.706 122.374 135.956 121.458 135.545 120.738C135.134 120.019 134.218 119.769 133.499 120.18L134.986 122.785ZM136.945 118.178C136.232 118.599 135.995 119.519 136.416 120.233C136.837 120.946 137.757 121.183 138.47 120.762L136.945 118.178ZM141.922 118.692C142.63 118.261 142.854 117.338 142.423 116.63C141.992 115.923 141.069 115.699 140.361 116.13L141.922 118.692ZM143.747 114.035C143.045 114.476 142.834 115.402 143.274 116.103C143.715 116.805 144.641 117.016 145.343 116.575L143.747 114.035ZM148.738 114.41C149.434 113.96 149.633 113.031 149.183 112.336C148.733 111.64 147.804 111.441 147.108 111.891L148.738 114.41ZM150.436 109.707C149.746 110.166 149.559 111.097 150.019 111.787C150.478 112.477 151.409 112.664 152.098 112.204L150.436 109.707ZM155.436 109.952C156.12 109.484 156.295 108.55 155.827 107.867C155.359 107.183 154.425 107.008 153.742 107.476L155.436 109.952ZM157.016 105.205C156.338 105.681 156.175 106.617 156.651 107.295C157.127 107.973 158.063 108.136 158.741 107.66L157.016 105.205ZM162.018 105.328C162.69 104.844 162.842 103.906 162.358 103.234C161.874 102.562 160.936 102.41 160.264 102.894L162.018 105.328ZM163.485 100.544C162.819 101.036 162.678 101.975 163.17 102.642C163.662 103.308 164.601 103.45 165.267 102.958L163.485 100.544ZM168.487 100.552C169.148 100.052 169.279 99.1116 168.78 98.4507C168.28 97.7898 167.339 97.659 166.678 98.1585L168.487 100.552ZM169.848 95.7357C169.192 96.2424 169.072 97.1844 169.578 97.8399C170.085 98.4953 171.027 98.6159 171.683 98.1093L169.848 95.7357ZM174.849 95.6347C175.5 95.1213 175.61 94.178 175.097 93.5279C174.583 92.8778 173.64 92.767 172.99 93.2804L174.849 95.6347ZM176.109 90.7919C175.464 91.3119 175.362 92.2562 175.882 92.9011C176.402 93.5461 177.346 93.6475 177.991 93.1275L176.109 90.7919ZM181.108 90.5903C181.748 90.0642 181.84 89.119 181.314 88.479C180.788 87.8391 179.843 87.7468 179.203 88.2729L181.108 90.5903ZM182.273 85.7246C181.638 86.2566 181.555 87.2026 182.087 87.8377C182.619 88.4728 183.565 88.5564 184.2 88.0245L182.273 85.7246ZM187.268 85.4311C187.899 84.8937 187.974 83.9469 187.436 83.3165C186.899 82.6861 185.952 82.6108 185.322 83.1483L187.268 85.4311ZM188.348 80.5457C187.722 81.0884 187.655 82.0357 188.198 82.6616C188.741 83.2875 189.688 83.3549 190.314 82.8122L188.348 80.5457ZM193.337 80.169C193.959 79.6214 194.019 78.6735 193.471 78.0519C192.924 77.4304 191.976 77.3705 191.354 77.9181L193.337 80.169ZM194.34 75.2669C193.723 75.8192 193.67 76.7675 194.222 77.3849C194.775 78.0024 195.723 78.0552 196.34 77.5029L194.34 75.2669ZM199.323 74.8155C199.937 74.2589 199.983 73.3102 199.426 72.6967C198.869 72.0832 197.921 72.0371 197.307 72.5938L199.323 74.8155ZM200.256 69.8998C199.647 70.4605 199.607 71.4094 200.168 72.0192C200.728 72.6291 201.677 72.6688 202.287 72.1081L200.256 69.8998ZM205.233 69.382C205.839 68.8174 205.873 67.8683 205.309 67.262C204.744 66.6557 203.795 66.6218 203.189 67.1863L205.233 69.382ZM206.105 64.4552C205.502 65.0232 205.474 65.9725 206.042 66.5756C206.61 67.1786 207.559 67.207 208.162 66.6389L206.105 64.4552ZM211.076 63.8794C211.676 63.3082 211.699 62.3587 211.128 61.7587C210.556 61.1588 209.607 61.1355 209.007 61.7068L211.076 63.8794ZM211.894 58.9437C211.297 59.5179 211.279 60.4675 211.853 61.0646C212.427 61.6617 213.377 61.6803 213.974 61.1061L211.894 58.9437ZM216.859 58.319C217.453 57.742 217.468 56.7924 216.891 56.1979C216.314 55.6033 215.364 55.5891 214.77 56.166L216.859 58.319ZM217.633 53.3756C217.041 53.955 217.031 54.9047 217.61 55.4968C218.189 56.089 219.139 56.0994 219.731 55.52L217.633 53.3756ZM222.592 52.7104C223.182 52.1288 223.189 51.1791 222.607 50.5891C222.026 49.9991 221.076 49.9922 220.486 50.5738L222.592 52.7104ZM223.33 47.7612C222.742 48.3447 222.738 49.2944 223.322 49.8825C223.905 50.4706 224.855 50.4744 225.443 49.8909L223.33 47.7612ZM228.284 47.0637C228.871 46.4786 228.872 45.5289 228.287 44.9424C227.702 44.356 226.752 44.3549 226.165 44.94L228.284 47.0637ZM228.994 42.1105C228.409 42.697 228.41 43.6468 228.997 44.2318C229.584 44.8168 230.533 44.8156 231.118 44.2291L228.994 42.1105ZM233.945 41.3888C234.529 40.8011 234.526 39.8513 233.938 39.2675C233.351 38.6836 232.401 38.6868 231.817 39.2745L233.945 41.3888ZM234.635 36.4329C234.052 37.0216 234.057 37.9713 234.646 38.5542C235.234 39.1371 236.184 39.1325 236.767 38.5438L234.635 36.4329ZM239.584 35.6953C240.166 35.106 240.16 34.1563 239.571 33.574C238.982 32.9918 238.032 32.9976 237.45 33.5869L239.584 35.6953ZM240.262 30.7379C239.68 31.3276 239.687 32.2774 240.277 32.8591C240.866 33.4409 241.816 33.4344 242.398 32.8446L240.262 30.7379ZM245.21 29.9929C245.791 29.4029 245.785 28.4532 245.195 27.8716C244.605 27.2901 243.655 27.2969 243.073 27.8868L245.21 29.9929ZM245.885 25.0348C245.303 25.6248 245.31 26.5745 245.9 27.1561C246.49 27.7377 247.439 27.731 248.021 27.141L245.885 25.0348ZM250.832 24.2907C251.414 23.701 251.408 22.7513 250.818 22.1694C250.229 21.5875 249.279 21.5938 248.697 22.1834L250.832 24.2907ZM251.512 19.3333C250.93 19.9224 250.935 20.8721 251.524 21.4546C252.113 22.037 253.063 22.0316 253.646 21.4425L251.512 19.3333ZM256.461 18.598C257.045 18.0097 257.041 17.06 256.452 16.4767C255.864 15.8935 254.914 15.8977 254.331 16.486L256.461 18.598ZM257.154 13.6428C256.57 14.2301 256.572 15.1798 257.16 15.7641C257.747 16.3483 258.697 16.3459 259.281 15.7585L257.154 13.6428ZM262.106 12.9246C262.692 12.3385 262.691 11.3888 262.105 10.8032C261.519 10.2177 260.569 10.2181 259.984 10.8042L262.106 12.9246ZM262.82 7.9726C262.233 8.55713 262.231 9.50688 262.816 10.0939C263.4 10.681 264.35 10.683 264.937 10.0985L262.82 7.9726ZM267.776 7.27987C268.365 6.69711 268.37 5.74737 267.787 5.15858C267.204 4.56978 266.254 4.56489 265.665 5.14765L267.776 7.27987ZM268.52 2.33205C267.929 2.91279 267.921 3.8625 268.502 4.45329C269.082 5.04408 270.032 5.05223 270.623 4.47149L268.52 2.33205ZM2 157C2.68147 157 3.36113 156.998 4.03899 156.994L4.02011 153.994C3.34856 153.998 2.67519 154 2 154V157ZM8.0846 156.943C9.42599 156.917 10.7602 156.883 12.0875 156.841L11.9921 153.843C10.6778 153.884 9.35632 153.918 8.02768 153.943L8.0846 156.943ZM16.1013 156.687C17.4562 156.626 18.8036 156.557 20.1436 156.479L19.9689 153.484C18.6422 153.561 17.3082 153.63 15.9668 153.69L16.1013 156.687ZM24.142 156.218C25.4852 156.122 26.821 156.016 28.1494 155.902L27.8927 152.913C26.5781 153.026 25.2561 153.13 23.9267 153.226L24.142 156.218ZM32.1775 155.528C33.5126 155.394 34.8403 155.251 36.1606 155.1L35.8193 152.12C34.5132 152.269 33.1996 152.41 31.8786 152.542L32.1775 155.528ZM40.1598 154.613C41.5017 154.439 42.8359 154.257 44.1625 154.065L43.7339 151.096C42.422 151.285 41.1025 151.466 39.7752 151.638L40.1598 154.613ZM48.1196 153.464C49.456 153.251 50.7846 153.029 52.1056 152.797L51.5881 149.842C50.2821 150.071 48.9684 150.291 47.647 150.502L48.1196 153.464ZM56.0718 152.071C57.3862 151.82 58.6929 151.56 59.9921 151.292L59.3842 148.354C58.1 148.62 56.8084 148.877 55.509 149.125L56.0718 152.071ZM63.9571 150.438C65.2711 150.145 66.5775 149.842 67.8761 149.531L67.176 146.613C65.8927 146.921 64.6017 147.221 63.303 147.511L63.9571 150.438ZM71.7747 148.562C73.0853 148.226 74.3881 147.88 75.6831 147.525L74.8904 144.632C73.6108 144.982 72.3235 145.324 71.0285 145.657L71.7747 148.562ZM79.5453 146.434C80.8416 146.056 82.1301 145.67 83.4109 145.274L82.5256 142.408C81.2602 142.798 79.9871 143.18 78.7064 143.553L79.5453 146.434ZM87.253 144.053C88.5283 143.637 89.796 143.211 91.0562 142.777L90.0789 139.941C88.8339 140.37 87.5814 140.79 86.3215 141.201L87.253 144.053ZM94.8696 141.428C96.1332 140.97 97.3891 140.502 98.6377 140.026L97.5691 137.223C96.3356 137.693 95.0947 138.155 93.8464 138.608L94.8696 141.428ZM102.392 138.561C103.643 138.061 104.887 137.552 106.123 137.034L104.965 134.267C103.744 134.778 102.514 135.281 101.278 135.775L102.392 138.561ZM109.815 135.455C111.052 134.914 112.281 134.365 113.504 133.807L112.258 131.078C111.05 131.629 109.835 132.172 108.613 132.706L109.815 135.455ZM117.149 132.109C118.365 131.532 119.573 130.946 120.775 130.352L119.445 127.663C118.258 128.25 117.063 128.829 115.862 129.4L117.149 132.109ZM124.373 128.539C125.567 127.926 126.754 127.305 127.935 126.676L126.524 124.028C125.357 124.65 124.183 125.264 123.003 125.87L124.373 128.539ZM131.48 124.753C132.656 124.105 133.824 123.448 134.986 122.785L133.499 120.18C132.349 120.836 131.193 121.485 130.031 122.127L131.48 124.753ZM138.47 120.762C139.627 120.079 140.778 119.389 141.922 118.692L140.361 116.13C139.229 116.82 138.09 117.503 136.945 118.178L138.47 120.762ZM145.343 116.575C146.48 115.861 147.612 115.139 148.738 114.41L147.108 111.891C145.994 112.613 144.873 113.327 143.747 114.035L145.343 116.575ZM152.098 112.204C153.217 111.46 154.329 110.709 155.436 109.952L153.742 107.476C152.645 108.226 151.543 108.97 150.436 109.707L152.098 112.204ZM158.741 107.66C159.838 106.889 160.931 106.111 162.018 105.328L160.264 102.894C159.186 103.671 158.104 104.441 157.016 105.205L158.741 107.66ZM165.267 102.958C166.346 102.161 167.419 101.359 168.487 100.552L166.678 98.1585C165.619 98.9594 164.555 99.7547 163.485 100.544L165.267 102.958ZM171.683 98.1093C172.743 97.2897 173.798 96.4648 174.849 95.6347L172.99 93.2804C171.947 94.1041 170.9 94.9226 169.848 95.7357L171.683 98.1093ZM177.991 93.1275C179.035 92.2866 180.073 91.4408 181.108 90.5903L179.203 88.2729C178.175 89.1174 177.144 89.9572 176.109 90.7919L177.991 93.1275ZM184.2 88.0245C185.226 87.1644 186.249 86.2999 187.268 85.4311L185.322 83.1483C184.309 84.0115 183.293 84.8704 182.273 85.7246L184.2 88.0245ZM190.314 82.8122C191.325 81.9351 192.333 81.054 193.337 80.169L191.354 77.9181C190.356 78.798 189.354 79.6739 188.348 80.5457L190.314 82.8122ZM196.34 77.5029C197.338 76.6106 198.332 75.7148 199.323 74.8155L197.307 72.5938C196.321 73.4884 195.332 74.3795 194.34 75.2669L196.34 77.5029ZM202.287 72.1081C203.272 71.2025 204.254 70.2937 205.233 69.382L203.189 67.1863C202.214 68.094 201.237 68.9985 200.256 69.8998L202.287 72.1081ZM208.162 66.6389C209.136 65.7218 210.107 64.8019 211.076 63.8794L209.007 61.7068C208.042 62.6257 207.075 63.5419 206.105 64.4552L208.162 66.6389ZM213.974 61.1061C214.937 60.1793 215.899 59.2502 216.859 58.319L214.77 56.166C213.813 57.0942 212.855 58.0202 211.894 58.9437L213.974 61.1061ZM219.731 55.52C220.686 54.5853 221.64 53.6487 222.592 52.7104L220.486 50.5738C219.537 51.5096 218.586 52.4436 217.633 53.3756L219.731 55.52ZM225.443 49.8909C226.391 48.9499 227.339 48.0074 228.284 47.0637L226.165 44.94C225.221 45.8819 224.276 46.8223 223.33 47.7612L225.443 49.8909ZM231.118 44.2291C232.062 43.2833 233.004 42.3364 233.945 41.3888L231.817 39.2745C230.877 40.2209 229.936 41.1663 228.994 42.1105L231.118 44.2291ZM236.767 38.5438C237.707 37.5949 238.646 36.6453 239.584 35.6953L237.45 33.5869C236.512 34.5362 235.574 35.4849 234.635 36.4329L236.767 38.5438ZM242.398 32.8446C243.336 31.8942 244.273 30.9435 245.21 29.9929L243.073 27.8868C242.136 28.8374 241.199 29.7878 240.262 30.7379L242.398 32.8446ZM248.021 27.141C248.958 26.1906 249.895 25.2404 250.832 24.2907L248.697 22.1834C247.759 23.1336 246.822 24.0842 245.885 25.0348L248.021 27.141ZM253.646 21.4425C254.584 20.4936 255.522 19.5454 256.461 18.598L254.331 16.486C253.391 17.4344 252.451 18.3836 251.512 19.3333L253.646 21.4425ZM259.281 15.7585C260.222 14.8127 261.164 13.868 262.106 12.9246L259.984 10.8042C259.04 11.7493 258.096 12.6956 257.154 13.6428L259.281 15.7585ZM264.937 10.0985C265.882 9.15733 266.828 8.21773 267.776 7.27987L265.665 5.14765C264.716 6.08778 263.767 7.0295 262.82 7.9726L264.937 10.0985ZM270.623 4.47149C271.098 4.00439 271.574 3.53778 272.05 3.07169L269.95 0.928311C269.473 1.39575 268.996 1.86368 268.52 2.33205L270.623 4.47149Z" fill="#F9D047"/>
<path d="M2 156.5C1.17157 156.5 0.5 155.828 0.5 155C0.5 154.172 1.17157 153.5 2 153.5V156.5ZM272.5 308.484C272.509 309.313 271.844 309.991 271.016 310L257.516 310.141C256.688 310.15 256.009 309.485 256.001 308.657C255.992 307.828 256.657 307.15 257.485 307.141L269.484 307.016L269.359 295.016C269.35 294.188 270.015 293.509 270.843 293.501C271.672 293.492 272.35 294.157 272.359 294.985L272.5 308.484ZM4.03899 153.506C4.8674 153.512 5.53474 154.187 5.52952 155.016C5.52431 155.844 4.84852 156.512 4.02011 156.506L4.03899 153.506ZM8.02768 156.557C7.1994 156.541 6.54069 155.857 6.55641 155.029C6.57213 154.2 7.25633 153.542 8.0846 153.557L8.02768 156.557ZM12.0875 153.659C12.9155 153.685 13.5654 154.378 13.539 155.206C13.5127 156.034 12.8202 156.684 11.9921 156.657L12.0875 153.659ZM15.9668 156.81C15.1392 156.773 14.4984 156.072 14.5356 155.244C14.5727 154.416 15.2737 153.776 16.1013 153.813L15.9668 156.81ZM20.1436 154.021C20.9707 154.07 21.602 154.779 21.5537 155.606C21.5054 156.433 20.7959 157.065 19.9689 157.016L20.1436 154.021ZM23.9267 157.274C23.1004 157.215 22.4788 156.497 22.5382 155.67C22.5977 154.844 23.3157 154.222 24.142 154.282L23.9267 157.274ZM28.1494 154.598C28.9748 154.669 29.5864 155.395 29.5156 156.221C29.4447 157.046 28.7181 157.658 27.8927 157.587L28.1494 154.598ZM31.8786 157.958C31.0543 157.875 30.4529 157.14 30.5355 156.316C30.618 155.491 31.3531 154.89 32.1775 154.972L31.8786 157.958ZM36.1606 155.4C36.9837 155.494 37.5745 156.238 37.4802 157.061C37.386 157.884 36.6424 158.475 35.8193 158.38L36.1606 155.4ZM39.7752 158.862C38.9536 158.756 38.3737 158.004 38.4799 157.183C38.5861 156.361 39.3382 155.781 40.1598 155.887L39.7752 158.862ZM44.1625 156.435C44.9824 156.553 45.5512 157.314 45.4328 158.134C45.3145 158.954 44.5539 159.522 43.7339 159.404L44.1625 156.435ZM47.647 159.998C46.8289 159.868 46.2715 159.099 46.4021 158.281C46.5326 157.463 47.3015 156.905 48.1196 157.036L47.647 159.998ZM52.1056 157.703C52.9216 157.846 53.4673 158.623 53.3244 159.439C53.1815 160.255 52.4041 160.801 51.5881 160.658L52.1056 157.703ZM55.509 161.375C54.6953 161.22 54.1617 160.434 54.3171 159.621C54.4725 158.807 55.2581 158.273 56.0718 158.429L55.509 161.375ZM59.9921 159.208C60.8034 159.376 61.3249 160.17 61.157 160.981C60.9892 161.793 60.1954 162.314 59.3842 162.146L59.9921 159.208ZM63.303 162.989C62.4945 162.809 61.9855 162.007 62.1661 161.198C62.3467 160.39 63.1486 159.881 63.9571 160.062L63.303 162.989ZM67.8761 160.969C68.6817 161.163 69.178 161.973 68.9847 162.778C68.7914 163.584 67.9816 164.08 67.176 163.887L67.8761 160.969ZM71.0285 164.843C70.2261 164.637 69.7427 163.82 69.9487 163.018C70.1548 162.215 70.9723 161.732 71.7747 161.938L71.0285 164.843ZM75.6831 162.975C76.4821 163.194 76.9523 164.019 76.7334 164.818C76.5145 165.617 75.6894 166.087 74.8904 165.868L75.6831 162.975ZM78.7064 166.947C77.911 166.715 77.454 165.882 77.6857 165.087C77.9173 164.292 78.7499 163.835 79.5453 164.066L78.7064 166.947ZM83.4109 165.226C84.2025 165.471 84.6459 166.31 84.4015 167.102C84.157 167.893 83.3172 168.337 82.5256 168.092L83.4109 165.226ZM86.3215 169.299C85.534 169.041 85.1041 168.194 85.3614 167.407C85.6186 166.619 86.4655 166.19 87.253 166.447L86.3215 169.299ZM91.0562 167.723C91.8395 167.993 92.2556 168.847 91.9857 169.63C91.7159 170.413 90.8621 170.829 90.0789 170.559L91.0562 167.723ZM93.8464 171.892C93.0676 171.609 92.6654 170.749 92.948 169.97C93.2305 169.192 94.0909 168.789 94.8696 169.072L93.8464 171.892ZM98.6377 170.474C99.4118 170.769 99.8001 171.635 99.505 172.409C99.21 173.184 98.3432 173.572 97.5691 173.277L98.6377 170.474ZM101.278 174.725C100.509 174.417 100.134 173.545 100.442 172.775C100.749 172.006 101.622 171.632 102.392 171.939L101.278 174.725ZM106.123 173.466C106.888 173.786 107.248 174.664 106.928 175.429C106.608 176.193 105.73 176.553 104.965 176.233L106.123 173.466ZM108.613 177.794C107.854 177.462 107.508 176.577 107.839 175.818C108.171 175.059 109.056 174.713 109.815 175.045L108.613 177.794ZM113.504 176.693C114.257 177.037 114.59 177.926 114.246 178.68C113.902 179.434 113.012 179.766 112.258 179.422L113.504 176.693ZM115.862 181.1C115.114 180.745 114.795 179.85 115.151 179.101C115.506 178.353 116.401 178.035 117.149 178.391L115.862 181.1ZM120.775 180.148C121.518 180.515 121.822 181.415 121.455 182.157C121.088 182.9 120.188 183.204 119.445 182.837L120.775 180.148ZM123.003 184.63C122.266 184.251 121.975 183.347 122.353 182.61C122.732 181.873 123.636 181.583 124.373 181.961L123.003 184.63ZM127.935 183.824C128.666 184.213 128.943 185.122 128.553 185.853C128.164 186.584 127.255 186.861 126.524 186.472L127.935 183.824ZM130.031 188.373C129.305 187.973 129.042 187.061 129.442 186.335C129.843 185.61 130.755 185.346 131.48 185.747L130.031 188.373ZM134.986 187.715C135.706 188.126 135.956 189.042 135.545 189.762C135.134 190.481 134.218 190.731 133.499 190.32L134.986 187.715ZM136.945 192.322C136.232 191.901 135.995 190.981 136.416 190.267C136.837 189.554 137.757 189.317 138.47 189.738L136.945 192.322ZM141.922 191.808C142.63 192.239 142.854 193.162 142.423 193.87C141.992 194.577 141.069 194.801 140.361 194.37L141.922 191.808ZM143.747 196.465C143.045 196.024 142.834 195.098 143.274 194.397C143.715 193.695 144.641 193.484 145.343 193.925L143.747 196.465ZM148.738 196.09C149.434 196.54 149.633 197.469 149.183 198.164C148.733 198.86 147.804 199.059 147.108 198.609L148.738 196.09ZM150.436 200.793C149.746 200.334 149.559 199.403 150.019 198.713C150.478 198.023 151.409 197.836 152.098 198.296L150.436 200.793ZM155.436 200.548C156.12 201.016 156.295 201.95 155.827 202.633C155.359 203.317 154.425 203.492 153.742 203.024L155.436 200.548ZM157.016 205.295C156.338 204.819 156.175 203.883 156.651 203.205C157.127 202.527 158.063 202.364 158.741 202.84L157.016 205.295ZM162.018 205.172C162.69 205.656 162.842 206.594 162.358 207.266C161.874 207.938 160.936 208.09 160.264 207.606L162.018 205.172ZM163.485 209.956C162.819 209.464 162.678 208.525 163.17 207.858C163.662 207.192 164.601 207.05 165.267 207.542L163.485 209.956ZM168.487 209.948C169.148 210.448 169.279 211.388 168.78 212.049C168.28 212.71 167.339 212.841 166.678 212.341L168.487 209.948ZM169.848 214.764C169.192 214.258 169.072 213.316 169.578 212.66C170.085 212.005 171.027 211.884 171.683 212.391L169.848 214.764ZM174.849 214.865C175.5 215.379 175.61 216.322 175.097 216.972C174.583 217.622 173.64 217.733 172.99 217.22L174.849 214.865ZM176.109 219.708C175.464 219.188 175.362 218.244 175.882 217.599C176.402 216.954 177.346 216.853 177.991 217.372L176.109 219.708ZM181.108 219.91C181.748 220.436 181.84 221.381 181.314 222.021C180.788 222.661 179.843 222.753 179.203 222.227L181.108 219.91ZM182.273 224.775C181.638 224.243 181.555 223.297 182.087 222.662C182.619 222.027 183.565 221.944 184.2 222.476L182.273 224.775ZM187.268 225.069C187.899 225.606 187.974 226.553 187.436 227.183C186.899 227.814 185.952 227.889 185.322 227.352L187.268 225.069ZM188.348 229.954C187.722 229.412 187.655 228.464 188.198 227.838C188.741 227.212 189.688 227.145 190.314 227.688L188.348 229.954ZM193.337 230.331C193.959 230.879 194.019 231.826 193.471 232.448C192.924 233.07 191.976 233.13 191.354 232.582L193.337 230.331ZM194.34 235.233C193.723 234.681 193.67 233.733 194.222 233.115C194.775 232.498 195.723 232.445 196.34 232.997L194.34 235.233ZM199.323 235.684C199.937 236.241 199.983 237.19 199.426 237.803C198.869 238.417 197.921 238.463 197.307 237.906L199.323 235.684ZM200.256 240.6C199.647 240.039 199.607 239.091 200.168 238.481C200.728 237.871 201.677 237.831 202.287 238.392L200.256 240.6ZM205.233 241.118C205.839 241.683 205.873 242.632 205.309 243.238C204.744 243.844 203.795 243.878 203.189 243.314L205.233 241.118ZM206.105 246.045C205.502 245.477 205.474 244.527 206.042 243.924C206.61 243.321 207.559 243.293 208.162 243.861L206.105 246.045ZM211.076 246.621C211.676 247.192 211.699 248.141 211.128 248.741C210.556 249.341 209.607 249.364 209.007 248.793L211.076 246.621ZM211.894 251.556C211.297 250.982 211.279 250.033 211.853 249.435C212.427 248.838 213.377 248.82 213.974 249.394L211.894 251.556ZM216.859 252.181C217.453 252.758 217.468 253.708 216.891 254.302C216.314 254.897 215.364 254.911 214.77 254.334L216.859 252.181ZM217.633 257.124C217.041 256.545 217.031 255.595 217.61 255.003C218.189 254.411 219.139 254.401 219.731 254.98L217.633 257.124ZM222.592 257.79C223.182 258.371 223.189 259.321 222.607 259.911C222.026 260.501 221.076 260.508 220.486 259.926L222.592 257.79ZM223.33 262.739C222.742 262.155 222.738 261.206 223.322 260.618C223.905 260.029 224.855 260.026 225.443 260.609L223.33 262.739ZM228.284 263.436C228.871 264.021 228.872 264.971 228.287 265.558C227.702 266.144 226.752 266.145 226.165 265.56L228.284 263.436ZM228.994 268.389C228.409 267.803 228.41 266.853 228.997 266.268C229.584 265.683 230.533 265.684 231.118 266.271L228.994 268.389ZM233.945 269.111C234.529 269.699 234.526 270.649 233.938 271.233C233.351 271.816 232.401 271.813 231.817 271.225L233.945 269.111ZM234.635 274.067C234.052 273.478 234.057 272.529 234.646 271.946C235.234 271.363 236.184 271.368 236.767 271.956L234.635 274.067ZM239.584 274.805C240.166 275.394 240.16 276.344 239.571 276.926C238.982 277.508 238.032 277.502 237.45 276.913L239.584 274.805ZM240.262 279.762C239.68 279.172 239.687 278.223 240.277 277.641C240.866 277.059 241.816 277.066 242.398 277.655L240.262 279.762ZM245.21 280.507C245.791 281.097 245.785 282.047 245.195 282.628C244.605 283.21 243.655 283.203 243.073 282.613L245.21 280.507ZM245.885 285.465C245.303 284.875 245.31 283.926 245.9 283.344C246.49 282.762 247.439 282.769 248.021 283.359L245.885 285.465ZM250.832 286.209C251.414 286.799 251.408 287.749 250.818 288.331C250.229 288.913 249.279 288.906 248.697 288.317L250.832 286.209ZM251.512 291.167C250.93 290.578 250.935 289.628 251.524 289.045C252.113 288.463 253.063 288.468 253.646 289.057L251.512 291.167ZM256.461 291.902C257.045 292.49 257.041 293.44 256.452 294.023C255.864 294.606 254.914 294.602 254.331 294.014L256.461 291.902ZM257.154 296.857C256.57 296.27 256.572 295.32 257.16 294.736C257.747 294.152 258.697 294.154 259.281 294.741L257.154 296.857ZM262.106 297.575C262.692 298.161 262.691 299.111 262.105 299.697C261.519 300.282 260.569 300.282 259.984 299.696L262.106 297.575ZM262.82 302.527C262.233 301.943 262.231 300.993 262.816 300.406C263.4 299.819 264.35 299.817 264.937 300.402L262.82 302.527ZM267.776 303.22C268.365 303.803 268.37 304.753 267.787 305.341C267.204 305.93 266.254 305.935 265.665 305.352L267.776 303.22ZM268.52 308.168C267.929 307.587 267.921 306.637 268.502 306.047C269.082 305.456 270.032 305.448 270.623 306.029L268.52 308.168ZM2 153.5C2.68147 153.5 3.36113 153.502 4.03899 153.506L4.02011 156.506C3.34856 156.502 2.67519 156.5 2 156.5V153.5ZM8.0846 153.557C9.42599 153.583 10.7602 153.617 12.0875 153.659L11.9921 156.657C10.6778 156.616 9.35632 156.582 8.02768 156.557L8.0846 153.557ZM16.1013 153.813C17.4562 153.874 18.8036 153.943 20.1436 154.021L19.9689 157.016C18.6422 156.939 17.3082 156.87 15.9668 156.81L16.1013 153.813ZM24.142 154.282C25.4852 154.378 26.821 154.484 28.1494 154.598L27.8927 157.587C26.5781 157.474 25.2561 157.37 23.9267 157.274L24.142 154.282ZM32.1775 154.972C33.5126 155.106 34.8403 155.249 36.1606 155.4L35.8193 158.38C34.5132 158.231 33.1996 158.09 31.8786 157.958L32.1775 154.972ZM40.1598 155.887C41.5017 156.061 42.8359 156.243 44.1625 156.435L43.7339 159.404C42.422 159.215 41.1025 159.034 39.7752 158.862L40.1598 155.887ZM48.1196 157.036C49.456 157.249 50.7846 157.471 52.1056 157.703L51.5881 160.658C50.2821 160.429 48.9684 160.209 47.647 159.998L48.1196 157.036ZM56.0718 158.429C57.3862 158.68 58.6929 158.94 59.9921 159.208L59.3842 162.146C58.1 161.88 56.8084 161.623 55.509 161.375L56.0718 158.429ZM63.9571 160.062C65.2711 160.355 66.5775 160.658 67.8761 160.969L67.176 163.887C65.8927 163.579 64.6017 163.279 63.303 162.989L63.9571 160.062ZM71.7747 161.938C73.0853 162.274 74.3881 162.62 75.6831 162.975L74.8904 165.868C73.6108 165.518 72.3235 165.176 71.0285 164.843L71.7747 161.938ZM79.5453 164.066C80.8416 164.444 82.1301 164.83 83.4109 165.226L82.5256 168.092C81.2602 167.702 79.9871 167.32 78.7064 166.947L79.5453 164.066ZM87.253 166.447C88.5283 166.863 89.796 167.289 91.0562 167.723L90.0789 170.559C88.8339 170.13 87.5814 169.71 86.3215 169.299L87.253 166.447ZM94.8696 169.072C96.1332 169.53 97.3891 169.998 98.6377 170.474L97.5691 173.277C96.3356 172.807 95.0947 172.345 93.8464 171.892L94.8696 169.072ZM102.392 171.939C103.643 172.439 104.887 172.948 106.123 173.466L104.965 176.233C103.744 175.722 102.514 175.219 101.278 174.725L102.392 171.939ZM109.815 175.045C111.052 175.586 112.281 176.135 113.504 176.693L112.258 179.422C111.05 178.871 109.835 178.328 108.613 177.794L109.815 175.045ZM117.149 178.391C118.365 178.968 119.573 179.554 120.775 180.148L119.445 182.837C118.258 182.25 117.063 181.671 115.862 181.1L117.149 178.391ZM124.373 181.961C125.567 182.574 126.754 183.195 127.935 183.824L126.524 186.472C125.357 185.85 124.183 185.236 123.003 184.63L124.373 181.961ZM131.48 185.747C132.656 186.395 133.824 187.052 134.986 187.715L133.499 190.32C132.349 189.664 131.193 189.015 130.031 188.373L131.48 185.747ZM138.47 189.738C139.627 190.421 140.778 191.111 141.922 191.808L140.361 194.37C139.229 193.68 138.09 192.997 136.945 192.322L138.47 189.738ZM145.343 193.925C146.48 194.639 147.612 195.361 148.738 196.09L147.108 198.609C145.994 197.887 144.873 197.173 143.747 196.465L145.343 193.925ZM152.098 198.296C153.217 199.04 154.329 199.791 155.436 200.548L153.742 203.024C152.645 202.274 151.543 201.53 150.436 200.793L152.098 198.296ZM158.741 202.84C159.838 203.611 160.931 204.389 162.018 205.172L160.264 207.606C159.186 206.829 158.104 206.059 157.016 205.295L158.741 202.84ZM165.267 207.542C166.346 208.339 167.419 209.141 168.487 209.948L166.678 212.341C165.619 211.541 164.555 210.745 163.485 209.956L165.267 207.542ZM171.683 212.391C172.743 213.21 173.798 214.035 174.849 214.865L172.99 217.22C171.947 216.396 170.9 215.577 169.848 214.764L171.683 212.391ZM177.991 217.372C179.035 218.213 180.073 219.059 181.108 219.91L179.203 222.227C178.175 221.383 177.144 220.543 176.109 219.708L177.991 217.372ZM184.2 222.476C185.226 223.336 186.249 224.2 187.268 225.069L185.322 227.352C184.309 226.488 183.293 225.63 182.273 224.775L184.2 222.476ZM190.314 227.688C191.325 228.565 192.333 229.446 193.337 230.331L191.354 232.582C190.356 231.702 189.354 230.826 188.348 229.954L190.314 227.688ZM196.34 232.997C197.338 233.889 198.332 234.785 199.323 235.684L197.307 237.906C196.321 237.012 195.332 236.12 194.34 235.233L196.34 232.997ZM202.287 238.392C203.272 239.298 204.254 240.206 205.233 241.118L203.189 243.314C202.214 242.406 201.237 241.501 200.256 240.6L202.287 238.392ZM208.162 243.861C209.136 244.778 210.107 245.698 211.076 246.621L209.007 248.793C208.042 247.874 207.075 246.958 206.105 246.045L208.162 243.861ZM213.974 249.394C214.937 250.321 215.899 251.25 216.859 252.181L214.77 254.334C213.813 253.406 212.855 252.48 211.894 251.556L213.974 249.394ZM219.731 254.98C220.686 255.915 221.64 256.851 222.592 257.79L220.486 259.926C219.537 258.99 218.586 258.056 217.633 257.124L219.731 254.98ZM225.443 260.609C226.391 261.55 227.339 262.493 228.284 263.436L226.165 265.56C225.221 264.618 224.276 263.678 223.33 262.739L225.443 260.609ZM231.118 266.271C232.062 267.217 233.004 268.164 233.945 269.111L231.817 271.225C230.877 270.279 229.936 269.334 228.994 268.389L231.118 266.271ZM236.767 271.956C237.707 272.905 238.646 273.855 239.584 274.805L237.45 276.913C236.512 275.964 235.574 275.015 234.635 274.067L236.767 271.956ZM242.398 277.655C243.336 278.606 244.273 279.556 245.21 280.507L243.073 282.613C242.136 281.663 241.199 280.712 240.262 279.762L242.398 277.655ZM248.021 283.359C248.958 284.309 249.895 285.26 250.832 286.209L248.697 288.317C247.759 287.366 246.822 286.416 245.885 285.465L248.021 283.359ZM253.646 289.057C254.584 290.006 255.522 290.955 256.461 291.902L254.331 294.014C253.391 293.066 252.451 292.116 251.512 291.167L253.646 289.057ZM259.281 294.741C260.222 295.687 261.164 296.632 262.106 297.575L259.984 299.696C259.04 298.751 258.096 297.804 257.154 296.857L259.281 294.741ZM264.937 300.402C265.882 301.343 266.828 302.282 267.776 303.22L265.665 305.352C264.716 304.412 263.767 303.471 262.82 302.527L264.937 300.402ZM270.623 306.029C271.098 306.496 271.574 306.962 272.05 307.428L269.95 309.572C269.473 309.104 268.996 308.636 268.52 308.168L270.623 306.029Z" fill="#F9D047"/>
<path d="M2 153.5C1.17157 153.5 0.5 154.172 0.5 155C0.5 155.828 1.17157 156.5 2 156.5V153.5ZM273.498 67.5817C273.543 66.7545 272.909 66.0473 272.082 66.0022L258.602 65.267C257.775 65.2218 257.067 65.8558 257.022 66.683C256.977 67.5102 257.611 68.2174 258.438 68.2625L270.421 68.9161L269.767 80.8983C269.722 81.7255 270.356 82.4326 271.183 82.4777C272.01 82.5229 272.717 81.8889 272.763 81.0617L273.498 67.5817ZM3.99498 156.493C4.82339 156.487 5.49027 155.811 5.48452 154.983C5.47876 154.154 4.80253 153.487 3.97413 153.493L3.99498 156.493ZM7.94369 153.438C7.11544 153.455 6.45778 154.141 6.47478 154.969C6.49177 155.797 7.17698 156.455 8.00523 156.438L7.94369 153.438ZM12.0372 156.328C12.8651 156.301 13.5137 155.607 13.4859 154.779C13.458 153.951 12.7642 153.302 11.9363 153.33L12.0372 156.328ZM15.8939 153.172C15.0663 153.21 14.4265 153.912 14.4647 154.74C14.5029 155.567 15.2047 156.207 16.0323 156.169L15.8939 153.172ZM20.0493 155.959C20.8763 155.91 21.5076 155.201 21.4594 154.374C21.4111 153.547 20.7016 152.915 19.8745 152.964L20.0493 155.959ZM23.8431 152.709C23.0167 152.767 22.3938 153.484 22.4517 154.31C22.5096 155.136 23.2265 155.759 24.0529 155.701L23.8431 152.709ZM28.0511 155.398C28.8767 155.331 29.4916 154.607 29.4244 153.782C29.3571 152.956 28.6333 152.341 27.8076 152.408L28.0511 155.398ZM31.7863 152.062C30.9614 152.139 30.3545 152.869 30.4307 153.694C30.507 154.519 31.2376 155.126 32.0625 155.05L31.7863 152.062ZM36.0426 154.66C36.8666 154.575 37.4658 153.839 37.3809 153.014C37.296 152.19 36.5591 151.591 35.735 151.676L36.0426 154.66ZM39.6984 151.247C38.8752 151.34 38.2836 152.083 38.3769 152.907C38.4703 153.73 39.2133 154.321 40.0364 154.228L39.6984 151.247ZM44.02 153.756C44.8422 153.655 45.4264 152.906 45.3249 152.084C45.2234 151.261 44.4746 150.677 43.6525 150.779L44.02 153.756ZM47.5982 150.272C46.777 150.382 46.2 151.136 46.3093 151.957C46.4187 152.778 47.1731 153.355 47.9943 153.246L47.5982 150.272ZM51.9779 152.696C52.798 152.579 53.3679 151.82 53.2509 150.999C53.1338 150.179 52.3741 149.609 51.554 149.726L51.9779 152.696ZM55.4853 149.147C54.6663 149.272 54.1033 150.036 54.2277 150.855C54.3522 151.674 55.1171 152.238 55.9361 152.113L55.4853 149.147ZM59.8994 151.493C60.7173 151.361 61.2735 150.591 61.1418 149.773C61.0102 148.956 60.2404 148.399 59.4225 148.531L59.8994 151.493ZM63.3558 147.88C62.5391 148.019 61.9894 148.793 62.1281 149.61C62.2669 150.427 63.0414 150.977 63.8581 150.838L63.3558 147.88ZM67.8036 150.151C68.6191 150.005 69.1623 149.226 69.0167 148.41C68.8712 147.595 68.0921 147.052 67.2766 147.197L67.8036 150.151ZM71.2005 146.48C70.3862 146.633 69.8494 147.416 70.0016 148.231C70.1538 149.045 70.9374 149.582 71.7517 149.429L71.2005 146.48ZM75.6869 148.678C76.4999 148.519 77.0304 147.731 76.8717 146.918C76.713 146.105 75.9253 145.574 75.1122 145.733L75.6869 148.678ZM79.0197 144.955C78.2079 145.12 77.6835 145.912 77.8486 146.723C78.0136 147.535 78.8055 148.059 79.6173 147.894L79.0197 144.955ZM83.5452 147.08C84.3558 146.909 84.874 146.113 84.7028 145.303C84.5316 144.492 83.7357 143.974 82.9252 144.145L83.5452 147.08ZM86.8191 143.307C86.0099 143.485 85.4976 144.284 85.6748 145.094C85.8521 145.903 86.6518 146.415 87.4611 146.238L86.8191 143.307ZM91.3732 145.366C92.1811 145.183 92.6875 144.379 92.5044 143.571C92.3212 142.763 91.5177 142.257 90.7098 142.44L91.3732 145.366ZM94.5946 141.544C93.788 141.733 93.2873 142.541 93.4763 143.347C93.6653 144.154 94.4724 144.654 95.279 144.465L94.5946 141.544ZM99.1771 143.537C99.9824 143.343 100.477 142.532 100.283 141.727C100.088 140.922 99.2774 140.427 98.4722 140.621L99.1771 143.537ZM102.343 139.671C101.539 139.872 101.049 140.686 101.25 141.49C101.45 142.293 102.264 142.783 103.068 142.582L102.343 139.671ZM106.954 141.6C107.757 141.394 108.241 140.577 108.035 139.774C107.829 138.972 107.012 138.488 106.209 138.694L106.954 141.6ZM110.067 137.691C109.266 137.902 108.788 138.723 108.999 139.524C109.21 140.325 110.031 140.803 110.832 140.592L110.067 137.691ZM114.701 139.558C115.501 139.342 115.974 138.518 115.757 137.719C115.541 136.919 114.717 136.446 113.917 136.663L114.701 139.558ZM117.766 135.607C116.968 135.829 116.5 136.656 116.722 137.454C116.944 138.252 117.77 138.72 118.569 138.498L117.766 135.607ZM122.422 137.414C123.219 137.188 123.681 136.358 123.454 135.561C123.227 134.764 122.398 134.302 121.601 134.529L122.422 137.414ZM125.434 133.425C124.639 133.656 124.182 134.489 124.414 135.284C124.646 136.08 125.479 136.537 126.274 136.305L125.434 133.425ZM130.118 135.17C130.912 134.933 131.364 134.098 131.127 133.304C130.89 132.51 130.054 132.059 129.26 132.296L130.118 135.17ZM133.069 131.146C132.276 131.388 131.83 132.226 132.072 133.019C132.314 133.811 133.152 134.257 133.945 134.015L133.069 131.146ZM137.783 132.83C138.573 132.584 139.014 131.742 138.767 130.952C138.521 130.161 137.679 129.72 136.889 129.967L137.783 132.83ZM140.688 128.768C139.899 129.02 139.463 129.863 139.715 130.653C139.967 131.442 140.81 131.878 141.6 131.626L140.688 128.768ZM145.411 130.397C146.199 130.141 146.63 129.294 146.373 128.507C146.116 127.719 145.27 127.288 144.482 127.545L145.411 130.397ZM148.276 126.296C147.49 126.558 147.064 127.407 147.326 128.193C147.587 128.979 148.436 129.404 149.222 129.143L148.276 126.296ZM153.008 127.871C153.792 127.605 154.213 126.754 153.946 125.969C153.68 125.185 152.829 124.764 152.044 125.031L153.008 127.871ZM155.828 123.734C155.045 124.005 154.63 124.859 154.901 125.642C155.172 126.425 156.026 126.84 156.809 126.569L155.828 123.734ZM160.588 125.248C161.369 124.972 161.779 124.115 161.503 123.334C161.228 122.553 160.371 122.143 159.59 122.419L160.588 125.248ZM163.341 121.082C162.561 121.362 162.157 122.222 162.437 123.001C162.718 123.78 163.577 124.185 164.357 123.904L163.341 121.082ZM168.132 122.533C168.91 122.247 169.309 121.386 169.024 120.608C168.738 119.83 167.876 119.431 167.099 119.716L168.132 122.533ZM170.822 118.337C170.046 118.627 169.652 119.492 169.942 120.268C170.233 121.044 171.097 121.438 171.873 121.148L170.822 118.337ZM175.636 119.727C176.41 119.432 176.799 118.566 176.504 117.792C176.209 117.017 175.342 116.629 174.568 116.924L175.636 119.727ZM178.286 115.495C177.513 115.794 177.13 116.663 177.43 117.436C177.73 118.208 178.599 118.591 179.371 118.291L178.286 115.495ZM183.098 116.831C183.869 116.527 184.246 115.655 183.942 114.885C183.637 114.114 182.766 113.737 181.995 114.041L183.098 116.831ZM185.708 112.56C184.94 112.869 184.568 113.743 184.877 114.511C185.187 115.28 186.061 115.652 186.829 115.342L185.708 112.56ZM190.516 113.843C191.283 113.529 191.649 112.653 191.335 111.886C191.02 111.12 190.144 110.753 189.378 111.068L190.516 113.843ZM193.087 109.531C192.323 109.851 191.962 110.73 192.282 111.494C192.601 112.258 193.48 112.619 194.244 112.299L193.087 109.531ZM197.92 110.748C198.682 110.423 199.037 109.542 198.712 108.78C198.388 108.018 197.507 107.663 196.744 107.988L197.92 110.748ZM200.419 106.407C199.659 106.737 199.311 107.621 199.641 108.381C199.971 109.141 200.854 109.489 201.614 109.159L200.419 106.407ZM205.281 107.552C206.038 107.217 206.381 106.331 206.045 105.573C205.71 104.816 204.824 104.473 204.067 104.809L205.281 107.552ZM207.703 103.184C206.948 103.524 206.612 104.413 206.953 105.168C207.293 105.923 208.182 106.259 208.937 105.918L207.703 103.184ZM212.593 104.252C213.345 103.905 213.675 103.015 213.328 102.262C212.982 101.509 212.091 101.18 211.338 101.527L212.593 104.252ZM214.935 99.8542C214.185 100.206 213.863 101.1 214.215 101.85C214.567 102.599 215.461 102.922 216.211 102.57L214.935 99.8542ZM219.853 100.841C220.6 100.483 220.915 99.587 220.557 98.84C220.198 98.093 219.302 97.7779 218.555 98.1362L219.853 100.841ZM222.114 96.4115C221.37 96.776 221.062 97.6745 221.426 98.4185C221.791 99.1624 222.689 99.4701 223.433 99.1056L222.114 96.4115ZM227.056 97.3112C227.797 96.9401 228.096 96.0389 227.725 95.2982C227.354 94.5575 226.453 94.2579 225.712 94.6289L227.056 97.3112ZM229.233 92.8449C228.496 93.2228 228.205 94.1267 228.583 94.864C228.96 95.6012 229.864 95.8926 230.602 95.5147L229.233 92.8449ZM234.196 93.6502C234.929 93.2651 235.212 92.3583 234.826 91.6248C234.441 90.8914 233.535 90.609 232.801 90.9942L234.196 93.6502ZM236.287 89.1405C235.558 89.5333 235.285 90.443 235.678 91.1724C236.07 91.9018 236.98 92.1747 237.71 91.7819L236.287 89.1405ZM241.261 89.8433C241.986 89.4422 242.249 88.5294 241.848 87.8046C241.447 87.0797 240.534 86.8172 239.809 87.2183L241.261 89.8433ZM243.262 85.2805C242.542 85.6904 242.291 86.6063 242.701 87.3262C243.11 88.0461 244.026 88.2974 244.746 87.8875L243.262 85.2805ZM248.234 85.8708C248.948 85.4512 249.187 84.532 248.768 83.8177C248.348 83.1034 247.429 82.8645 246.715 83.2841L248.234 85.8708ZM250.132 81.2426C249.424 81.6728 249.199 82.5955 249.629 83.3035C250.06 84.0114 250.982 84.2366 251.69 83.8064L250.132 81.2426ZM255.08 81.7086C255.781 81.2667 255.991 80.3404 255.549 79.6397C255.107 78.939 254.181 78.7291 253.48 79.171L255.08 81.7086ZM256.851 77.0003C256.159 77.4556 255.967 78.3858 256.423 79.0778C256.878 79.7699 257.808 79.9618 258.5 79.5065L256.851 77.0003ZM261.834 77.2612C262.515 76.7906 262.687 75.8564 262.216 75.1746C261.746 74.4929 260.811 74.3217 260.13 74.7922L261.834 77.2612ZM263.326 72.5251C262.657 73.0134 262.511 73.9518 262.999 74.621C263.487 75.2902 264.426 75.4368 265.095 74.9484L263.326 72.5251ZM268.357 72.4876C269.009 71.9775 269.125 71.0348 268.615 70.3821C268.105 69.7293 267.162 69.6138 266.509 70.124L268.357 72.4876ZM269.57 67.6309C268.939 68.1681 268.864 69.1149 269.401 69.7455C269.938 70.3761 270.885 70.4518 271.516 69.9145L269.57 67.6309ZM2 156.5C2.66383 156.5 3.32884 156.498 3.99498 156.493L3.97413 153.493C3.31488 153.498 2.65682 153.5 2 153.5V156.5ZM8.00523 156.438C9.34502 156.41 10.6891 156.374 12.0372 156.328L11.9363 153.33C10.6011 153.375 9.27014 153.411 7.94369 153.438L8.00523 156.438ZM16.0323 156.169C17.3677 156.107 18.7068 156.037 20.0493 155.959L19.8745 152.964C18.544 153.041 17.217 153.111 15.8939 153.172L16.0323 156.169ZM24.0529 155.701C25.3826 155.608 26.7154 155.507 28.0511 155.398L27.8076 152.408C26.483 152.516 25.1615 152.616 23.8431 152.709L24.0529 155.701ZM32.0625 155.05C33.3867 154.927 34.7135 154.797 36.0426 154.66L35.735 151.676C34.4163 151.812 33.0999 151.941 31.7863 152.062L32.0625 155.05ZM40.0364 154.228C41.3623 154.078 42.6903 153.92 44.02 153.756L43.6525 150.779C42.3324 150.942 41.0143 151.098 39.6984 151.247L40.0364 154.228ZM47.9943 153.246C49.3206 153.069 50.6486 152.886 51.9779 152.696L51.554 149.726C50.2338 149.915 48.9152 150.097 47.5982 150.272L47.9943 153.246ZM55.9361 152.113C57.2561 151.912 58.5773 151.706 59.8994 151.493L59.4225 148.531C58.109 148.742 56.7966 148.948 55.4853 149.147L55.9361 152.113ZM63.8581 150.838C65.1727 150.615 66.4879 150.385 67.8036 150.151L67.2766 147.197C65.969 147.431 64.662 147.658 63.3558 147.88L63.8581 150.838ZM71.7517 149.429C73.0633 149.184 74.3751 148.934 75.6869 148.678L75.1122 145.733C73.8081 145.988 72.5042 146.237 71.2005 146.48L71.7517 149.429ZM79.6173 147.894C80.9269 147.628 82.2363 147.357 83.5452 147.08L82.9252 144.145C81.6236 144.42 80.3217 144.69 79.0197 144.955L79.6173 147.894ZM87.4611 146.238C88.7658 145.952 90.0699 145.661 91.3732 145.366L90.7098 142.44C89.4136 142.734 88.1166 143.023 86.8191 143.307L87.4611 146.238ZM95.279 144.465C96.5795 144.161 97.8789 143.851 99.1771 143.537L98.4722 140.621C97.1807 140.934 95.8881 141.241 94.5946 141.544L95.279 144.465ZM103.068 142.582C104.365 142.259 105.661 141.932 106.954 141.6L106.209 138.694C104.922 139.024 103.633 139.35 102.343 139.671L103.068 142.582ZM110.832 140.592C112.124 140.252 113.413 139.907 114.701 139.558L113.917 136.663C112.636 137.009 111.353 137.352 110.067 137.691L110.832 140.592ZM118.569 138.498C119.856 138.141 121.14 137.779 122.422 137.414L121.601 134.529C120.325 134.892 119.047 135.252 117.766 135.607L118.569 138.498ZM126.274 136.305C127.558 135.93 128.84 135.552 130.118 135.17L129.26 132.296C127.988 132.676 126.712 133.052 125.434 133.425L126.274 136.305ZM133.945 134.015C135.227 133.624 136.507 133.229 137.783 132.83L136.889 129.967C135.619 130.363 134.345 130.756 133.069 131.146L133.945 134.015ZM141.6 131.626C142.874 131.22 144.145 130.81 145.411 130.397L144.482 127.545C143.221 127.956 141.957 128.363 140.688 128.768L141.6 131.626ZM149.222 129.143C150.489 128.722 151.751 128.298 153.008 127.871L152.044 125.031C150.792 125.455 149.536 125.877 148.276 126.296L149.222 129.143ZM156.809 126.569C158.074 126.131 159.334 125.691 160.588 125.248L159.59 122.419C158.341 122.86 157.087 123.298 155.828 123.734L156.809 126.569ZM164.357 123.904C165.621 123.45 166.879 122.992 168.132 122.533L167.099 119.716C165.852 120.174 164.599 120.629 163.341 121.082L164.357 123.904ZM171.873 121.148C173.133 120.676 174.388 120.203 175.636 119.727L174.568 116.924C173.326 117.397 172.077 117.868 170.822 118.337L171.873 121.148ZM179.371 118.291C180.62 117.806 181.863 117.32 183.098 116.831L181.995 114.041C180.766 114.527 179.529 115.012 178.286 115.495L179.371 118.291ZM186.829 115.342C188.066 114.844 189.295 114.344 190.516 113.843L189.378 111.068C188.162 111.566 186.939 112.064 185.708 112.56L186.829 115.342ZM194.244 112.299C195.478 111.783 196.704 111.266 197.92 110.748L196.744 107.988C195.534 108.503 194.315 109.018 193.087 109.531L194.244 112.299ZM201.614 109.159C202.846 108.624 204.068 108.088 205.281 107.552L204.067 104.809C202.861 105.342 201.645 105.875 200.419 106.407L201.614 109.159ZM208.937 105.918C210.167 105.363 211.385 104.808 212.593 104.252L211.338 101.527C210.138 102.079 208.926 102.632 207.703 103.184L208.937 105.918ZM216.211 102.57C217.438 101.993 218.652 101.417 219.853 100.841L218.555 98.1362C217.362 98.7086 216.155 99.2814 214.935 99.8542L216.211 102.57ZM223.433 99.1056C224.656 98.5069 225.863 97.9086 227.056 97.3112L225.712 94.6289C224.528 95.2223 223.328 95.8166 222.114 96.4115L223.433 99.1056ZM230.602 95.5147C231.817 94.8919 233.015 94.2703 234.196 93.6502L232.801 90.9942C231.629 91.6096 230.44 92.2266 229.233 92.8449L230.602 95.5147ZM237.71 91.7819C238.914 91.1335 240.098 90.4872 241.261 89.8433L239.809 87.2183C238.656 87.8566 237.481 88.4974 236.287 89.1405L237.71 91.7819ZM244.746 87.8875C245.933 87.212 247.095 86.5396 248.234 85.8708L246.715 83.2841C245.588 83.9458 244.437 84.6115 243.262 85.2805L244.746 87.8875ZM251.69 83.8064C252.849 83.1024 253.979 82.4029 255.08 81.7086L253.48 79.171C252.393 79.8562 251.277 80.5469 250.132 81.2426L251.69 83.8064ZM258.5 79.5065C259.648 78.751 260.76 78.0023 261.834 77.2612L260.13 74.7922C259.075 75.52 257.982 76.2563 256.851 77.0003L258.5 79.5065ZM265.095 74.9484C266.234 74.1172 267.322 73.2965 268.357 72.4876L266.509 70.124C265.502 70.911 264.441 71.7117 263.326 72.5251L265.095 74.9484ZM271.516 69.9145C272.028 69.4781 272.523 69.0455 273.001 68.6169L270.999 66.3831C270.54 66.794 270.064 67.21 269.57 67.6309L271.516 69.9145Z" fill="#F9D047"/>
<path d="M2 156C1.17157 156 0.5 155.328 0.5 154.5C0.5 153.672 1.17157 153 2 153V156ZM273.498 241.918C273.543 242.746 272.909 243.453 272.082 243.498L258.602 244.233C257.775 244.278 257.067 243.644 257.022 242.817C256.977 241.99 257.611 241.283 258.438 241.237L270.421 240.584L269.767 228.602C269.722 227.775 270.356 227.067 271.183 227.022C272.01 226.977 272.717 227.611 272.763 228.438L273.498 241.918ZM3.99498 153.007C4.82339 153.013 5.49027 153.689 5.48452 154.517C5.47876 155.346 4.80253 156.013 3.97413 156.007L3.99498 153.007ZM7.94369 156.062C7.11544 156.045 6.45778 155.359 6.47478 154.531C6.49177 153.703 7.17698 153.045 8.00523 153.062L7.94369 156.062ZM12.0372 153.172C12.8651 153.199 13.5137 153.893 13.4859 154.721C13.458 155.549 12.7642 156.198 11.9363 156.17L12.0372 153.172ZM15.8939 156.328C15.0663 156.29 14.4265 155.588 14.4647 154.76C14.5029 153.933 15.2047 153.293 16.0323 153.331L15.8939 156.328ZM20.0493 153.541C20.8763 153.59 21.5076 154.299 21.4594 155.126C21.4111 155.953 20.7016 156.585 19.8745 156.536L20.0493 153.541ZM23.8431 156.791C23.0167 156.733 22.3938 156.016 22.4517 155.19C22.5096 154.364 23.2265 153.741 24.0529 153.799L23.8431 156.791ZM28.0511 154.102C28.8767 154.169 29.4916 154.893 29.4244 155.718C29.3571 156.544 28.6333 157.159 27.8076 157.092L28.0511 154.102ZM31.7863 157.438C30.9614 157.361 30.3545 156.631 30.4307 155.806C30.507 154.981 31.2376 154.374 32.0625 154.45L31.7863 157.438ZM36.0426 154.84C36.8666 154.925 37.4658 155.661 37.3809 156.486C37.296 157.31 36.5591 157.909 35.735 157.824L36.0426 154.84ZM39.6984 158.253C38.8752 158.16 38.2836 157.417 38.3769 156.593C38.4703 155.77 39.2133 155.179 40.0364 155.272L39.6984 158.253ZM44.02 155.744C44.8422 155.845 45.4264 156.594 45.3249 157.416C45.2234 158.239 44.4746 158.823 43.6525 158.721L44.02 155.744ZM47.5982 159.228C46.777 159.118 46.2 158.364 46.3093 157.543C46.4187 156.722 47.1731 156.145 47.9943 156.254L47.5982 159.228ZM51.9779 156.804C52.798 156.921 53.3679 157.68 53.2509 158.501C53.1338 159.321 52.3741 159.891 51.554 159.774L51.9779 156.804ZM55.4853 160.353C54.6663 160.228 54.1033 159.464 54.2277 158.645C54.3522 157.826 55.1171 157.262 55.9361 157.387L55.4853 160.353ZM59.8994 158.007C60.7173 158.139 61.2735 158.909 61.1418 159.727C61.0102 160.544 60.2404 161.101 59.4225 160.969L59.8994 158.007ZM63.3558 161.62C62.5391 161.481 61.9894 160.707 62.1281 159.89C62.2669 159.073 63.0414 158.523 63.8581 158.662L63.3558 161.62ZM67.8036 159.349C68.6191 159.495 69.1623 160.274 69.0167 161.09C68.8712 161.905 68.0921 162.448 67.2766 162.303L67.8036 159.349ZM71.2005 163.02C70.3862 162.867 69.8494 162.084 70.0016 161.269C70.1538 160.455 70.9374 159.918 71.7517 160.071L71.2005 163.02ZM75.6869 160.822C76.4999 160.981 77.0304 161.769 76.8717 162.582C76.713 163.395 75.9253 163.926 75.1122 163.767L75.6869 160.822ZM79.0197 164.545C78.2079 164.38 77.6835 163.588 77.8486 162.777C78.0136 161.965 78.8055 161.441 79.6173 161.606L79.0197 164.545ZM83.5452 162.42C84.3558 162.591 84.874 163.387 84.7028 164.197C84.5316 165.008 83.7357 165.526 82.9252 165.355L83.5452 162.42ZM86.8191 166.193C86.0099 166.015 85.4976 165.216 85.6748 164.406C85.8521 163.597 86.6518 163.085 87.4611 163.262L86.8191 166.193ZM91.3732 164.134C92.1811 164.317 92.6875 165.121 92.5044 165.929C92.3212 166.737 91.5177 167.243 90.7098 167.06L91.3732 164.134ZM94.5946 167.956C93.788 167.767 93.2873 166.959 93.4763 166.153C93.6653 165.346 94.4724 164.846 95.279 165.035L94.5946 167.956ZM99.1771 165.963C99.9824 166.157 100.477 166.968 100.283 167.773C100.088 168.578 99.2774 169.073 98.4722 168.879L99.1771 165.963ZM102.343 169.829C101.539 169.628 101.049 168.814 101.25 168.01C101.45 167.207 102.264 166.717 103.068 166.918L102.343 169.829ZM106.954 167.9C107.757 168.106 108.241 168.923 108.035 169.726C107.829 170.528 107.012 171.012 106.209 170.806L106.954 167.9ZM110.067 171.809C109.266 171.598 108.788 170.777 108.999 169.976C109.21 169.175 110.031 168.697 110.832 168.908L110.067 171.809ZM114.701 169.942C115.501 170.158 115.974 170.982 115.757 171.781C115.541 172.581 114.717 173.054 113.917 172.837L114.701 169.942ZM117.766 173.893C116.968 173.671 116.5 172.844 116.722 172.046C116.944 171.248 117.77 170.78 118.569 171.002L117.766 173.893ZM122.422 172.086C123.219 172.312 123.681 173.142 123.454 173.939C123.227 174.736 122.398 175.198 121.601 174.971L122.422 172.086ZM125.434 176.075C124.639 175.844 124.182 175.011 124.414 174.216C124.646 173.42 125.479 172.963 126.274 173.195L125.434 176.075ZM130.118 174.33C130.912 174.567 131.364 175.402 131.127 176.196C130.89 176.99 130.054 177.441 129.26 177.204L130.118 174.33ZM133.069 178.354C132.276 178.112 131.83 177.274 132.072 176.481C132.314 175.689 133.152 175.243 133.945 175.485L133.069 178.354ZM137.783 176.67C138.573 176.916 139.014 177.758 138.767 178.548C138.521 179.339 137.679 179.78 136.889 179.533L137.783 176.67ZM140.688 180.732C139.899 180.48 139.463 179.637 139.715 178.847C139.967 178.058 140.81 177.622 141.6 177.874L140.688 180.732ZM145.411 179.103C146.199 179.359 146.63 180.206 146.373 180.993C146.116 181.781 145.27 182.212 144.482 181.955L145.411 179.103ZM148.276 183.204C147.49 182.942 147.064 182.093 147.326 181.307C147.587 180.521 148.436 180.096 149.222 180.357L148.276 183.204ZM153.008 181.629C153.792 181.895 154.213 182.746 153.946 183.531C153.68 184.315 152.829 184.736 152.044 184.469L153.008 181.629ZM155.828 185.766C155.045 185.495 154.63 184.641 154.901 183.858C155.172 183.075 156.026 182.66 156.809 182.931L155.828 185.766ZM160.588 184.252C161.369 184.528 161.779 185.385 161.503 186.166C161.228 186.947 160.371 187.357 159.59 187.081L160.588 184.252ZM163.341 188.418C162.561 188.138 162.157 187.278 162.437 186.499C162.718 185.72 163.577 185.315 164.357 185.596L163.341 188.418ZM168.132 186.967C168.91 187.253 169.309 188.114 169.024 188.892C168.738 189.67 167.876 190.069 167.099 189.784L168.132 186.967ZM170.822 191.163C170.046 190.873 169.652 190.008 169.942 189.232C170.233 188.456 171.097 188.062 171.873 188.352L170.822 191.163ZM175.636 189.773C176.41 190.068 176.799 190.934 176.504 191.708C176.209 192.483 175.342 192.871 174.568 192.576L175.636 189.773ZM178.286 194.005C177.513 193.706 177.13 192.837 177.43 192.064C177.73 191.292 178.599 190.909 179.371 191.209L178.286 194.005ZM183.098 192.669C183.869 192.973 184.246 193.845 183.942 194.615C183.637 195.386 182.766 195.763 181.995 195.459L183.098 192.669ZM185.708 196.94C184.94 196.631 184.568 195.757 184.877 194.989C185.187 194.22 186.061 193.848 186.829 194.158L185.708 196.94ZM190.516 195.657C191.283 195.971 191.649 196.847 191.335 197.614C191.02 198.38 190.144 198.747 189.378 198.432L190.516 195.657ZM193.087 199.969C192.323 199.649 191.962 198.77 192.282 198.006C192.601 197.242 193.48 196.881 194.244 197.201L193.087 199.969ZM197.92 198.752C198.682 199.077 199.037 199.958 198.712 200.72C198.388 201.482 197.507 201.837 196.744 201.512L197.92 198.752ZM200.419 203.093C199.659 202.763 199.311 201.879 199.641 201.119C199.971 200.359 200.854 200.011 201.614 200.341L200.419 203.093ZM205.281 201.948C206.038 202.283 206.381 203.169 206.045 203.927C205.71 204.684 204.824 205.027 204.067 204.691L205.281 201.948ZM207.703 206.316C206.948 205.976 206.612 205.087 206.953 204.332C207.293 203.577 208.182 203.241 208.937 203.582L207.703 206.316ZM212.593 205.248C213.345 205.595 213.675 206.485 213.328 207.238C212.982 207.991 212.091 208.32 211.338 207.973L212.593 205.248ZM214.935 209.646C214.185 209.294 213.863 208.4 214.215 207.65C214.567 206.901 215.461 206.578 216.211 206.93L214.935 209.646ZM219.853 208.659C220.6 209.017 220.915 209.913 220.557 210.66C220.198 211.407 219.302 211.722 218.555 211.364L219.853 208.659ZM222.114 213.088C221.37 212.724 221.062 211.825 221.426 211.082C221.791 210.338 222.689 210.03 223.433 210.394L222.114 213.088ZM227.056 212.189C227.797 212.56 228.096 213.461 227.725 214.202C227.354 214.942 226.453 215.242 225.712 214.871L227.056 212.189ZM229.233 216.655C228.496 216.277 228.205 215.373 228.583 214.636C228.96 213.899 229.864 213.607 230.602 213.985L229.233 216.655ZM234.196 215.85C234.929 216.235 235.212 217.142 234.826 217.875C234.441 218.609 233.535 218.891 232.801 218.506L234.196 215.85ZM236.287 220.359C235.558 219.967 235.285 219.057 235.678 218.328C236.07 217.598 236.98 217.325 237.71 217.718L236.287 220.359ZM241.261 219.657C241.986 220.058 242.249 220.971 241.848 221.695C241.447 222.42 240.534 222.683 239.809 222.282L241.261 219.657ZM243.262 224.219C242.542 223.81 242.291 222.894 242.701 222.174C243.11 221.454 244.026 221.203 244.746 221.612L243.262 224.219ZM248.234 223.629C248.948 224.049 249.187 224.968 248.768 225.682C248.348 226.397 247.429 226.636 246.715 226.216L248.234 223.629ZM250.132 228.257C249.424 227.827 249.199 226.905 249.629 226.197C250.06 225.489 250.982 225.263 251.69 225.694L250.132 228.257ZM255.08 227.791C255.781 228.233 255.991 229.16 255.549 229.86C255.107 230.561 254.181 230.771 253.48 230.329L255.08 227.791ZM256.851 232.5C256.159 232.044 255.967 231.114 256.423 230.422C256.878 229.73 257.808 229.538 258.5 229.994L256.851 232.5ZM261.834 232.239C262.515 232.709 262.687 233.644 262.216 234.325C261.746 235.007 260.811 235.178 260.13 234.708L261.834 232.239ZM263.326 236.975C262.657 236.487 262.511 235.548 262.999 234.879C263.487 234.21 264.426 234.063 265.095 234.552L263.326 236.975ZM268.357 237.012C269.009 237.523 269.125 238.465 268.615 239.118C268.105 239.771 267.162 239.886 266.509 239.376L268.357 237.012ZM269.57 241.869C268.939 241.332 268.864 240.385 269.401 239.755C269.938 239.124 270.885 239.048 271.516 239.585L269.57 241.869ZM2 153C2.66383 153 3.32884 153.002 3.99498 153.007L3.97413 156.007C3.31488 156.002 2.65682 156 2 156V153ZM8.00523 153.062C9.34502 153.09 10.6891 153.126 12.0372 153.172L11.9363 156.17C10.6011 156.125 9.27014 156.089 7.94369 156.062L8.00523 153.062ZM16.0323 153.331C17.3677 153.393 18.7068 153.463 20.0493 153.541L19.8745 156.536C18.544 156.459 17.217 156.389 15.8939 156.328L16.0323 153.331ZM24.0529 153.799C25.3826 153.892 26.7154 153.993 28.0511 154.102L27.8076 157.092C26.483 156.984 25.1615 156.884 23.8431 156.791L24.0529 153.799ZM32.0625 154.45C33.3867 154.573 34.7135 154.703 36.0426 154.84L35.735 157.824C34.4163 157.688 33.0999 157.559 31.7863 157.438L32.0625 154.45ZM40.0364 155.272C41.3623 155.422 42.6903 155.58 44.02 155.744L43.6525 158.721C42.3324 158.558 41.0143 158.402 39.6984 158.253L40.0364 155.272ZM47.9943 156.254C49.3206 156.431 50.6486 156.614 51.9779 156.804L51.554 159.774C50.2338 159.585 48.9152 159.403 47.5982 159.228L47.9943 156.254ZM55.9361 157.387C57.2561 157.588 58.5773 157.794 59.8994 158.007L59.4225 160.969C58.109 160.758 56.7966 160.552 55.4853 160.353L55.9361 157.387ZM63.8581 158.662C65.1727 158.885 66.4879 159.115 67.8036 159.349L67.2766 162.303C65.969 162.069 64.662 161.842 63.3558 161.62L63.8581 158.662ZM71.7517 160.071C73.0633 160.316 74.3751 160.566 75.6869 160.822L75.1122 163.767C73.8081 163.512 72.5042 163.263 71.2005 163.02L71.7517 160.071ZM79.6173 161.606C80.9269 161.872 82.2363 162.143 83.5452 162.42L82.9252 165.355C81.6236 165.08 80.3217 164.81 79.0197 164.545L79.6173 161.606ZM87.4611 163.262C88.7658 163.548 90.0699 163.839 91.3732 164.134L90.7098 167.06C89.4136 166.766 88.1166 166.477 86.8191 166.193L87.4611 163.262ZM95.279 165.035C96.5795 165.339 97.8789 165.649 99.1771 165.963L98.4722 168.879C97.1807 168.566 95.8881 168.259 94.5946 167.956L95.279 165.035ZM103.068 166.918C104.365 167.241 105.661 167.568 106.954 167.9L106.209 170.806C104.922 170.476 103.633 170.15 102.343 169.829L103.068 166.918ZM110.832 168.908C112.124 169.248 113.413 169.593 114.701 169.942L113.917 172.837C112.636 172.491 111.353 172.148 110.067 171.809L110.832 168.908ZM118.569 171.002C119.856 171.359 121.14 171.721 122.422 172.086L121.601 174.971C120.325 174.608 119.047 174.248 117.766 173.893L118.569 171.002ZM126.274 173.195C127.558 173.57 128.84 173.948 130.118 174.33L129.26 177.204C127.988 176.824 126.712 176.448 125.434 176.075L126.274 173.195ZM133.945 175.485C135.227 175.876 136.507 176.271 137.783 176.67L136.889 179.533C135.619 179.137 134.345 178.744 133.069 178.354L133.945 175.485ZM141.6 177.874C142.874 178.28 144.145 178.69 145.411 179.103L144.482 181.955C143.221 181.544 141.957 181.137 140.688 180.732L141.6 177.874ZM149.222 180.357C150.489 180.778 151.751 181.202 153.008 181.629L152.044 184.469C150.792 184.045 149.536 183.623 148.276 183.204L149.222 180.357ZM156.809 182.931C158.074 183.369 159.334 183.809 160.588 184.252L159.59 187.081C158.341 186.64 157.087 186.202 155.828 185.766L156.809 182.931ZM164.357 185.596C165.621 186.05 166.879 186.508 168.132 186.967L167.099 189.784C165.852 189.326 164.599 188.871 163.341 188.418L164.357 185.596ZM171.873 188.352C173.133 188.824 174.388 189.297 175.636 189.773L174.568 192.576C173.326 192.103 172.077 191.632 170.822 191.163L171.873 188.352ZM179.371 191.209C180.62 191.694 181.863 192.18 183.098 192.669L181.995 195.459C180.766 194.973 179.529 194.488 178.286 194.005L179.371 191.209ZM186.829 194.158C188.066 194.656 189.295 195.156 190.516 195.657L189.378 198.432C188.162 197.934 186.939 197.436 185.708 196.94L186.829 194.158ZM194.244 197.201C195.478 197.717 196.704 198.234 197.92 198.752L196.744 201.512C195.534 200.997 194.315 200.482 193.087 199.969L194.244 197.201ZM201.614 200.341C202.846 200.876 204.068 201.412 205.281 201.948L204.067 204.691C202.861 204.158 201.645 203.625 200.419 203.093L201.614 200.341ZM208.937 203.582C210.167 204.137 211.385 204.692 212.593 205.248L211.338 207.973C210.138 207.421 208.926 206.868 207.703 206.316L208.937 203.582ZM216.211 206.93C217.438 207.507 218.652 208.083 219.853 208.659L218.555 211.364C217.362 210.791 216.155 210.219 214.935 209.646L216.211 206.93ZM223.433 210.394C224.656 210.993 225.863 211.591 227.056 212.189L225.712 214.871C224.528 214.278 223.328 213.683 222.114 213.088L223.433 210.394ZM230.602 213.985C231.817 214.608 233.015 215.23 234.196 215.85L232.801 218.506C231.629 217.89 230.44 217.273 229.233 216.655L230.602 213.985ZM237.71 217.718C238.914 218.366 240.098 219.013 241.261 219.657L239.809 222.282C238.656 221.643 237.481 221.003 236.287 220.359L237.71 217.718ZM244.746 221.612C245.933 222.288 247.095 222.96 248.234 223.629L246.715 226.216C245.588 225.554 244.437 224.889 243.262 224.219L244.746 221.612ZM251.69 225.694C252.849 226.398 253.979 227.097 255.08 227.791L253.48 230.329C252.393 229.644 251.277 228.953 250.132 228.257L251.69 225.694ZM258.5 229.994C259.648 230.749 260.76 231.498 261.834 232.239L260.13 234.708C259.075 233.98 257.982 233.244 256.851 232.5L258.5 229.994ZM265.095 234.552C266.234 235.383 267.322 236.203 268.357 237.012L266.509 239.376C265.502 238.589 264.441 237.788 263.326 236.975L265.095 234.552ZM271.516 239.585C272.028 240.022 272.523 240.455 273.001 240.883L270.999 243.117C270.54 242.706 270.064 242.29 269.57 241.869L271.516 239.585Z" fill="#F9D047"/>
<path d="M2 153C1.17157 153 0.5 153.672 0.5 154.5C0.5 155.328 1.17157 156 2 156V153ZM268.91 131.012C269.193 130.233 268.79 129.373 268.012 129.09L255.321 124.485C254.542 124.203 253.682 124.605 253.399 125.384C253.117 126.163 253.519 127.023 254.298 127.306L265.578 131.398L261.485 142.679C261.203 143.458 261.605 144.318 262.384 144.601C263.163 144.883 264.023 144.481 264.306 143.702L268.91 131.012ZM4.02424 155.999C4.85266 155.999 5.52377 155.327 5.5232 154.498C5.52262 153.67 4.85058 152.999 4.02215 152.999L4.02424 155.999ZM8.07363 152.994C7.2452 152.995 6.57503 153.668 6.57677 154.497C6.5785 155.325 7.25148 155.995 8.0799 155.994L8.07363 152.994ZM12.1443 155.982C12.9727 155.979 13.6419 155.305 13.639 154.477C13.6361 153.649 12.9622 152.979 12.1338 152.982L12.1443 155.982ZM16.1825 152.965C15.3541 152.969 14.6858 153.644 14.6899 154.473C14.6939 155.301 15.3688 155.969 16.1972 155.965L16.1825 152.965ZM20.2566 155.942C21.085 155.937 21.7523 155.261 21.7471 154.433C21.7418 153.604 21.066 152.937 20.2376 152.942L20.2566 155.942ZM24.2922 152.914C23.4638 152.92 22.7974 153.597 22.8039 154.425C22.8103 155.254 23.4871 155.92 24.3155 155.914L24.2922 152.914ZM28.3724 155.879C29.2008 155.871 29.8661 155.194 29.8584 154.365C29.8508 153.537 29.173 152.872 28.3446 152.879L28.3724 155.879ZM32.4004 152.839C31.572 152.848 30.9077 153.526 30.9166 154.355C30.9254 155.183 31.6042 155.848 32.4326 155.839L32.4004 152.839ZM36.4895 155.792C37.3179 155.782 37.9812 155.102 37.9711 154.274C37.961 153.446 37.2813 152.782 36.4529 152.792L36.4895 155.792ZM40.5063 152.74C39.678 152.751 39.0157 153.432 39.027 154.26C39.0384 155.089 39.7191 155.751 40.5475 155.74L40.5063 152.74ZM44.606 155.681C45.4343 155.668 46.0956 154.986 46.0829 154.158C46.0703 153.33 45.3886 152.669 44.5602 152.681L44.606 155.681ZM48.6137 152.616C47.7854 152.63 47.1252 153.313 47.1391 154.141C47.153 154.97 47.8358 155.63 48.6641 155.616L48.6137 152.616ZM52.7204 155.545C53.5487 155.529 54.2078 154.846 54.1926 154.017C54.1774 153.189 53.4936 152.53 52.6653 152.545L52.7204 155.545ZM56.7206 152.467C55.8923 152.484 55.2343 153.169 55.2508 153.997C55.2673 154.825 55.9522 155.483 56.7804 155.467L56.7206 152.467ZM60.8372 155.383C61.6655 155.365 62.3224 154.679 62.3045 153.851C62.2866 153.022 61.6007 152.365 60.7725 152.383L60.8372 155.383ZM64.8247 152.292C63.9965 152.312 63.3407 152.999 63.3599 153.827C63.3792 154.655 64.0662 155.311 64.8944 155.292L64.8247 152.292ZM68.9541 155.194C69.7823 155.173 70.4369 154.485 70.4163 153.657C70.3956 152.829 69.7075 152.174 68.8794 152.195L68.9541 155.194ZM72.9268 152.091C72.0987 152.113 71.4452 152.802 71.4673 153.63C71.4893 154.458 72.1785 155.112 73.0067 155.089L72.9268 152.091ZM77.069 154.978C77.897 154.954 78.5493 154.264 78.5258 153.436C78.5023 152.608 77.8119 151.955 76.9838 151.979L77.069 154.978ZM81.0341 151.86C80.2061 151.885 79.5551 152.577 79.5801 153.405C79.605 154.233 80.2966 154.884 81.1246 154.859L81.0341 151.86ZM85.1799 154.733C86.0079 154.707 86.6577 154.014 86.6312 153.186C86.6047 152.358 85.912 151.708 85.084 151.735L85.1799 154.733ZM89.1394 151.601C88.3115 151.629 87.663 152.323 87.691 153.151C87.7191 153.979 88.413 154.627 89.2409 154.599L89.1394 151.601ZM93.2892 154.458C94.1171 154.429 94.7643 153.734 94.7347 152.906C94.705 152.078 94.0099 151.431 93.182 151.46L93.2892 154.458ZM97.2408 151.311C96.413 151.342 95.7672 152.039 95.7984 152.867C95.8297 153.694 96.5261 154.34 97.3539 154.309L97.2408 151.311ZM101.407 154.152C102.235 154.119 102.88 153.421 102.847 152.594C102.814 151.766 102.116 151.121 101.288 151.154L101.407 154.152ZM105.337 150.989C104.509 151.024 103.866 151.723 103.901 152.551C103.935 153.378 104.634 154.021 105.462 153.987L105.337 150.989ZM109.523 153.813C110.35 153.776 110.992 153.076 110.955 152.248C110.919 151.421 110.219 150.779 109.391 150.815L109.523 153.813ZM113.426 150.634C112.599 150.672 111.959 151.374 111.997 152.201C112.035 153.029 112.737 153.669 113.565 153.631L113.426 150.634ZM117.634 153.438C118.461 153.398 119.1 152.695 119.06 151.868C119.02 151.04 118.316 150.402 117.489 150.442L117.634 153.438ZM121.53 150.242C120.703 150.284 120.066 150.988 120.108 151.816C120.15 152.643 120.855 153.28 121.682 153.238L121.53 150.242ZM125.739 153.027C126.567 152.984 127.202 152.277 127.158 151.45C127.114 150.623 126.408 149.988 125.58 150.032L125.739 153.027ZM129.629 149.812C128.802 149.858 128.169 150.565 128.215 151.393C128.261 152.22 128.969 152.853 129.796 152.807L129.629 149.812ZM133.839 152.577C134.666 152.529 135.297 151.82 135.249 150.993C135.201 150.166 134.492 149.534 133.665 149.582L133.839 152.577ZM137.723 149.341C136.896 149.391 136.267 150.102 136.317 150.929C136.367 151.756 137.078 152.386 137.905 152.336L137.723 149.341ZM141.942 152.085C142.768 152.032 143.396 151.319 143.344 150.493C143.291 149.666 142.578 149.038 141.751 149.091L141.942 152.085ZM145.81 148.827C144.984 148.882 144.358 149.597 144.413 150.423C144.468 151.25 145.182 151.875 146.009 151.821L145.81 148.827ZM150.053 151.546C150.879 151.489 151.503 150.772 151.446 149.946C151.388 149.119 150.672 148.496 149.845 148.553L150.053 151.546ZM153.89 148.266C153.064 148.326 152.443 149.045 152.503 149.871C152.563 150.697 153.281 151.318 154.107 151.259L153.89 148.266ZM158.159 150.958C158.985 150.896 159.604 150.175 159.542 149.349C159.479 148.523 158.759 147.904 157.933 147.967L158.159 150.958ZM161.963 147.655C161.137 147.72 160.521 148.443 160.586 149.269C160.652 150.094 161.374 150.711 162.2 150.646L161.963 147.655ZM166.26 150.317C167.086 150.249 167.7 149.524 167.631 148.699C167.563 147.873 166.839 147.259 166.013 147.327L166.26 150.317ZM170.029 146.988C169.204 147.059 168.592 147.786 168.664 148.612C168.735 149.437 169.462 150.048 170.287 149.977L170.029 146.988ZM174.355 149.618C175.181 149.543 175.789 148.814 175.714 147.989C175.64 147.164 174.911 146.555 174.086 146.63L174.355 149.618ZM178.092 146.26C177.268 146.338 176.662 147.069 176.74 147.894C176.818 148.719 177.55 149.324 178.374 149.247L178.092 146.26ZM182.445 148.853C183.269 148.772 183.872 148.038 183.79 147.213C183.709 146.389 182.974 145.786 182.15 145.868L182.445 148.853ZM186.156 145.463C185.332 145.548 184.733 146.285 184.818 147.109C184.904 147.933 185.641 148.532 186.465 148.447L186.156 145.463ZM190.529 148.017C191.352 147.928 191.948 147.188 191.858 146.364C191.769 145.54 191.029 144.945 190.206 145.034L190.529 148.017ZM194.208 144.59C193.385 144.684 192.793 145.427 192.887 146.25C192.98 147.073 193.723 147.665 194.546 147.571L194.208 144.59ZM198.606 147.099C199.429 147.001 200.016 146.255 199.918 145.432C199.82 144.609 199.074 144.022 198.251 144.12L198.606 147.099ZM202.244 143.633C201.422 143.735 200.839 144.485 200.942 145.307C201.045 146.129 201.795 146.712 202.617 146.609L202.244 143.633ZM206.675 146.089C207.496 145.98 208.075 145.227 207.966 144.406C207.858 143.584 207.105 143.006 206.284 143.114L206.675 146.089ZM210.26 142.577C209.44 142.691 208.867 143.448 208.98 144.269C209.094 145.089 209.851 145.663 210.672 145.549L210.26 142.577ZM214.733 144.971C215.552 144.851 216.12 144.09 216 143.27C215.88 142.45 215.119 141.883 214.299 142.003L214.733 144.971ZM218.272 141.406C217.453 141.532 216.892 142.299 217.018 143.117C217.144 143.936 217.91 144.497 218.729 144.371L218.272 141.406ZM222.772 143.729C223.59 143.595 224.144 142.824 224.011 142.006C223.877 141.189 223.106 140.634 222.288 140.768L222.772 143.729ZM226.266 140.098C225.45 140.24 224.903 141.016 225.045 141.832C225.187 142.649 225.963 143.195 226.779 143.054L226.266 140.098ZM230.782 142.338C231.597 142.187 232.135 141.405 231.985 140.59C231.834 139.775 231.052 139.237 230.237 139.387L230.782 142.338ZM234.222 138.627C233.409 138.788 232.88 139.576 233.04 140.389C233.201 141.202 233.99 141.731 234.802 141.571L234.222 138.627ZM238.767 140.761C239.578 140.59 240.096 139.794 239.925 138.983C239.754 138.173 238.958 137.655 238.147 137.826L238.767 140.761ZM242.106 136.958C241.298 137.142 240.792 137.946 240.976 138.753C241.16 139.561 241.964 140.067 242.772 139.883L242.106 136.958ZM246.756 138.939C247.56 138.741 248.051 137.928 247.853 137.123C247.654 136.319 246.842 135.828 246.037 136.026L246.756 138.939ZM249.915 135.028C249.115 135.243 248.641 136.066 248.856 136.866C249.071 137.666 249.894 138.14 250.694 137.925L249.915 135.028ZM254.624 136.816C255.418 136.581 255.872 135.747 255.636 134.952C255.401 134.158 254.567 133.705 253.772 133.94L254.624 136.816ZM257.623 132.738C256.836 132.997 256.408 133.845 256.668 134.632C256.927 135.419 257.775 135.846 258.562 135.587L257.623 132.738ZM262.453 134.223C263.229 133.934 263.623 133.07 263.334 132.294C263.044 131.517 262.18 131.123 261.404 131.413L262.453 134.223ZM265.101 129.932C264.341 130.26 263.99 131.143 264.318 131.904C264.646 132.664 265.528 133.015 266.289 132.687L265.101 129.932ZM2 156C2.67432 156 3.34908 156 4.02424 155.999L4.02215 152.999C3.34769 153 2.67363 153 2 153V156ZM8.0799 155.994C9.4333 155.991 10.7881 155.987 12.1443 155.982L12.1338 152.982C10.7791 152.987 9.42562 152.991 8.07363 152.994L8.0799 155.994ZM16.1972 155.965C17.5493 155.959 18.9025 155.951 20.2566 155.942L20.2376 152.942C18.8849 152.951 17.5332 152.959 16.1825 152.965L16.1972 155.965ZM24.3155 155.914C25.6671 155.903 27.0195 155.892 28.3724 155.879L28.3446 152.879C26.9932 152.892 25.6423 152.903 24.2922 152.914L24.3155 155.914ZM32.4326 155.839C33.7845 155.824 35.1369 155.809 36.4895 155.792L36.4529 152.792C35.1018 152.809 33.7509 152.824 32.4004 152.839L32.4326 155.839ZM40.5475 155.74C41.9003 155.721 43.2532 155.701 44.606 155.681L44.5602 152.681C43.209 152.702 41.8577 152.721 40.5063 152.74L40.5475 155.74ZM48.6641 155.616C50.0166 155.593 51.3687 155.569 52.7204 155.545L52.6653 152.545C51.3152 152.57 49.9646 152.594 48.6137 152.616L48.6641 155.616ZM56.7804 155.467C58.1334 155.44 59.4857 155.412 60.8372 155.383L60.7725 152.383C59.4226 152.412 58.0719 152.44 56.7206 152.467L56.7804 155.467ZM64.8944 155.292C66.2487 155.26 67.602 155.228 68.9541 155.194L68.8794 152.195C67.529 152.229 66.1773 152.261 64.8247 152.292L64.8944 155.292ZM73.0067 155.089C74.3622 155.053 75.7164 155.016 77.069 154.978L76.9838 151.979C75.633 152.017 74.2806 152.055 72.9268 152.091L73.0067 155.089ZM81.1246 154.859C82.4782 154.818 83.83 154.776 85.1799 154.733L85.084 151.735C83.7359 151.778 82.3859 151.82 81.0341 151.86L81.1246 154.859ZM89.2409 154.599C90.5926 154.554 91.942 154.507 93.2892 154.458L93.182 151.46C91.8367 151.508 90.4891 151.555 89.1394 151.601L89.2409 154.599ZM97.3539 154.309C98.7077 154.258 100.059 154.206 101.407 154.152L101.288 151.154C99.9418 151.208 98.5926 151.26 97.2408 151.311L97.3539 154.309ZM105.462 153.987C106.819 153.93 108.172 153.872 109.523 153.813L109.391 150.815C108.043 150.875 106.691 150.933 105.337 150.989L105.462 153.987ZM113.565 153.631C114.924 153.568 116.281 153.504 117.634 153.438L117.489 150.442C116.138 150.507 114.784 150.571 113.426 150.634L113.565 153.631ZM121.682 153.238C123.038 153.169 124.391 153.099 125.739 153.027L125.58 150.032C124.234 150.103 122.884 150.173 121.53 150.242L121.682 153.238ZM129.796 152.807C131.148 152.732 132.496 152.655 133.839 152.577L133.665 149.582C132.324 149.66 130.979 149.737 129.629 149.812L129.796 152.807ZM137.905 152.336C139.256 152.254 140.601 152.17 141.942 152.085L141.751 149.091C140.414 149.176 139.071 149.259 137.723 149.341L137.905 152.336ZM146.009 151.821C147.363 151.731 148.711 151.639 150.053 151.546L149.845 148.553C148.506 148.646 147.161 148.737 145.81 148.827L146.009 151.821ZM154.107 151.259C155.464 151.16 156.815 151.06 158.159 150.958L157.933 147.967C156.592 148.068 155.244 148.168 153.89 148.266L154.107 151.259ZM162.2 150.646C163.56 150.538 164.914 150.429 166.26 150.317L166.013 147.327C164.67 147.438 163.32 147.548 161.963 147.655L162.2 150.646ZM170.287 149.977C171.651 149.859 173.007 149.739 174.355 149.618L174.086 146.63C172.742 146.751 171.389 146.871 170.029 146.988L170.287 149.977ZM178.374 149.247C179.74 149.118 181.097 148.986 182.445 148.853L182.15 145.868C180.807 146.001 179.454 146.131 178.092 146.26L178.374 149.247ZM186.465 148.447C187.83 148.306 189.184 148.162 190.529 148.017L190.206 145.034C188.866 145.179 187.516 145.322 186.156 145.463L186.465 148.447ZM194.546 147.571C195.911 147.416 197.264 147.259 198.606 147.099L198.251 144.12C196.915 144.279 195.567 144.436 194.208 144.59L194.546 147.571ZM202.617 146.609C203.983 146.438 205.335 146.265 206.675 146.089L206.284 143.114C204.951 143.29 203.604 143.462 202.244 143.633L202.617 146.609ZM210.672 145.549C212.041 145.359 213.394 145.167 214.733 144.971L214.299 142.003C212.968 142.197 211.622 142.389 210.26 142.577L210.672 145.549ZM218.729 144.371C220.094 144.16 221.442 143.946 222.772 143.729L222.288 140.768C220.967 140.984 219.628 141.197 218.272 141.406L218.729 144.371ZM226.779 143.054C228.134 142.819 229.468 142.58 230.782 142.338L230.237 139.387C228.935 139.628 227.611 139.865 226.266 140.098L226.779 143.054ZM234.802 141.571C236.148 141.305 237.47 141.035 238.767 140.761L238.147 137.826C236.864 138.097 235.555 138.364 234.222 138.627L234.802 141.571ZM242.772 139.883C244.13 139.574 245.459 139.259 246.756 138.939L246.037 136.026C244.758 136.342 243.448 136.652 242.106 136.958L242.772 139.883ZM250.694 137.925C252.043 137.562 253.353 137.193 254.624 136.816L253.772 133.94C252.527 134.308 251.241 134.671 249.915 135.028L250.694 137.925ZM258.562 135.587C259.912 135.141 261.209 134.687 262.453 134.223L261.404 131.413C260.2 131.862 258.939 132.303 257.623 132.738L258.562 135.587ZM266.289 132.687C266.922 132.414 267.538 132.138 268.135 131.859L266.865 129.141C266.296 129.407 265.708 129.671 265.101 129.932L266.289 132.687Z" fill="#F9D047"/>
<path d="M2 156.5C1.17157 156.5 0.5 155.828 0.5 155C0.5 154.172 1.17157 153.5 2 153.5V156.5ZM268.91 178.488C269.193 179.267 268.79 180.127 268.012 180.41L255.321 185.015C254.542 185.297 253.682 184.895 253.399 184.116C253.117 183.337 253.519 182.477 254.298 182.194L265.578 178.102L261.485 166.821C261.203 166.042 261.605 165.182 262.384 164.899C263.163 164.617 264.023 165.019 264.306 165.798L268.91 178.488ZM4.02424 153.501C4.85266 153.501 5.52377 154.173 5.5232 155.002C5.52262 155.83 4.85058 156.501 4.02215 156.501L4.02424 153.501ZM8.07363 156.506C7.2452 156.505 6.57503 155.832 6.57677 155.003C6.5785 154.175 7.25148 153.505 8.0799 153.506L8.07363 156.506ZM12.1443 153.518C12.9727 153.521 13.6419 154.195 13.639 155.023C13.6361 155.851 12.9622 156.521 12.1338 156.518L12.1443 153.518ZM16.1825 156.535C15.3541 156.531 14.6858 155.856 14.6899 155.027C14.6939 154.199 15.3688 153.531 16.1972 153.535L16.1825 156.535ZM20.2566 153.558C21.085 153.563 21.7523 154.239 21.7471 155.067C21.7418 155.896 21.066 156.563 20.2376 156.558L20.2566 153.558ZM24.2922 156.586C23.4638 156.58 22.7974 155.903 22.8039 155.075C22.8103 154.246 23.4871 153.58 24.3155 153.586L24.2922 156.586ZM28.3724 153.621C29.2008 153.629 29.8661 154.306 29.8584 155.135C29.8508 155.963 29.173 156.628 28.3446 156.621L28.3724 153.621ZM32.4004 156.661C31.572 156.652 30.9077 155.974 30.9166 155.145C30.9254 154.317 31.6042 153.652 32.4326 153.661L32.4004 156.661ZM36.4895 153.708C37.3179 153.718 37.9812 154.398 37.9711 155.226C37.961 156.054 37.2813 156.718 36.4529 156.708L36.4895 153.708ZM40.5063 156.76C39.678 156.749 39.0157 156.068 39.027 155.24C39.0384 154.411 39.7191 153.749 40.5475 153.76L40.5063 156.76ZM44.606 153.819C45.4343 153.832 46.0956 154.514 46.0829 155.342C46.0703 156.17 45.3886 156.831 44.5602 156.819L44.606 153.819ZM48.6137 156.884C47.7854 156.87 47.1252 156.187 47.1391 155.359C47.153 154.53 47.8358 153.87 48.6641 153.884L48.6137 156.884ZM52.7204 153.955C53.5487 153.971 54.2078 154.654 54.1926 155.483C54.1774 156.311 53.4936 156.97 52.6653 156.955L52.7204 153.955ZM56.7206 157.033C55.8923 157.016 55.2343 156.331 55.2508 155.503C55.2673 154.675 55.9522 154.017 56.7804 154.033L56.7206 157.033ZM60.8372 154.117C61.6655 154.135 62.3224 154.821 62.3045 155.649C62.2866 156.478 61.6007 157.135 60.7725 157.117L60.8372 154.117ZM64.8247 157.208C63.9965 157.188 63.3407 156.501 63.3599 155.673C63.3792 154.845 64.0662 154.189 64.8944 154.208L64.8247 157.208ZM68.9541 154.306C69.7823 154.327 70.4369 155.015 70.4163 155.843C70.3956 156.671 69.7075 157.326 68.8794 157.305L68.9541 154.306ZM72.9268 157.409C72.0987 157.387 71.4452 156.698 71.4673 155.87C71.4893 155.042 72.1785 154.388 73.0067 154.411L72.9268 157.409ZM77.069 154.522C77.897 154.546 78.5493 155.236 78.5258 156.064C78.5023 156.892 77.8119 157.545 76.9838 157.521L77.069 154.522ZM81.0341 157.64C80.2061 157.615 79.5551 156.923 79.5801 156.095C79.605 155.267 80.2966 154.616 81.1246 154.641L81.0341 157.64ZM85.1799 154.767C86.0079 154.793 86.6577 155.486 86.6312 156.314C86.6047 157.142 85.912 157.792 85.084 157.765L85.1799 154.767ZM89.1394 157.899C88.3115 157.871 87.663 157.177 87.691 156.349C87.7191 155.521 88.413 154.873 89.2409 154.901L89.1394 157.899ZM93.2892 155.042C94.1171 155.071 94.7643 155.766 94.7347 156.594C94.705 157.422 94.0099 158.069 93.182 158.04L93.2892 155.042ZM97.2408 158.189C96.413 158.158 95.7672 157.461 95.7984 156.633C95.8297 155.806 96.5261 155.16 97.3539 155.191L97.2408 158.189ZM101.407 155.348C102.235 155.381 102.88 156.079 102.847 156.906C102.814 157.734 102.116 158.379 101.288 158.346L101.407 155.348ZM105.337 158.511C104.509 158.476 103.866 157.777 103.901 156.949C103.935 156.122 104.634 155.479 105.462 155.513L105.337 158.511ZM109.523 155.687C110.35 155.724 110.992 156.424 110.955 157.252C110.919 158.079 110.219 158.721 109.391 158.685L109.523 155.687ZM113.426 158.866C112.599 158.828 111.959 158.126 111.997 157.299C112.035 156.471 112.737 155.831 113.565 155.869L113.426 158.866ZM117.634 156.062C118.461 156.102 119.1 156.805 119.06 157.632C119.02 158.46 118.316 159.098 117.489 159.058L117.634 156.062ZM121.53 159.258C120.703 159.216 120.066 158.512 120.108 157.684C120.15 156.857 120.855 156.22 121.682 156.262L121.53 159.258ZM125.739 156.473C126.567 156.516 127.202 157.223 127.158 158.05C127.114 158.877 126.408 159.512 125.58 159.468L125.739 156.473ZM129.629 159.688C128.802 159.642 128.169 158.935 128.215 158.107C128.261 157.28 128.969 156.647 129.796 156.693L129.629 159.688ZM133.839 156.923C134.666 156.971 135.297 157.68 135.249 158.507C135.201 159.334 134.492 159.966 133.665 159.918L133.839 156.923ZM137.723 160.159C136.896 160.109 136.267 159.398 136.317 158.571C136.367 157.744 137.078 157.114 137.905 157.164L137.723 160.159ZM141.942 157.415C142.768 157.468 143.396 158.181 143.344 159.007C143.291 159.834 142.578 160.462 141.751 160.409L141.942 157.415ZM145.81 160.673C144.984 160.618 144.358 159.903 144.413 159.077C144.468 158.25 145.182 157.625 146.009 157.679L145.81 160.673ZM150.053 157.954C150.879 158.011 151.503 158.728 151.446 159.554C151.388 160.381 150.672 161.004 149.845 160.947L150.053 157.954ZM153.89 161.234C153.064 161.174 152.443 160.455 152.503 159.629C152.563 158.803 153.281 158.182 154.107 158.241L153.89 161.234ZM158.159 158.542C158.985 158.604 159.604 159.325 159.542 160.151C159.479 160.977 158.759 161.596 157.933 161.533L158.159 158.542ZM161.963 161.845C161.137 161.78 160.521 161.057 160.586 160.231C160.652 159.406 161.374 158.789 162.2 158.854L161.963 161.845ZM166.26 159.183C167.086 159.251 167.7 159.976 167.631 160.801C167.563 161.627 166.839 162.241 166.013 162.173L166.26 159.183ZM170.029 162.512C169.204 162.441 168.592 161.714 168.664 160.888C168.735 160.063 169.462 159.452 170.287 159.523L170.029 162.512ZM174.355 159.882C175.181 159.957 175.789 160.686 175.714 161.511C175.64 162.336 174.911 162.945 174.086 162.87L174.355 159.882ZM178.092 163.24C177.268 163.162 176.662 162.431 176.74 161.606C176.818 160.781 177.55 160.176 178.374 160.253L178.092 163.24ZM182.445 160.647C183.269 160.728 183.872 161.462 183.79 162.287C183.709 163.111 182.974 163.714 182.15 163.632L182.445 160.647ZM186.156 164.037C185.332 163.952 184.733 163.215 184.818 162.391C184.904 161.567 185.641 160.968 186.465 161.053L186.156 164.037ZM190.529 161.483C191.352 161.572 191.948 162.312 191.858 163.136C191.769 163.96 191.029 164.555 190.206 164.466L190.529 161.483ZM194.208 164.91C193.385 164.816 192.793 164.073 192.887 163.25C192.98 162.427 193.723 161.835 194.546 161.929L194.208 164.91ZM198.606 162.401C199.429 162.499 200.016 163.245 199.918 164.068C199.82 164.891 199.074 165.478 198.251 165.38L198.606 162.401ZM202.244 165.867C201.422 165.765 200.839 165.015 200.942 164.193C201.045 163.371 201.795 162.788 202.617 162.891L202.244 165.867ZM206.675 163.411C207.496 163.52 208.075 164.273 207.966 165.094C207.858 165.916 207.105 166.494 206.284 166.386L206.675 163.411ZM210.26 166.923C209.44 166.809 208.867 166.052 208.98 165.231C209.094 164.411 209.851 163.837 210.672 163.951L210.26 166.923ZM214.733 164.529C215.552 164.649 216.12 165.41 216 166.23C215.88 167.05 215.119 167.617 214.299 167.497L214.733 164.529ZM218.272 168.094C217.453 167.968 216.892 167.201 217.018 166.383C217.144 165.564 217.91 165.003 218.729 165.129L218.272 168.094ZM222.772 165.771C223.59 165.905 224.144 166.676 224.011 167.494C223.877 168.311 223.106 168.866 222.288 168.732L222.772 165.771ZM226.266 169.402C225.45 169.26 224.903 168.484 225.045 167.668C225.187 166.851 225.963 166.305 226.779 166.446L226.266 169.402ZM230.782 167.162C231.597 167.313 232.135 168.095 231.985 168.91C231.834 169.725 231.052 170.263 230.237 170.113L230.782 167.162ZM234.222 170.873C233.409 170.712 232.88 169.924 233.04 169.111C233.201 168.298 233.99 167.769 234.802 167.929L234.222 170.873ZM238.767 168.739C239.578 168.91 240.096 169.706 239.925 170.517C239.754 171.327 238.958 171.845 238.147 171.674L238.767 168.739ZM242.106 172.542C241.298 172.358 240.792 171.554 240.976 170.747C241.16 169.939 241.964 169.433 242.772 169.617L242.106 172.542ZM246.756 170.561C247.56 170.759 248.051 171.572 247.853 172.377C247.654 173.181 246.842 173.672 246.037 173.474L246.756 170.561ZM249.915 174.472C249.115 174.257 248.641 173.434 248.856 172.634C249.071 171.834 249.894 171.36 250.694 171.575L249.915 174.472ZM254.624 172.684C255.418 172.919 255.872 173.753 255.636 174.548C255.401 175.342 254.567 175.795 253.772 175.56L254.624 172.684ZM257.623 176.762C256.836 176.503 256.408 175.655 256.668 174.868C256.927 174.081 257.775 173.654 258.562 173.913L257.623 176.762ZM262.453 175.277C263.229 175.566 263.623 176.43 263.334 177.206C263.044 177.983 262.18 178.377 261.404 178.087L262.453 175.277ZM265.101 179.568C264.341 179.24 263.99 178.357 264.318 177.596C264.646 176.836 265.528 176.485 266.289 176.813L265.101 179.568ZM2 153.5C2.67432 153.5 3.34908 153.5 4.02424 153.501L4.02215 156.501C3.34769 156.5 2.67363 156.5 2 156.5V153.5ZM8.0799 153.506C9.4333 153.509 10.7881 153.513 12.1443 153.518L12.1338 156.518C10.7791 156.513 9.42562 156.509 8.07363 156.506L8.0799 153.506ZM16.1972 153.535C17.5493 153.541 18.9025 153.549 20.2566 153.558L20.2376 156.558C18.8849 156.549 17.5332 156.541 16.1825 156.535L16.1972 153.535ZM24.3155 153.586C25.6671 153.597 27.0195 153.608 28.3724 153.621L28.3446 156.621C26.9932 156.608 25.6423 156.597 24.2922 156.586L24.3155 153.586ZM32.4326 153.661C33.7845 153.676 35.1369 153.691 36.4895 153.708L36.4529 156.708C35.1018 156.691 33.7509 156.676 32.4004 156.661L32.4326 153.661ZM40.5475 153.76C41.9003 153.779 43.2532 153.799 44.606 153.819L44.5602 156.819C43.209 156.798 41.8577 156.779 40.5063 156.76L40.5475 153.76ZM48.6641 153.884C50.0166 153.907 51.3687 153.931 52.7204 153.955L52.6653 156.955C51.3152 156.93 49.9646 156.906 48.6137 156.884L48.6641 153.884ZM56.7804 154.033C58.1334 154.06 59.4857 154.088 60.8372 154.117L60.7725 157.117C59.4226 157.088 58.0719 157.06 56.7206 157.033L56.7804 154.033ZM64.8944 154.208C66.2487 154.24 67.602 154.272 68.9541 154.306L68.8794 157.305C67.529 157.271 66.1773 157.239 64.8247 157.208L64.8944 154.208ZM73.0067 154.411C74.3622 154.447 75.7164 154.484 77.069 154.522L76.9838 157.521C75.633 157.483 74.2806 157.445 72.9268 157.409L73.0067 154.411ZM81.1246 154.641C82.4782 154.682 83.83 154.724 85.1799 154.767L85.084 157.765C83.7359 157.722 82.3859 157.68 81.0341 157.64L81.1246 154.641ZM89.2409 154.901C90.5926 154.946 91.942 154.993 93.2892 155.042L93.182 158.04C91.8367 157.992 90.4891 157.945 89.1394 157.899L89.2409 154.901ZM97.3539 155.191C98.7077 155.242 100.059 155.294 101.407 155.348L101.288 158.346C99.9418 158.292 98.5926 158.24 97.2408 158.189L97.3539 155.191ZM105.462 155.513C106.819 155.57 108.172 155.628 109.523 155.687L109.391 158.685C108.043 158.625 106.691 158.567 105.337 158.511L105.462 155.513ZM113.565 155.869C114.924 155.932 116.281 155.996 117.634 156.062L117.489 159.058C116.138 158.993 114.784 158.929 113.426 158.866L113.565 155.869ZM121.682 156.262C123.038 156.331 124.391 156.401 125.739 156.473L125.58 159.468C124.234 159.397 122.884 159.327 121.53 159.258L121.682 156.262ZM129.796 156.693C131.148 156.768 132.496 156.845 133.839 156.923L133.665 159.918C132.324 159.84 130.979 159.763 129.629 159.688L129.796 156.693ZM137.905 157.164C139.256 157.246 140.601 157.33 141.942 157.415L141.751 160.409C140.414 160.324 139.071 160.241 137.723 160.159L137.905 157.164ZM146.009 157.679C147.363 157.769 148.711 157.861 150.053 157.954L149.845 160.947C148.506 160.854 147.161 160.763 145.81 160.673L146.009 157.679ZM154.107 158.241C155.464 158.34 156.815 158.44 158.159 158.542L157.933 161.533C156.592 161.432 155.244 161.332 153.89 161.234L154.107 158.241ZM162.2 158.854C163.56 158.962 164.914 159.071 166.26 159.183L166.013 162.173C164.67 162.062 163.32 161.952 161.963 161.845L162.2 158.854ZM170.287 159.523C171.651 159.641 173.007 159.761 174.355 159.882L174.086 162.87C172.742 162.749 171.389 162.629 170.029 162.512L170.287 159.523ZM178.374 160.253C179.74 160.382 181.097 160.514 182.445 160.647L182.15 163.632C180.807 163.499 179.454 163.369 178.092 163.24L178.374 160.253ZM186.465 161.053C187.83 161.194 189.184 161.338 190.529 161.483L190.206 164.466C188.866 164.321 187.516 164.178 186.156 164.037L186.465 161.053ZM194.546 161.929C195.911 162.084 197.264 162.241 198.606 162.401L198.251 165.38C196.915 165.221 195.567 165.064 194.208 164.91L194.546 161.929ZM202.617 162.891C203.983 163.062 205.335 163.235 206.675 163.411L206.284 166.386C204.951 166.21 203.604 166.038 202.244 165.867L202.617 162.891ZM210.672 163.951C212.041 164.141 213.394 164.333 214.733 164.529L214.299 167.497C212.968 167.303 211.622 167.111 210.26 166.923L210.672 163.951ZM218.729 165.129C220.094 165.34 221.442 165.554 222.772 165.771L222.288 168.732C220.967 168.516 219.628 168.303 218.272 168.094L218.729 165.129ZM226.779 166.446C228.134 166.681 229.468 166.92 230.782 167.162L230.237 170.113C228.935 169.872 227.611 169.635 226.266 169.402L226.779 166.446ZM234.802 167.929C236.148 168.195 237.47 168.465 238.767 168.739L238.147 171.674C236.864 171.403 235.555 171.136 234.222 170.873L234.802 167.929ZM242.772 169.617C244.13 169.926 245.459 170.241 246.756 170.561L246.037 173.474C244.758 173.158 243.448 172.848 242.106 172.542L242.772 169.617ZM250.694 171.575C252.043 171.938 253.353 172.307 254.624 172.684L253.772 175.56C252.527 175.192 251.241 174.829 249.915 174.472L250.694 171.575ZM258.562 173.913C259.912 174.359 261.209 174.813 262.453 175.277L261.404 178.087C260.2 177.638 258.939 177.197 257.623 176.762L258.562 173.913ZM266.289 176.813C266.922 177.086 267.538 177.362 268.135 177.641L266.865 180.359C266.296 180.093 265.708 179.829 265.101 179.568L266.289 176.813Z" fill="#F9D047"/>
</svg>
