<svg xmlns="http://www.w3.org/2000/svg" width="150" height="62" viewBox="0 0 150 62">
  <g id="ccpa" transform="translate(1504 -4699)">
    <g id="Rectangle_" data-name="Rectangle " transform="translate(-1504 4699)" fill="#fff" stroke="#e7e7e7" stroke-miterlimit="10" stroke-width="1">
      <rect width="150" height="62" rx="6" stroke="none"/>
      <rect x="0.5" y="0.5" width="149" height="61" rx="5.5" fill="none"/>
    </g>
    <g id="Group_1551" data-name="Group 1551" transform="translate(-3564.699 4169.078)">
      <g id="Path_3170" data-name="Path 3170" transform="translate(2080.699 542.922)">
        <path id="Path_3172" data-name="Path 3172" d="M2084.7,546.922v10.5l5.89,8.964,7.171,4.354,3.842,5.126h8.707v-6.147L2095.455,556.4v-9.477Z" transform="translate(-2081.444 -543.667)" fill="none"/>
        <path id="Path_3173" data-name="Path 3173" d="M2083.954,546.177v10.5l5.891,8.964,7.171,4.354,3.842,5.122h8.708v-6.147l-7.632-6.842h4.876l4.928,4.418,1.082.97v10.855h-13.591l-.976-1.3-3.464-4.62-6.634-4.028-.627-.381-.4-.613-5.891-8.965-.535-.814V542.922h17.266V554.2l.015,4.384-3.27-2.931v-9.476h-10.756" transform="translate(-2080.699 -542.922)" fill="#8765ff"/>
      </g>
      <path id="Path" d="M12.359,7.157h-.742v-2.3A4.785,4.785,0,0,0,6.921,0a4.785,4.785,0,0,0-4.7,4.857v2.3H1.483A1.509,1.509,0,0,0,0,8.691v6.135a1.509,1.509,0,0,0,1.483,1.534H12.359a1.509,1.509,0,0,0,1.483-1.534V8.691A1.509,1.509,0,0,0,12.359,7.157Z" transform="translate(2100.925 542.986)"/>
      <path id="Path-2" data-name="Path" d="M4.449,4.6H0V2.3A2.266,2.266,0,0,1,2.225,0,2.266,2.266,0,0,1,4.449,2.3Z" transform="translate(2105.622 545.542)" fill="#fff"/>
    </g>
    <path id="Path_3177" data-name="Path 3177" d="M8.38.28A7.405,7.405,0,0,0,14.4-2.36L11.88-4.64A4.138,4.138,0,0,1,8.58-3a3.754,3.754,0,0,1-3.9-4,3.754,3.754,0,0,1,3.9-4,4.138,4.138,0,0,1,3.3,1.64l2.52-2.28a7.405,7.405,0,0,0-6.02-2.64C3.94-14.28.68-11.26.68-7S3.94.28,8.38.28Zm14.46,0a7.405,7.405,0,0,0,6.02-2.64L26.34-4.64A4.138,4.138,0,0,1,23.04-3a3.754,3.754,0,0,1-3.9-4,3.754,3.754,0,0,1,3.9-4,4.138,4.138,0,0,1,3.3,1.64l2.52-2.28a7.405,7.405,0,0,0-6.02-2.64c-4.44,0-7.7,3.02-7.7,7.28S18.4.28,22.84.28ZM37.02-14h-6.4V0h3.96V-3.66h2.44c3.82,0,6.22-1.98,6.22-5.16C43.24-12.02,40.84-14,37.02-14Zm-.24,7.22h-2.2v-4.1h2.2c1.64,0,2.46.76,2.46,2.06C39.24-7.54,38.42-6.78,36.78-6.78ZM54.94,0h4.12l-6.2-14h-3.9L42.78,0h4.04l1.1-2.72h5.92ZM49.08-5.64l1.8-4.48,1.8,4.48Z" transform="translate(-1433.5 4730)"/>
    <path id="Path_3176" data-name="Path 3176" d="M4.18.08a3.473,3.473,0,0,0,2.67-1.1L6.2-1.65a2.6,2.6,0,0,1-1.97.84A2.644,2.644,0,0,1,1.48-3.5,2.644,2.644,0,0,1,4.23-6.19a2.594,2.594,0,0,1,1.97.83l.65-.63A3.459,3.459,0,0,0,4.19-7.08,3.541,3.541,0,0,0,.48-3.5,3.538,3.538,0,0,0,4.18.08Zm7.11,0A3.547,3.547,0,0,0,15-3.5a3.547,3.547,0,0,0-3.71-3.58A3.558,3.558,0,0,0,7.56-3.5,3.558,3.558,0,0,0,11.29.08Zm0-.89A2.633,2.633,0,0,1,8.56-3.5a2.633,2.633,0,0,1,2.73-2.69A2.628,2.628,0,0,1,14-3.5,2.628,2.628,0,0,1,11.29-.81ZM23.98,0l-.01-7h-.82L20.27-2.08,17.35-7h-.82V0h.96V-5.07L20.02-.85h.46L23.01-5.1,23.02,0Zm4.83-7H26.08V0h1V-2.12h1.73c1.82,0,2.92-.92,2.92-2.44S30.63-7,28.81-7Zm-.03,4.01h-1.7V-6.13h1.7c1.28,0,1.95.57,1.95,1.57S30.06-2.99,28.78-2.99ZM33.2,0h4.79V-.87H34.2V-7h-1Zm5.94,0h1V-7h-1Zm8.33,0h1.05L45.34-7h-.99L41.18,0h1.03l.77-1.75H46.7ZM43.33-2.55l1.51-3.43,1.51,3.43ZM54.58-7v5.22L50.38-7h-.82V0h1V-5.22L54.76,0h.82V-7Zm4.49,7h.99V-6.13h2.4V-7H56.67v.87h2.4Z" transform="translate(-1433.5 4745)"/>
  </g>
</svg>
