<svg xmlns="http://www.w3.org/2000/svg" width="164" height="62" viewBox="0 0 164 62"><defs><style>.a,.d{fill:#fff;}.a{stroke:#e7e7e7;stroke-miterlimit:10;}.b{fill:#ea6c00;}.c{fill:#2b3945;}.e{stroke:none;}.f{fill:none;}</style></defs><g transform="translate(-0.001 -0.122)"><g class="a" transform="translate(0.001 0.122)"><rect class="e" width="164" height="62" rx="6"/><rect class="f" x="0.5" y="0.5" width="163" height="61" rx="5.5"/></g><g transform="translate(9.29 9.288)"><path class="b" d="M2.977,0l.7,2.274H5.953L4.114,3.679l.7,2.274L2.977,4.547,1.137,5.953l.7-2.274L0,2.274H2.274Z" transform="translate(18.71)"/><path class="b" d="M2.977,0l.7,2.275H5.953L4.114,3.68l.7,2.273-1.84-1.4-1.839,1.4.7-2.273L0,2.275H2.274Z" transform="translate(18.71 37.419)"/><path class="b" d="M2.977,0l.7,2.274H5.953L4.113,3.68l.7,2.273L2.977,4.547,1.137,5.953l.7-2.273L0,2.274H2.274Z" transform="translate(28.065 3.402)"/><path class="b" d="M2.977,0l.7,2.274H5.953L4.113,3.679l.7,2.274L2.977,4.548,1.137,5.953l.7-2.274L0,2.274H2.274Z" transform="translate(35.719 9.851)"/><path class="b" d="M2.977,0l.7,2.275H5.953L4.113,3.68l.7,2.273-1.84-1.4-1.84,1.4.7-2.273L0,2.275H2.274Z" transform="translate(35.719 28.065)"/><path class="b" d="M2.977,0l.7,2.274H5.953L4.114,3.679l.7,2.274L2.977,4.548,1.137,5.953l.7-2.274L0,2.274H2.274Z" transform="translate(1.701 9.851)"/><path class="b" d="M2.977,0l.7,2.274H5.953L4.113,3.679l.7,2.274-1.839-1.4-1.84,1.4.7-2.274L0,2.274H2.274Z" transform="translate(37.419 18.71)"/><path class="b" d="M2.977,0l.7,2.274H5.953L4.113,3.679l.7,2.274-1.839-1.4-1.84,1.4.7-2.274L0,2.274H2.274Z" transform="translate(0 18.71)"/><path class="b" d="M2.977,0l.7,2.275H5.953L4.114,3.68l.7,2.273-1.839-1.4-1.84,1.4.7-2.273L0,2.275H2.274Z" transform="translate(1.701 28.065)"/><path class="b" d="M2.977,0l.7,2.274H5.953L4.113,3.68l.7,2.274L2.977,4.548,1.137,5.953l.7-2.274L0,2.274H2.274Z" transform="translate(29.765 35.719)"/><path class="b" d="M2.977,0l.7,2.274H5.953L4.113,3.68l.7,2.273L2.977,4.547,1.137,5.953l.7-2.273L0,2.274H2.274Z" transform="translate(9.355 3.402)"/><path class="b" d="M2.976,0l.7,2.275H5.953l-1.84,1.4.7,2.274-1.84-1.4-1.839,1.4.7-2.274L0,2.275H2.274Z" transform="translate(7.654 35.719)"/></g><path class="c" d="M11.064,6.407H10.4V4.348A4.283,4.283,0,0,0,6.2,0a4.283,4.283,0,0,0-4.2,4.348V6.407H1.328A1.351,1.351,0,0,0,0,7.78v5.492a1.351,1.351,0,0,0,1.328,1.373h9.737a1.351,1.351,0,0,0,1.328-1.373V7.78A1.351,1.351,0,0,0,11.064,6.407Z" transform="translate(24.78 23.229)"/><path class="d" d="M3.983,4.119H0V2.059A2.029,2.029,0,0,1,1.992,0,2.029,2.029,0,0,1,3.983,2.059Z" transform="translate(28.984 25.517)"/><path class="c" d="M7.467,14.238A7.771,7.771,0,0,1,2.19,12.319,6.826,6.826,0,0,1,0,7.118a6.824,6.824,0,0,1,2.19-5.2A7.772,7.772,0,0,1,7.467,0a6.551,6.551,0,0,1,5.9,3.2L10.383,4.767a3.447,3.447,0,0,0-2.916-1.63A3.773,3.773,0,0,0,4.7,4.284,4.072,4.072,0,0,0,3.619,7.118,4.074,4.074,0,0,0,4.7,9.954,3.772,3.772,0,0,0,7.467,11.1a4.275,4.275,0,0,0,2.607-.825V9.12H6.908V6.17h6.661v5.385A7.96,7.96,0,0,1,7.467,14.238Zm40.086-.247h0L44,13.99V.227H50.9a4.443,4.443,0,0,1,4.8,4.581,4.2,4.2,0,0,1-2.751,4.127l2.812,5.053-4.074,0L49.373,9.327H47.553v4.665Zm0-10.773V6.314h2.813a1.584,1.584,0,0,0,1.716-1.547,1.584,1.584,0,0,0-1.716-1.547ZM34.253,13.99H30.7V.227H37.6a4.442,4.442,0,0,1,4.8,4.581c0,2.7-1.928,4.518-4.8,4.518h-3.35V13.99Zm0-10.771V6.314h2.875a1.525,1.525,0,0,0,1.655-1.527,1.543,1.543,0,0,0-1.655-1.568ZM21.471,13.99H15.657V.227H21.45a7.879,7.879,0,0,1,5.362,1.834,6.535,6.535,0,0,1,2.1,5.038,6.569,6.569,0,0,1-2.1,5.047A7.821,7.821,0,0,1,21.471,13.99ZM19.215,3.322V10.9H21.45a3.761,3.761,0,0,0,2.821-1.132A3.849,3.849,0,0,0,25.277,7.1a3.518,3.518,0,0,0-3.806-3.777Z" transform="translate(66.603 17.033)"/><path class="c" d="M5.58-4.87a2.531,2.531,0,0,0-.22-.57A1.577,1.577,0,0,0,5-5.89a1.6,1.6,0,0,0-.515-.3A2.04,2.04,0,0,0,3.8-6.29a2,2,0,0,0-.985.23,1.931,1.931,0,0,0-.675.615,2.774,2.774,0,0,0-.385.875,4.03,4.03,0,0,0-.125,1,4.03,4.03,0,0,0,.125,1,2.774,2.774,0,0,0,.385.875,1.931,1.931,0,0,0,.675.615A2,2,0,0,0,3.8-.85,1.777,1.777,0,0,0,4.54-1a1.647,1.647,0,0,0,.55-.4,1.882,1.882,0,0,0,.36-.595,2.849,2.849,0,0,0,.17-.73H6.84a3.384,3.384,0,0,1-.275,1.17,2.869,2.869,0,0,1-.635.915,2.806,2.806,0,0,1-.94.595A3.257,3.257,0,0,1,3.8.17a3.367,3.367,0,0,1-1.435-.3A3.157,3.157,0,0,1,1.29-.93,3.6,3.6,0,0,1,.615-2.12,4.408,4.408,0,0,1,.38-3.57,4.378,4.378,0,0,1,.615-5.01,3.6,3.6,0,0,1,1.29-6.2a3.213,3.213,0,0,1,1.075-.81A3.319,3.319,0,0,1,3.8-7.31a3.781,3.781,0,0,1,1.13.165,2.921,2.921,0,0,1,.935.48A2.493,2.493,0,0,1,6.52-5.9a2.661,2.661,0,0,1,.31,1.03Zm5.69-1.42a2,2,0,0,0-.985.23,1.931,1.931,0,0,0-.675.615,2.774,2.774,0,0,0-.385.875,4.03,4.03,0,0,0-.125,1,4.03,4.03,0,0,0,.125,1,2.774,2.774,0,0,0,.385.875,1.931,1.931,0,0,0,.675.615,2,2,0,0,0,.985.23,2,2,0,0,0,.985-.23,1.931,1.931,0,0,0,.675-.615,2.774,2.774,0,0,0,.385-.875,4.03,4.03,0,0,0,.125-1,4.03,4.03,0,0,0-.125-1,2.774,2.774,0,0,0-.385-.875,1.931,1.931,0,0,0-.675-.615A2,2,0,0,0,11.27-6.29Zm0-1.02a3.319,3.319,0,0,1,1.435.3,3.213,3.213,0,0,1,1.075.81,3.6,3.6,0,0,1,.675,1.19,4.378,4.378,0,0,1,.235,1.44,4.408,4.408,0,0,1-.235,1.45A3.6,3.6,0,0,1,13.78-.93,3.157,3.157,0,0,1,12.7-.125a3.367,3.367,0,0,1-1.435.3,3.367,3.367,0,0,1-1.435-.3A3.157,3.157,0,0,1,8.76-.93a3.6,3.6,0,0,1-.675-1.19A4.408,4.408,0,0,1,7.85-3.57a4.378,4.378,0,0,1,.235-1.44A3.6,3.6,0,0,1,8.76-6.2a3.213,3.213,0,0,1,1.075-.81A3.319,3.319,0,0,1,11.27-7.31Zm4.79.17h1.76l1.97,5.59h.02l1.92-5.59h1.74V0H22.28V-5.51h-.02L20.28,0H19.25L17.27-5.51h-.02V0H16.06Zm9.16,0h3.15a2.994,2.994,0,0,1,1.24.22,1.957,1.957,0,0,1,.74.55,1.868,1.868,0,0,1,.355.72,3.058,3.058,0,0,1,.1.72,3,3,0,0,1-.1.715,1.871,1.871,0,0,1-.355.715,1.915,1.915,0,0,1-.74.545,3.055,3.055,0,0,1-1.24.215h-1.9V0H25.22Zm1.25,3.38H28.3a1.63,1.63,0,0,0,.43-.06,1.231,1.231,0,0,0,.4-.195,1,1,0,0,0,.3-.36,1.235,1.235,0,0,0,.115-.565,1.461,1.461,0,0,0-.1-.58.927.927,0,0,0-.27-.365.961.961,0,0,0-.39-.185,2.117,2.117,0,0,0-.47-.05H26.47Zm5.67-3.38h1.25v6.06h3.63V0H32.14Zm5.99,0h1.25V0H38.13Zm4.94,0H44.4L47.15,0H45.81l-.67-1.89H42.29L41.62,0H40.33Zm-.44,4.3h2.18L43.74-5.91h-.03Zm5.4-4.3h1.32l3.26,5.26h.02V-7.14h1.19V0H52.5L49.25-5.25h-.03V0H48.03Zm6.84,0h5.78v1.08H58.38V0H57.13V-6.06H54.87Z" transform="translate(66.001 45.122)"/></g></svg>