<svg width="138" height="87" viewBox="0 0 138 87" fill="none" xmlns="http://www.w3.org/2000/svg">
<g clip-path="url(#clip0_1351_189)">
<path d="M49.2093 50.3422C49.2064 50.6465 49.0827 50.9373 48.8652 51.1513C48.6477 51.3654 48.3539 51.4853 48.0479 51.4849C47.7409 51.4781 47.4481 51.3505 47.2332 51.13L42.3428 45.8012L40.6062 47.4637V50.1644C40.608 50.5115 40.4712 50.8451 40.2258 51.092C39.9804 51.3388 39.6465 51.4787 39.2974 51.4808C39.1245 51.4799 38.9534 51.4452 38.794 51.3785C38.6345 51.3119 38.4899 51.2147 38.3682 51.0924C38.2466 50.9702 38.1503 50.8253 38.085 50.6661C38.0196 50.5069 37.9864 50.3364 37.9873 50.1644V34.9467C37.9873 34.22 38.5741 33.6303 39.2974 33.6303C39.6465 33.6325 39.9804 33.7723 40.2258 34.0192C40.4712 34.266 40.608 34.5996 40.6062 34.9467V44.3606L46.1633 38.7461C46.4069 38.5249 46.718 38.3932 47.0456 38.3735C47.7006 38.3735 48.2315 38.9076 48.2315 39.5658C48.2336 39.8731 48.1246 40.171 47.9244 40.4052L43.947 44.2561L48.8633 49.5265C49.0797 49.743 49.2038 50.0355 49.2093 50.3429V50.3422ZM50.5153 34.9033C50.5447 34.1922 51.2059 33.6296 52.0117 33.6296C52.8169 33.6296 53.4788 34.1929 53.5081 34.9033C53.4788 35.6138 52.8176 36.1763 52.0117 36.1763C51.2065 36.1763 50.5447 35.6138 50.5153 34.9033ZM53.4863 39.8454V50.14C53.5061 50.615 53.2304 51.0608 52.7678 51.303C52.5359 51.4225 52.2786 51.4848 52.0175 51.4848C51.7564 51.4848 51.4991 51.4225 51.2673 51.303C50.8046 51.0608 50.5297 50.6143 50.5488 50.14V39.8454C50.5297 39.3704 50.8046 38.9245 51.2673 38.6823C51.4992 38.5627 51.7566 38.5003 52.0179 38.5003C52.2791 38.5003 52.5365 38.5627 52.7685 38.6823C53.2304 38.9245 53.5054 39.3704 53.4863 39.8454ZM64.6742 40.1826C64.8857 40.4466 65.0078 40.7736 65.0235 41.1156C65.0235 41.746 64.5595 42.124 63.9761 42.124C63.5851 42.124 63.2187 41.9442 62.8516 41.4434C62.6028 41.1049 62.275 40.8316 61.8964 40.6472C61.5178 40.4628 61.0997 40.3727 60.6783 40.3848C59.4569 40.3848 58.7234 41.0145 58.7234 41.9225C58.7234 42.5535 59.072 43.1581 60.361 43.5436L61.8738 43.9724C63.9515 44.5519 65.5155 45.5087 65.5155 47.6265C65.5155 50.2743 63.0959 51.6111 60.5561 51.6111C58.4299 51.6111 56.939 50.6523 56.3037 49.6188C56.1809 49.439 55.7899 48.9382 55.7899 48.3329C55.7899 47.8036 56.1079 47.252 56.7923 47.252C57.3545 47.252 57.648 47.6123 57.8922 47.9835C58.5029 49.042 59.5053 49.3949 60.5561 49.3949C61.972 49.3949 62.9492 48.7903 62.9492 47.7745C62.9492 47.0179 62.436 46.4635 61.216 46.1099L59.5783 45.6566C57.2078 44.9774 56.1816 43.6664 56.1816 41.9516C56.1816 39.5814 58.2587 38.2195 60.6292 38.2195C62.3787 38.2161 63.8942 38.9469 64.6742 40.1826ZM75.8832 40.1826C76.0947 40.4466 76.2168 40.7736 76.2325 41.1156C76.2325 41.746 75.7685 42.124 75.1851 42.124C74.7941 42.124 74.4277 41.9442 74.0606 41.4434C73.8116 41.1046 73.4835 40.8312 73.1045 40.6467C72.7255 40.4623 72.307 40.3724 71.8853 40.3848C70.6638 40.3848 69.9324 41.0145 69.9324 41.9225C69.9324 42.5535 70.281 43.1581 71.568 43.5436L73.0828 43.9724C75.1605 44.5519 76.7245 45.5087 76.7245 47.6265C76.7245 50.2743 74.3049 51.6111 71.7638 51.6111C69.639 51.6111 68.1473 50.6523 67.5127 49.6188C67.3899 49.439 66.9989 48.9382 66.9989 48.3329C66.9989 47.8036 67.3169 47.252 68.0013 47.252C68.5636 47.252 68.857 47.6123 69.1013 47.9835C69.712 49.042 70.7123 49.3949 71.7631 49.3949C73.181 49.3949 74.1582 48.7903 74.1582 47.7745C74.1582 47.0179 73.645 46.4635 72.4229 46.1099L70.7853 45.6566C68.4169 44.9774 67.3899 43.6664 67.3899 41.9516C67.3899 39.5814 69.4677 38.2195 71.8368 38.2195C73.5857 38.2161 75.0944 38.9469 75.8832 40.1826ZM87.1829 35.4048C87.1868 35.5296 87.1656 35.6539 87.1205 35.7705C87.0754 35.887 87.0073 35.9934 86.9202 36.0834C86.8349 36.1717 86.7319 36.2413 86.6179 36.2877C86.5039 36.3341 86.3815 36.3562 86.2583 36.3527C85.9469 36.3206 85.6427 36.2386 85.3576 36.1098C85.0142 35.9279 84.633 35.828 84.244 35.818C82.9169 35.818 82.4904 36.8393 82.4904 37.8347V38.6667H84.8602C85.4764 38.6667 85.9028 39.0799 85.9028 39.6879C85.9144 39.9729 85.8073 40.2491 85.6087 40.4479C85.4095 40.6467 85.1379 40.7492 84.8602 40.7295H82.4897V50.1617C82.4991 50.3887 82.4478 50.6142 82.3412 50.8151C82.2345 51.0161 82.0762 51.1854 81.8824 51.3057C81.6913 51.4228 81.4713 51.4848 81.2468 51.4848C81.0223 51.4848 80.8023 51.4228 80.6112 51.3057C80.4171 51.1854 80.2587 51.016 80.1519 50.815C80.0451 50.6139 79.9938 50.3882 80.0032 50.161V40.7282H79.2253C79.089 40.7365 78.9524 40.7151 78.8251 40.6657C78.6979 40.6163 78.583 40.5399 78.4884 40.4418C78.3919 40.3418 78.3173 40.223 78.2694 40.0929C78.2215 39.9628 78.2012 39.8242 78.21 39.6859C78.197 39.4077 78.3007 39.1376 78.4952 38.9429C78.5897 38.8472 78.7038 38.773 78.8299 38.7253C78.9559 38.6776 79.0908 38.6576 79.2253 38.6667H80.008V37.7391C80.008 34.4073 82.4003 33.6296 83.9411 33.6296C85.0076 33.6296 85.9083 33.9214 86.5477 34.3829C86.9509 34.6509 87.1822 34.9664 87.1822 35.4048H87.1829ZM90.9263 35.2311V50.1298C90.9263 50.8416 90.3634 51.4191 89.6701 51.4191C88.9761 51.4191 88.4139 50.8416 88.4139 50.1298V35.2345C88.4139 34.5226 88.9761 33.9452 89.6694 33.9452C90.3634 33.9452 90.9263 34.5226 90.9263 35.2345V35.2311ZM106.091 44.9285C106.091 49.4159 102.496 51.6111 99.7205 51.6111C96.944 51.6111 93.3732 49.4247 93.3732 44.9285C93.3732 40.4323 96.946 38.2195 99.7287 38.2195C102.512 38.2195 106.091 40.4561 106.091 44.9285ZM95.9082 44.9285C95.9082 47.7663 97.8617 49.2985 99.7205 49.2985C101.579 49.2985 103.558 47.7663 103.558 44.9285C103.558 42.0568 101.603 40.5314 99.7205 40.5314C97.8372 40.5314 95.9082 42.0643 95.9082 44.9285ZM126.582 40.0801C126.555 40.2803 126.496 40.4757 126.408 40.6583L122.989 50.5586C122.77 51.185 122.308 51.5222 121.774 51.5222C121.239 51.5222 120.778 51.1782 120.51 50.5586L117.231 42.6099L113.935 50.5586C113.692 51.185 113.23 51.5222 112.695 51.5222C112.161 51.5222 111.699 51.1782 111.481 50.5586L108.053 40.6583C107.965 40.4758 107.906 40.2807 107.879 40.0801C107.878 39.9214 107.908 39.7639 107.969 39.6169C108.029 39.47 108.118 39.3365 108.231 39.2245C108.46 38.9978 108.771 38.8716 109.094 38.875C109.325 38.873 109.551 38.938 109.745 39.0622C109.94 39.1864 110.093 39.3642 110.187 39.5739L112.861 47.7643L116.068 39.6757C116.235 39.1837 116.709 38.8607 117.231 38.8804C117.485 38.8736 117.735 38.9469 117.944 39.0898C118.154 39.2326 118.313 39.4377 118.398 39.6757L121.604 47.7643L124.278 39.5739C124.399 39.1396 124.907 38.875 125.369 38.875C125.692 38.8723 126.002 38.9985 126.231 39.2251C126.458 39.4518 126.585 39.7599 126.582 40.0801Z" fill="black"/>
<path d="M29.775 40.9534C32.0756 38.6807 32.8305 35.7269 31.4611 34.3561C30.0917 32.9852 27.1166 33.7164 24.816 35.9891C22.5154 38.2618 21.7605 41.2155 23.1299 42.5864C24.4993 43.9573 27.4744 43.2261 29.775 40.9534Z" fill="black"/>
<path d="M28.965 51.1944C29.9962 50.1614 29.4953 48.0042 27.8462 46.3763C26.1971 44.7483 24.0243 44.266 22.9931 45.299C21.9619 46.332 22.4628 48.4892 24.1119 50.1172C25.761 51.7451 27.9338 52.2274 28.965 51.1944Z" fill="black"/>
<path d="M20.5207 42.5897C21.8901 41.2189 21.1352 38.2651 18.8346 35.9924C16.534 33.7197 13.5588 32.9885 12.1894 34.3594C10.8201 35.7303 11.575 38.684 13.8756 40.9567C16.1762 43.2294 19.1513 43.9606 20.5207 42.5897Z" fill="black"/>
<path d="M19.5405 50.1161C21.1896 48.4881 21.6906 46.3309 20.6594 45.2979C19.6282 44.2649 17.4554 44.7472 15.8063 46.3752C14.1572 48.0031 13.6563 50.1603 14.6874 51.1933C15.7186 52.2263 17.8914 51.744 19.5405 50.1161Z" fill="black"/>
</g>
<defs>
<clipPath id="clip0_1351_189">
<rect width="116" height="19" fill="white" transform="translate(11 33.0195)"/>
</clipPath>
</defs>
</svg>
