<svg width="139" height="87" viewBox="0 0 139 87" fill="none" xmlns="http://www.w3.org/2000/svg">
<path d="M36.7623 35.1189H40.9391L33.4472 53.0884H29.7628L22.0254 35.1189H24.8502C25.2474 35.104 25.6391 35.2149 25.9698 35.4359C26.3005 35.6568 26.5534 35.9765 26.6925 36.3496L31.485 48.1649L36.7623 35.1189ZM59.9733 49.6417C59.6418 49.6547 59.3116 49.5947 59.0058 49.4658C58.7 49.3369 58.4262 49.1424 58.2037 48.8958C57.9812 48.6493 57.8153 48.3569 57.7179 48.0391C57.6205 47.7213 57.5939 47.386 57.6399 47.0568V38.3202H63.2895V35.1172H57.6399V32.1651C57.6531 31.8868 57.6082 31.6088 57.508 31.349C57.4079 31.0891 57.2547 30.8531 57.0582 30.6559C56.8618 30.4588 56.6264 30.305 56.3673 30.2043C56.1081 30.1037 55.8308 30.0583 55.5531 30.0712H53.7107V35.1189H50.763V38.442H53.7107V47.7978C53.6641 48.5048 53.7687 49.2136 54.0176 49.8768C54.2664 50.54 54.6538 51.1423 55.1537 51.6433C55.6536 52.1443 56.2546 52.5325 56.9163 52.7819C57.5781 53.0313 58.2854 53.1362 58.9908 53.0894C60.457 53.1383 61.9178 52.8875 63.2842 52.3523L63.4072 52.2291V48.9035L63.0401 49.0264C62.0867 49.488 61.032 49.6997 59.9747 49.6417H59.9733ZM71.1513 37.0881V35.1189H67.467V53.0884H71.1513V42.8737C71.1513 40.0427 73.3621 38.3195 77.0426 38.3195H77.2877L77.5329 34.75H77.1644C74.5883 34.7496 72.5005 35.4882 71.1513 37.0885V37.0881ZM96.4501 43.7347C96.4756 44.2304 96.4342 44.7272 96.3272 45.2118V45.4575H83.4329C83.8014 48.2885 85.3979 49.8885 87.9771 49.8885C88.8805 49.877 89.7696 49.6609 90.5779 49.2563C91.3861 48.8517 92.0925 48.2691 92.6442 47.5521L92.7672 47.3064L95.8375 48.9074L95.5923 49.1531C94.7432 50.3861 93.6039 51.3904 92.2752 52.077C90.9465 52.7637 89.4694 53.1115 87.9747 53.0898C82.8165 53.0898 79.2534 49.3974 79.2534 43.9836C79.2534 38.4448 82.6921 34.7518 87.8503 34.7518C93.0085 34.7518 96.4484 38.3202 96.4484 43.734L96.4501 43.7347ZM92.3973 42.504C92.0289 39.5499 90.4324 37.9499 87.8531 37.9499C85.3968 37.9499 83.6774 39.6731 83.4319 42.504H92.3973ZM117.696 43.8579C117.696 49.3967 114.012 53.0898 108.484 53.0898C102.957 53.0898 99.2728 49.3974 99.2728 43.8579C99.2728 38.3185 102.957 34.6261 108.484 34.6261C114.009 34.7493 117.694 38.4417 117.694 43.8579H117.696ZM108.484 38.196C105.414 38.196 103.326 40.5345 103.326 43.9808C103.326 47.4271 105.414 49.7656 108.484 49.7656C111.555 49.7656 113.643 47.4271 113.643 43.9808C113.643 40.5345 111.554 38.1963 108.483 38.1963L108.484 38.196ZM45.7278 30.0712C45.1153 30.0918 44.5336 30.3448 44.1002 30.7789C43.6668 31.2131 43.4141 31.796 43.3933 32.4097C43.3931 32.8725 43.5299 33.3249 43.7862 33.7098C44.0426 34.0947 44.4071 34.3947 44.8337 34.572C45.2602 34.7492 45.7296 34.7957 46.1825 34.7055C46.6355 34.6154 47.0515 34.3926 47.3781 34.0655C47.7047 33.7383 47.9271 33.3215 48.0173 32.8676C48.1074 32.4138 48.0613 31.9433 47.8846 31.5157C47.7079 31.0882 47.4087 30.7227 47.0248 30.4656C46.6409 30.2085 46.1895 30.0712 45.7278 30.0712Z" fill="black"/>
</svg>
