<svg width="139" height="87" viewBox="0 0 139 87" fill="none" xmlns="http://www.w3.org/2000/svg">
<g clip-path="url(#clip0_1351_107)">
<g clip-path="url(#clip1_1351_107)">
<path d="M23.7962 34.0195C25.2649 34.0227 26.7115 34.3709 28.0151 35.035C29.3188 35.6992 30.4416 36.6599 31.2899 37.837L28.2344 40.2895C27.7691 39.543 27.1171 38.9257 26.3402 38.4964C25.5634 38.0672 24.6876 37.8402 23.7962 37.837C23.1132 37.8438 22.4383 37.9837 21.8108 38.2487C21.1834 38.5137 20.6158 38.8985 20.141 39.3806C19.6663 39.8628 19.2938 40.4328 19.0453 41.0575C18.7968 41.6821 18.6772 42.3491 18.6934 43.0195C18.6772 43.69 18.7968 44.3569 19.0453 44.9816C19.2938 45.6063 19.6663 46.1763 20.141 46.6584C20.6158 47.1406 21.1834 47.5254 21.8108 47.7903C22.4383 48.0553 23.1132 48.1953 23.7962 48.202C24.6876 48.1989 25.5634 47.9719 26.3402 47.5426C27.1171 47.1134 27.7691 46.4961 28.2344 45.7495L31.2899 48.202C30.3835 49.4656 29.1609 50.4787 27.7399 51.1437C26.319 51.8088 24.7475 52.1033 23.177 51.999C21.6064 51.8947 20.0897 51.3951 18.7729 50.5482C17.4561 49.7014 16.3836 48.5359 15.6587 47.164C14.9338 45.7921 14.5809 44.26 14.6341 42.7154C14.6873 41.1707 15.1448 39.6656 15.9624 38.3449C16.78 37.0242 17.9303 35.9325 19.3023 35.1749C20.6744 34.4173 22.222 34.0194 23.7962 34.0195Z" fill="black"/>
<path d="M34.8652 34.2145H38.9062V41.1145H46.0791V34.2145H50.1201V51.8245H46.0791V44.932H38.9062V51.8245H34.8652V34.2145Z" fill="black"/>
<path d="M52.9385 51.8245H57.1781L58.4919 49.0945H65.0538L66.3447 51.8245H70.5843L61.7614 34.0195L52.9385 51.8245ZM60.035 45.8695L61.7614 42.2245L63.5107 45.8695H60.035Z" fill="black"/>
<path d="M88.7799 34.0195V51.8245H84.739V42.622L73.4258 52.0195V34.2145H77.4668V43.417L88.7799 34.0195Z" fill="black"/>
<path d="M101.988 34.0195C103.458 34.0222 104.906 34.37 106.211 35.0342C107.516 35.6983 108.64 36.6593 109.489 37.837L106.434 40.2895C105.968 39.5419 105.315 38.9239 104.536 38.4946C103.758 38.0653 102.881 37.8389 101.988 37.837C101.306 37.8458 100.633 37.9872 100.007 38.253C99.3816 38.5189 98.8158 38.9039 98.3427 39.3859C97.8695 39.8679 97.4984 40.4372 97.2509 41.0609C97.0033 41.6846 96.8842 42.3503 96.9004 43.0195C96.8842 43.6894 97.0036 44.3557 97.2516 44.9799C97.4996 45.6041 97.8714 46.1737 98.3453 46.6558C98.8193 47.1379 99.386 47.5228 100.013 47.7882C100.639 48.0536 101.313 48.1943 101.996 48.202C102.888 48.2002 103.766 47.9738 104.544 47.5445C105.322 47.1151 105.975 46.4972 106.441 45.7495L109.497 48.202C108.591 49.4651 107.369 50.4779 105.949 51.1429C104.528 51.808 102.958 52.1029 101.388 51.9993C99.8179 51.8956 98.3015 51.397 96.9847 50.5513C95.6679 49.7056 94.595 48.5414 93.8692 47.1706C93.1435 45.7999 92.7893 44.2688 92.8409 42.7247C92.8924 41.1807 93.3479 39.6756 94.1635 38.3545C94.9791 37.0333 96.1273 35.9406 97.4977 35.1813C98.8681 34.4221 100.414 34.022 101.988 34.0195V34.0195Z" fill="black"/>
<path d="M113.064 34.2145H124.171V38.137H117.105V41.137H122.659V44.9545H117.105V47.9545H124.171V51.877H113.064V34.2145Z" fill="black"/>
</g>
</g>
<defs>
<clipPath id="clip0_1351_107">
<rect width="138" height="86" fill="white" transform="translate(0.400391 0.059082)"/>
</clipPath>
<clipPath id="clip1_1351_107">
<rect width="110" height="18" fill="white" transform="translate(14.4004 34.0195)"/>
</clipPath>
</defs>
</svg>
