<svg width="138" height="87" viewBox="0 0 138 87" fill="none" xmlns="http://www.w3.org/2000/svg">
<path d="M73.2569 31.7321V40.7951H71.5998V36.8176H67.3036V40.7951H65.6455V31.7321H67.3036V35.2314H71.5998V31.7321H73.2569Z" fill="#020202"/>
<path d="M80.3159 37.321V40.7961H78.6578V37.3463L75.6436 31.7321H77.6029L79.4869 35.6344H79.537L81.4228 31.7321H83.3821L80.3159 37.321Z" fill="#020202"/>
<path d="M91.8961 34.5773C91.8961 36.2391 90.866 37.4726 88.8566 37.4726H87.3506V40.8209H85.6914V31.7579H88.8566C90.8664 31.7327 91.8961 32.9662 91.8961 34.5773ZM90.1127 34.5773C90.1127 33.6963 89.5351 33.2684 88.6556 33.2684H87.3492V35.9119H88.6556C89.5347 35.9368 90.1127 35.4837 90.1127 34.5773Z" fill="#020202"/>
<path d="M99.8099 39.2602V40.8212H94.3838V31.7578H99.7346V33.3188H96.0167V35.1315H99.4078V36.6672H96.0167V39.2854L99.8099 39.2602Z" fill="#020202"/>
<path d="M107.924 32.1855L107.22 33.6949C106.629 33.3592 105.966 33.1694 105.286 33.1409C104.608 33.1409 104.332 33.3926 104.332 33.7956C104.332 34.1466 104.533 34.3748 105.035 34.7272L106.592 35.835C107.597 36.5146 108.15 37.2447 108.15 38.3778C108.15 40.0897 106.969 40.9961 105.06 40.9961C103.96 40.9996 102.881 40.6944 101.945 40.115L102.674 38.6056C103.405 39.0737 104.244 39.3427 105.111 39.3859C105.964 39.3859 106.392 39.0083 106.392 38.4796C106.392 38.0012 106.065 37.6993 105.487 37.2963L104.03 36.2391C103.076 35.5844 102.599 34.8294 102.599 33.8475C102.599 32.4378 103.553 31.5308 105.286 31.5564C106.2 31.5766 107.099 31.791 107.924 32.1855Z" fill="#020202"/>
<path d="M116.741 33.3188H114.279V40.8212H112.621V33.3188H110.159V31.7578H116.741V33.3188Z" fill="#020202"/>
<path d="M73.2569 44.7484V53.8114H71.5998V49.834H67.3036V53.8118H65.6455V44.7484H67.3036V48.2477H71.5998V44.7484H73.2569Z" fill="#020202"/>
<path d="M78.1308 53.8114H76.4727V44.7484H78.1308V53.8114Z" fill="#020202"/>
<path d="M85.5412 53.8114H83.8831L80.542 44.7484H82.4761L84.6865 51.5961H84.7366L86.973 44.7484H88.9071L85.5412 53.8114Z" fill="#020202"/>
<path d="M96.6947 52.2759V53.8369H91.2686V44.7736H96.6194V46.3345H92.9014V48.1472H96.2926V49.6829H92.9014V52.3012L96.6947 52.2759Z" fill="#020202"/>
<path d="M100.337 49.2798V54.3903L109.581 49.1285V43.993L100.337 49.2798Z" fill="#020202"/>
<path d="M45.8507 42.432L36.4807 47.8462V54.5156H31.9589V27.2764L22.9658 32.4623V53.3572L40.9773 63.7825L45.8507 60.9627V42.432Z" fill="black"/>
<path d="M41.0271 22.0649L36.4805 24.6579V42.6081L45.8505 37.2206V31.3547H50.3722V58.3678L59.0389 53.3581V32.4625L41.0271 22.0649Z" fill="black"/>
</svg>
