<svg width="139" height="87" viewBox="0 0 139 87" fill="none" xmlns="http://www.w3.org/2000/svg">
<g clip-path="url(#clip0_1351_335)">
<path d="M50.4008 32.5764C51.3921 32.5438 52.3834 32.5438 53.391 32.5601C53.5047 36.9363 53.4072 41.3126 53.4397 45.7052C53.4722 47.1912 53.2447 48.9711 51.8309 49.8039C49.897 50.9306 47.4594 50.8979 45.363 50.3754C43.3479 49.8202 42.5516 47.5994 42.5028 45.7052C42.4378 43.3701 42.1616 40.6594 43.7867 38.7489C45.4443 36.92 48.2232 36.9853 50.3683 37.7855C50.352 36.0546 50.3358 34.3073 50.4008 32.5764ZM46.7606 40.1369C44.9892 41.5902 45.688 44.3009 45.753 46.3094C45.8505 48.6935 50.1245 48.8894 50.2708 46.4727C50.417 44.7254 50.417 42.9619 50.2383 41.2146C49.9945 39.6797 47.8981 39.5 46.7606 40.1369ZM92.3119 32.5764C93.3032 32.5438 94.3108 32.5274 95.3021 32.5438C95.3833 34.389 95.3671 36.2342 95.3183 38.0794C97.1709 37.0996 99.5923 36.8057 101.429 37.9814C103.135 39.2225 103.216 41.5412 103.281 43.4681C103.265 45.4113 103.346 47.5831 102.062 49.1833C100.957 50.5387 99.0885 50.7183 97.4797 50.7183C95.9521 50.702 94.197 50.5713 93.1407 49.314C92.1981 48.2199 92.2631 46.685 92.2469 45.3296C92.3119 41.084 92.2306 36.8384 92.3119 32.5764ZM96.1146 40.1859C95.1721 40.8227 95.4321 42.1291 95.3508 43.0925C95.4321 44.5458 95.1071 46.1134 95.7246 47.4851C96.6021 48.4159 98.1785 48.3016 99.2348 47.779C100.356 46.8319 100.031 45.15 100.145 43.8437C100.047 42.619 100.307 41.0677 99.2673 40.1859C98.276 39.696 97.1059 39.696 96.1146 40.1859ZM70.5194 33.9971C71.527 33.9481 72.5345 33.9644 73.5258 34.0134C73.5421 35.1565 73.5583 36.3158 73.5746 37.4589C74.5821 37.4752 75.5897 37.4915 76.5973 37.5079C76.6298 38.3733 76.646 39.2551 76.6298 40.1206C75.606 40.1369 74.5822 40.1532 73.5583 40.1532C73.5583 42.1291 73.5096 44.1049 73.5583 46.0971C73.6233 46.6523 73.5258 47.4688 74.2084 47.681C75.1022 47.8607 76.0447 47.828 76.9548 47.877C76.9385 48.7424 76.9223 49.5916 76.8898 50.457C75.3134 50.4407 73.6558 50.6856 72.1608 50.1141C71.0232 49.6569 70.5357 48.3669 70.5032 47.2238C70.3732 44.8887 70.5032 42.5536 70.4707 40.2022C69.7719 40.1532 69.0731 40.1042 68.3743 40.0552C68.3906 39.3694 68.4068 38.6836 68.4231 38.0141C69.0893 37.8834 69.7556 37.7528 70.4219 37.6222C70.4544 36.4138 70.4869 35.2054 70.5194 33.9971ZM57.0962 37.9651C59.5176 37.3119 62.199 36.822 64.6041 37.7691C65.9529 38.3243 66.5217 39.843 66.4729 41.2146C66.5217 44.2682 66.4567 47.3218 66.5054 50.3754C65.8067 50.4244 65.1241 50.457 64.4253 50.506C64.2628 50.2121 64.1166 49.9018 63.9541 49.6079C62.524 50.9959 60.4276 50.8816 58.6075 50.5713C57.2262 50.3264 56.2674 48.9711 56.1861 47.5994C56.0399 45.9665 56.0399 43.8436 57.6487 42.9129C59.42 41.9658 61.5164 42.2924 63.4503 42.276C63.2878 41.5412 63.5153 40.4472 62.654 40.0879C60.9314 39.5654 59.1438 40.1696 57.4374 40.4471C57.2912 39.6144 57.1774 38.7979 57.0962 37.9651ZM59.7776 44.9867C59.0788 45.6072 59.225 46.7176 59.4363 47.5177C60.0051 48.4648 61.3864 48.1873 62.3127 48.0893C63.7753 47.779 63.304 45.9175 63.4503 44.8234C62.2315 44.7908 60.9476 44.5621 59.7776 44.9867ZM79.6037 37.9978C82.0901 37.2793 84.9177 36.7731 87.3716 37.8834C88.883 38.6183 89.0942 40.4472 89.0617 41.9494C88.9967 44.8071 89.1917 47.681 88.9317 50.5387C88.0217 50.4897 86.8516 50.7183 86.4616 49.6406C85.129 50.9796 83.1301 50.8489 81.4075 50.6203C79.9287 50.4407 78.8399 49.0527 78.7749 47.5994C78.6286 46.0155 78.6124 43.9743 80.1237 42.9945C81.8951 41.9494 84.0727 42.3087 86.039 42.276C85.8765 41.5086 86.1203 40.3328 85.1452 40.0552C83.4389 39.6144 81.7163 40.1696 80.0262 40.4471C79.8312 39.6144 79.7012 38.7979 79.6037 37.9978ZM81.8788 47.1912C82.1226 48.4648 83.7964 48.2036 84.7552 48.1219C86.3153 47.8933 85.8765 45.9338 85.974 44.8071C84.8365 44.7744 83.6664 44.6275 82.5451 44.8887C81.635 45.248 81.7976 46.4237 81.8788 47.1912ZM108.774 37.5569C110.594 37.0507 112.723 37.0507 114.364 38.1121C115.957 39.2061 116.396 41.2636 116.445 43.0925C116.493 45.0683 116.526 47.2728 115.291 48.9547C113.942 50.7183 111.423 50.9469 109.392 50.555C107.718 50.2447 106.353 49.0037 105.93 47.3381C105.426 45.3459 105.459 43.2395 105.784 41.2146C106.076 39.5654 107.149 38.0304 108.774 37.5569ZM110.302 39.843C109.31 40.0063 108.904 41.0677 108.823 41.9494C108.693 43.5661 108.595 45.248 109.018 46.8482C109.375 48.2362 111.228 48.4648 112.317 47.8443C113.146 47.3055 113.178 46.2114 113.276 45.3133C113.341 43.86 113.406 42.3577 112.983 40.9534C112.626 39.8593 111.293 39.6144 110.302 39.843ZM117.615 37.5079C118.703 37.4915 119.792 37.4915 120.897 37.5079C121.694 39.2388 122.441 41.0023 123.335 42.7006C124.554 41.1493 125.139 39.2551 126.016 37.5079C127.089 37.4915 128.178 37.4915 129.25 37.4915V37.8508C128.178 39.8266 127.04 41.7862 126.049 43.811C127.073 45.8522 128.129 47.877 129.25 49.8528V50.4244C128.194 50.4407 127.138 50.4407 126.081 50.4407C125.155 48.5955 124.521 46.587 123.367 44.8561C122.344 46.6033 121.791 48.5792 120.719 50.2937C119.662 50.604 118.557 50.4407 117.485 50.4407C118.33 48.1056 119.711 46.0318 120.735 43.7783C119.727 41.6882 118.508 39.6797 117.615 37.5079Z" fill="black"/>
<path fill-rule="evenodd" clip-rule="evenodd" d="M9.97609 50.4325C9.92739 50.3835 9.87868 50.3183 9.82998 50.253L9.82995 50.253C9.66744 50.0407 9.53743 49.7958 9.45618 49.5345C9.37493 49.2895 9.32617 49.0283 9.32617 48.767V37.5324C9.37492 36.9446 9.55369 36.3567 9.82995 35.8342C9.97621 35.5729 10.1387 35.328 10.3337 35.1157L10.3662 35.083C10.5125 34.9361 10.675 34.7891 10.8375 34.6585C10.9009 34.5948 10.9841 34.541 11.064 34.4894L11.064 34.4894L11.064 34.4894L11.064 34.4894C11.0865 34.4749 11.1086 34.4605 11.13 34.4462L11.1544 34.4296C11.1998 34.3984 11.2566 34.3594 11.325 34.3319L11.8288 34.0216L13.8439 32.8459L14.3477 32.5683L14.8515 32.2744L19.3855 29.776L19.873 29.4984L20.8806 28.9432L21.2218 28.7636L21.3844 28.7146C21.4494 28.6656 21.5306 28.6493 21.6119 28.633L21.8881 28.5676C22.0372 28.5377 22.1999 28.5215 22.3513 28.5064L22.3919 28.5023V35.4831H22.1075C21.9125 35.4831 21.7337 35.5321 21.555 35.6137C21.1975 35.826 20.9537 36.2179 20.9212 36.6425V49.6733H22.5463C22.855 49.6406 23.1313 49.51 23.3426 49.2977C23.5538 49.0854 23.7001 48.8078 23.7326 48.5139V35.4831H22.3919L22.3919 28.5023C22.4677 28.5132 22.5579 28.5241 22.6481 28.5349L22.6481 28.5349C22.6933 28.5404 22.7386 28.5458 22.782 28.5513C22.912 28.5676 23.042 28.6003 23.172 28.6329C23.228 28.6541 23.284 28.6721 23.3387 28.6898C23.411 28.7131 23.481 28.7357 23.5458 28.7636L23.9521 28.9759L24.7321 29.4331L25.1384 29.6617L25.5284 29.8903L25.9347 30.1189L26.3247 30.3312L26.7147 30.5598L27.121 30.7884L27.5273 31.0007L27.9173 31.213L28.3073 31.4416L28.7136 31.6702L29.1036 31.8988L29.9161 32.356L30.3062 32.5846L30.7124 32.8133L31.1025 33.0419L31.915 33.4991L32.305 33.7277L32.7113 33.9726L33.1013 34.2012L33.4913 34.4462L33.6539 34.5442C33.6741 34.5577 33.6998 34.5768 33.73 34.5992C33.7727 34.6309 33.8243 34.6692 33.8814 34.7075C34.0276 34.8054 34.1576 34.9197 34.2876 35.0504L34.4502 35.1973L34.6939 35.4913C34.8402 35.7035 34.9702 35.9322 35.0839 36.1608C35.3114 36.618 35.4577 37.1405 35.4577 37.6304V48.9303C35.4415 49.1916 35.3927 49.4528 35.3277 49.7141C35.2952 49.9264 35.2302 50.1387 35.1164 50.3183L35.0879 50.366L35.1161 50.3836C35.0186 50.5469 34.9049 50.6938 34.7749 50.8408C34.7667 50.849 34.7586 50.8612 34.7505 50.8735C34.7424 50.8857 34.7342 50.8979 34.7261 50.9061L34.4336 51.2C34.3198 51.298 34.2061 51.3797 34.0923 51.4613L33.9461 51.5593L33.7673 51.6736L24.2118 57.1602L24.0168 57.2745L23.8867 57.3235L23.5455 57.4215L23.2042 57.4868L23.2042 57.4868C23.0904 57.5032 22.9767 57.5195 22.8629 57.5195H22.1966L21.8554 57.4705C21.7416 57.4542 21.6279 57.4215 21.5141 57.3889L21.1728 57.2909L20.5228 56.899L20.1815 56.6867L18.8165 55.9029L18.4914 55.7069L18.1502 55.511L17.8089 55.2987L16.1026 54.3189L15.7613 54.1067L15.0787 53.7148L14.7537 53.5188L14.4125 53.3065L13.7299 52.9146L13.0474 52.4901L12.7061 52.2941L12.3648 52.0818L12.2023 51.9838L12.0236 51.9022C11.9667 51.8696 11.9099 51.841 11.853 51.8124L11.8529 51.8124L11.8529 51.8124C11.796 51.7838 11.7392 51.7552 11.6823 51.7226L11.341 51.5266L10.9998 51.298C10.9619 51.2708 10.9239 51.2454 10.886 51.22C10.8102 51.1692 10.7343 51.1184 10.6585 51.0531L10.3172 50.7591L10.236 50.6938L9.97596 50.4326L9.97609 50.4325ZM22.3919 35.4831L22.392 42.8479L22.3919 42.8479V35.4831H22.3919ZM27.5514 49.6733H25.9263V40.2512C25.9425 39.5817 26.4463 39.0265 27.0963 38.9612H28.7377V48.3832C28.6727 48.6772 28.5427 48.9384 28.3477 49.167C28.1527 49.412 27.8764 49.5916 27.5514 49.6733ZM17.671 49.6733H16.0459V45.1664C16.0622 44.5132 16.5984 43.9743 17.2485 43.9907H18.8736V48.4976C18.8573 49.1507 18.321 49.6896 17.671 49.6733Z" fill="black"/>
</g>
<defs>
<clipPath id="clip0_1351_335">
<rect width="120" height="29" fill="white" transform="translate(9.40039 28.5195)"/>
</clipPath>
</defs>
</svg>
