<svg width="139" height="87" viewBox="0 0 139 87" fill="none" xmlns="http://www.w3.org/2000/svg">
<path d="M74.6595 48.4158V52.8922C72.2037 54.1356 69.8568 54.7573 67.5253 54.7573C61.0594 54.7573 57.1892 50.9027 57.1892 46.0532C57.1892 40.8308 61.619 36.4788 67.2766 36.4788C68.691 36.4788 69.7324 36.7274 70.8515 37.1005C71.6597 37.3492 72.1416 37.66 72.6389 37.66C73.0742 37.66 73.1985 36.914 73.2607 36.4788H73.8824L74.4419 42.5094H73.6959C73.385 41.3282 72.841 40.3334 72.0949 39.6495C70.9292 38.4683 69.3283 37.8465 67.4787 37.8465C63.6085 37.8465 61.3237 40.9551 61.3237 45.618C61.3237 50.2188 64.0903 53.3895 67.7895 53.3895C68.8931 53.3895 69.8878 53.1408 71.1157 52.5813V47.9806C71.1157 46.4884 70.867 45.9289 68.7843 45.9289V45.245H76.6024V45.9289C74.6129 45.9289 74.6595 46.5506 74.6595 48.4158ZM53.1791 41.0795V54.4465H52.1377L38.8951 40.6443C38.9573 41.0173 38.9573 41.3282 38.9573 41.7012V50.0944C38.9573 52.7056 38.9573 53.6382 41.3043 53.6382V54.3221H35.0871V53.6382C37.4185 53.6382 37.4185 52.5191 37.4185 50.0944V40.5199C37.4185 39.09 37.4185 37.5357 34.9627 37.5357V36.8518H40.8069L51.7025 48.1671C51.6404 47.8562 51.6404 47.6697 51.6404 47.2345V41.0795C51.6404 38.5926 51.7025 37.5357 49.3555 37.5357V36.8518H55.5727V37.5357C53.3035 37.5357 53.1791 38.5304 53.1791 41.0795ZM23.0879 54.3221V53.6382C24.5645 53.6382 25.6059 53.5139 25.6059 51.3379V39.836C25.6059 37.5979 24.8132 37.5357 23.0879 37.5357V36.8518H31.8231V37.5357C30.0356 37.5357 29.3051 37.5979 29.3051 39.836V51.3379C29.3051 53.5139 30.2221 53.6382 31.8231 53.6382V54.3221H23.0879Z" fill="black"/>
<path d="M90.2177 40.0225C90.0934 39.7738 89.7825 40.0225 89.4717 39.8982C89.4717 40.0225 89.4717 40.1469 89.6582 40.2712C89.8292 40.1002 90.1556 40.0225 90.2177 40.0225ZM90.6996 36.774C90.6996 36.6497 90.5752 36.5254 90.3887 36.401H88.8966C88.8966 36.6497 89.0831 36.774 89.2696 36.774C89.2696 37.0227 89.4561 37.0694 89.5183 37.1471C89.7048 37.2714 89.767 37.2714 89.9535 37.1471C90.14 37.2714 90.2022 37.0383 90.2644 37.1471C90.2644 37.5201 90.2644 37.6911 90.2022 37.9864C90.14 38.4216 89.767 38.3594 89.4561 38.5459C89.4561 38.7325 89.2696 39.0433 89.4561 39.2298C89.6426 39.1055 89.767 39.0433 90.0778 38.919C90.0778 38.7325 90.2644 38.5459 90.513 38.4216C90.513 37.8621 90.6996 37.3181 90.6996 36.774ZM93.4973 40.3334V40.0225H92.8756L92.8134 40.0847L93.4973 40.3334ZM89.8292 34.6602C89.767 34.054 89.0831 33.9918 88.7722 33.7587H88.5235C88.0417 33.9452 87.9174 34.4426 87.8707 34.8467C88.0417 35.4063 88.3992 35.0332 88.6479 35.4063C88.9121 35.2197 89.5338 34.7845 89.8292 34.6602ZM91.2125 35.3441C91.0881 35.2197 90.7151 35.4063 90.5286 35.4684C90.2799 35.5306 90.0934 35.7171 90.0934 35.9036H90.7773C90.8395 35.7171 91.0881 35.4684 91.2125 35.3441ZM94.2589 36.6497C94.2589 36.6497 94.3833 36.6497 94.2589 36.5875L92.9533 36.401C92.829 36.5875 92.5181 36.5875 92.5181 36.774H92.3938C92.5181 37.2714 92.5181 37.7999 92.5181 38.3594C92.7668 38.4216 93.0155 38.5459 93.0155 38.919C93.2642 39.0433 93.5128 39.1055 93.746 39.292C93.8548 39.2298 93.917 39.0433 93.9791 38.8568C93.746 38.5459 93.202 38.7325 93.202 38.1729L92.829 38.0486C92.829 37.6911 92.829 37.3336 92.7668 37.0694L92.829 37.0227C92.829 37.0694 92.8911 37.1315 93.0155 37.2559C93.2642 37.2559 93.5128 37.318 93.746 37.1315C93.8548 37.0694 93.8548 36.7585 93.9791 36.7585C94.0879 36.774 94.1967 36.774 94.2589 36.6497ZM93.3108 35.9036C93.3108 35.7171 93.2486 35.7171 93.1864 35.7171C92.8756 35.7171 92.8756 35.2197 92.6269 35.3441C92.5026 35.3441 92.3782 35.2197 92.1917 35.3441C92.1917 35.4063 92.1917 35.4063 92.316 35.4063C92.6269 35.4063 92.5026 35.8415 92.7512 35.9036H93.3108ZM95.378 35.5306C95.5024 35.2197 95.5023 34.6757 95.2537 34.3804C95.1293 34.1317 94.8185 34.0074 94.5076 33.7587L94.0724 34.0074C93.8548 34.1317 93.7304 34.3804 93.7304 34.6757C94.1346 34.8467 94.5542 35.3596 94.7407 35.7171H94.9273C95.1293 35.5306 95.2537 35.7171 95.378 35.5306ZM82.6483 52.659C82.5861 52.659 82.3996 52.4725 82.2131 52.4725C82.0421 52.8455 82.2131 53.0942 82.2131 53.5294C82.2131 53.7159 82.1509 53.9024 82.1509 53.9024C82.0421 53.9024 81.809 53.6537 81.7623 53.405V52.4103L82.2753 51.7419C82.6483 51.9751 82.7726 52.3481 82.6483 52.659ZM84.2337 51.9751C84.2337 52.2238 84.1715 52.4725 84.0472 52.659C83.985 52.4103 83.814 52.0994 83.5032 52.0994C83.2545 52.5968 83.1923 52.7833 83.441 53.5294C83.2545 53.7159 83.1301 53.7781 82.8814 53.9024C82.7571 53.6537 82.7571 53.2185 82.7571 52.9698C82.7571 52.5346 82.8193 52.0994 82.9436 51.7419C83.1301 51.5554 83.2545 51.2446 83.441 51.1047H84.0938C83.7985 51.1047 83.7985 51.3689 83.7985 51.5554C83.985 51.6176 84.2337 51.6798 84.2337 51.9751ZM86.4097 52.3481C86.4097 52.8455 85.6015 53.5294 85.6015 53.5294C85.6015 53.2185 85.788 52.8455 85.788 52.4725C85.788 52.4725 85.5393 52.2238 85.2906 52.2238C85.1041 52.3481 85.1041 52.4725 85.0419 52.659C84.8554 53.032 84.4824 53.405 84.4202 53.7781C84.358 53.7781 84.358 53.7159 84.358 53.7159C84.358 53.0942 84.4202 52.0373 84.7932 51.6176C85.1041 51.2446 85.3528 51.2446 85.7258 51.1824L86.0367 51.2446L85.788 51.6176C86.0367 51.7419 86.4097 51.9751 86.4097 52.3481ZM88.1039 51.7419L87.9329 52.3481L87.5288 51.2446C87.0314 50.8094 86.4719 50.7472 86.161 50.483C85.9123 50.4208 85.9123 50.6073 85.788 50.483C85.788 50.3586 85.788 50.1721 85.9745 49.9856H86.3475L86.7206 50.1721C86.9071 50.3586 87.3423 50.3586 87.3423 50.7316C87.3423 50.7938 87.2801 50.856 87.4666 51.1047L88.0417 51.2446L88.1039 51.7419ZM89.0365 50.8715L88.6013 51.2446C88.4769 51.1047 88.6013 50.8094 88.4147 50.6229C88.4147 50.4985 88.5391 50.4363 88.4769 50.3742C88.4147 50.2498 87.7153 50.0011 87.7153 50.0011C87.4822 49.8146 87.1713 49.6281 86.9226 49.3794C86.6739 49.3172 86.4874 49.4416 86.1766 49.5038V49.3794C86.3009 49.1307 86.3009 48.8199 86.6739 48.8199C86.8604 48.8199 87.1091 48.8199 87.2335 49.0064C87.4822 49.0064 87.6065 49.2551 87.7775 49.3172C88.0573 49.6281 88.3059 49.7524 88.4769 49.8768C88.4769 50.0633 88.5391 50.1876 88.6634 50.2498C89.0365 50.2498 88.9121 50.6228 89.0365 50.8715ZM89.3473 48.9442C89.3473 49.1307 89.2852 49.8768 89.2852 49.8768C89.1608 49.4416 88.8499 49.0064 88.4769 49.0064C88.2904 48.8199 88.1039 48.6333 88.0573 48.4468C87.8863 48.2603 87.7153 48.4468 87.4822 48.2603C87.2335 48.2603 86.9226 48.2603 86.6739 48.4468V48.2603L87.1091 47.7629C87.5443 47.8251 88.0573 47.7629 88.1816 48.0738C88.4925 48.2603 88.8033 48.4468 88.8655 48.5712V48.7577C88.9743 48.8199 89.223 48.882 89.3473 48.9442ZM89.0365 45.8045L88.7878 46.706C88.4769 46.9547 88.0573 46.8304 87.7153 46.8304C88.1661 46.706 88.5391 46.1776 88.7878 45.8045C88.8499 45.7423 88.9121 45.8045 89.0365 45.8045ZM88.1661 45.0585C88.1661 45.3071 88.0573 45.618 87.7775 45.9289C87.7153 45.991 87.5443 46.1154 87.5443 46.1154C87.5443 45.7423 87.7153 45.4315 87.7153 45.1206C87.8863 45.0585 88.0417 44.9341 88.1661 45.0585ZM87.4666 44.1259C87.1558 44.4367 86.8449 44.5611 86.7206 44.9341C86.7206 44.7631 86.6739 44.5922 86.5962 44.4367C86.6584 44.1881 86.8449 44.0637 86.9071 44.0015C87.0936 44.0637 87.2179 44.0637 87.4666 44.1259ZM91.943 48.8199C91.6943 49.0064 91.5078 49.0064 91.1969 48.9442L90.8239 48.4468H91.7565C91.772 48.4468 91.943 48.8199 91.943 48.8199ZM90.6996 45.991C90.5131 46.3641 90.3265 46.706 89.9535 46.8304C89.767 46.8304 89.4561 46.9547 89.0831 46.8304C89.2696 46.706 89.4561 46.6438 89.7048 46.4884L90.2022 45.991C90.2177 45.991 90.6996 45.991 90.6996 45.991ZM96.3728 52.4725L96.1862 52.659C95.9997 52.4725 96.1241 51.9751 95.8132 51.9129C95.5023 51.9129 95.2537 51.6176 95.1293 51.5554L95.378 51.4311C95.378 51.4311 95.5023 51.3689 95.6267 51.4311C95.751 51.5554 95.8754 51.6176 95.8754 51.7419C95.9997 51.9129 96.1862 51.7419 96.3106 51.9129C96.3728 52.115 96.4349 52.3481 96.3728 52.4725ZM91.8187 46.4884C91.7565 46.8304 91.57 46.9547 91.2591 47.3899C91.0726 47.5142 90.6996 47.5764 90.3265 47.7629C90.3887 47.5764 90.5752 47.5143 90.6996 47.3277C90.8239 47.1412 91.0726 46.8304 91.1348 46.6594C91.4612 46.4884 91.5855 46.4884 91.8187 46.4884ZM88.85 44.3124C88.4769 44.1881 88.0573 43.815 87.8863 43.5352C87.7775 43.3021 87.7309 43.0534 87.7153 42.7892C87.9485 42.7892 88.1039 42.9757 88.1661 43.1V43.1622C88.4769 43.5352 88.7878 43.815 88.85 44.3124ZM93.6216 48.7577H93.4973C93.4351 48.7577 92.9999 48.5712 92.8756 48.4468C92.8134 48.2603 92.8134 48.0738 92.8134 48.0738H93.3108L93.6216 48.7577ZM98.5177 51.6176C98.4555 51.7419 98.3312 52.0994 98.269 52.3481C98.1447 51.9751 98.0203 51.4311 97.5851 51.4311C97.5229 51.1824 97.4608 51.1047 97.2121 50.9337L96.7302 50.8715C96.7924 51.1202 97.1499 51.1202 96.9012 51.4311C97.1344 51.6176 97.3209 51.6176 97.4452 51.9129C97.5696 52.0994 97.4452 52.3481 97.5074 52.4725L97.1344 52.659C97.1344 52.3481 97.1965 51.7419 96.7924 51.6176C96.4194 51.7419 96.3572 51.2446 96.1085 51.1047C95.9842 51.1047 95.9842 50.7938 95.7977 50.9182C95.4868 51.1047 95.1138 50.9182 94.8029 51.1047L95.1138 50.6073C95.3625 50.4208 95.6111 50.483 95.8598 50.4208L96.3572 50.3586C96.8546 50.3586 97.2587 50.6073 97.7561 50.7938C98.0048 50.9182 98.1291 51.1047 98.1291 51.3689C98.269 51.4311 98.5177 51.4311 98.5177 51.6176ZM89.6582 43.3487L89.4717 44.1259C89.2852 43.7528 89.0986 43.4109 89.0365 42.9757L89.6582 43.3487ZM90.8395 45.1206C90.4664 44.7476 90.1556 44.4367 90.1556 44.0637C90.3421 44.0637 90.5286 44.0637 90.7151 44.1881C90.6996 44.4989 90.8395 44.7476 90.8395 45.1206ZM97.896 50.3742C97.6473 50.1876 97.2743 50.1876 97.1499 49.8768C96.9168 49.8146 96.7302 49.8146 96.4349 49.8146C96.1862 49.8768 95.8754 49.8768 95.6267 49.8768C95.5645 49.8768 95.6267 49.8146 95.5023 49.7524C95.1293 49.8768 94.7563 49.8768 94.3833 50.2498L94.6941 49.5038C94.9428 49.5038 95.1293 49.3794 95.2537 49.3794C95.5023 49.3172 95.6889 49.3172 95.8754 49.3172V49.3794C96.5593 49.3794 97.3364 49.3172 97.8338 49.8768L97.896 50.3742ZM94.1967 46.8304C94.0724 46.9547 93.746 47.079 93.4973 47.079C93.1243 46.7682 92.8756 46.4262 92.5026 45.9289L93.4973 46.1154C93.6838 46.2397 94.0258 46.6594 94.1967 46.8304ZM92.1295 44.1259C92.1295 44.5611 92.0673 45.1206 91.6321 45.3071L91.5078 44.6854C91.6943 44.5611 91.8808 44.4367 92.1295 44.1259ZM97.7716 49.1307C97.4608 49.1307 97.2121 49.1307 97.0256 48.8199C96.9634 48.8199 96.8546 48.6333 96.7924 48.7577C96.4816 49.0064 96.1707 48.5712 95.7977 48.6333C95.6111 48.8199 95.4246 48.9442 95.1138 49.0064V48.9442C95.1138 48.7577 95.2381 48.5712 95.4868 48.4468C95.8598 48.5712 96.1707 47.7629 96.5437 48.1981C96.7302 48.2603 96.9012 48.2603 97.0256 48.2603C97.4608 48.4468 97.5851 48.8199 97.7716 49.1307ZM99.2016 51.4311H99.1394C99.0151 51.2446 98.9529 51.1047 98.8285 51.1047C99.0151 50.4208 98.642 49.8612 98.5177 49.3017V49.1152C98.7042 49.426 99.2016 49.7369 99.1394 50.0478C99.2016 50.6228 99.2016 51.1202 99.2016 51.4311ZM93.4973 45.1206C93.1864 44.9341 92.6269 44.8719 92.7512 44.4989C92.8756 44.1881 93.0621 44.1259 93.1864 44.0015C93.2486 44.4367 93.3108 44.7476 93.4973 45.1206ZM87.1558 37.1315L86.8449 37.5046C86.9071 38.0952 86.6584 38.5304 86.6584 39.09L86.3475 38.0952C86.4097 37.8465 86.4719 37.6134 86.6584 37.3181L87.1558 37.1315ZM96.3728 46.4884H96.1862C95.5023 46.706 94.9428 46.3019 94.3833 45.9289C94.6941 45.8045 95.1293 45.7424 95.5023 45.7424L95.6889 46.1154C95.8754 46.1776 96.1862 46.3641 96.3728 46.4884ZM93.1864 41.4836C93.1243 41.8566 92.9999 42.4162 92.6269 42.6648C92.6269 42.4162 92.5026 42.2918 92.3782 42.1053C92.316 42.1053 92.3782 42.2918 92.316 42.2918C92.316 42.4162 92.1917 42.6648 92.1917 42.9135C92.0674 42.9757 91.8187 43.1 91.57 42.9757V42.7892C91.5078 42.6648 91.5078 42.4162 91.5078 42.2918L91.4456 42.2296C91.2591 42.2918 91.2591 42.4161 91.2591 42.5405C91.1969 42.6648 91.0726 42.7892 91.0726 42.9757C90.8239 42.9757 90.6996 42.9135 90.513 42.7892V42.2296C90.513 42.1053 90.513 42.1053 90.4509 42.1053L90.14 42.4161C89.8913 42.2296 89.8292 41.7323 89.8292 41.4214C90.8239 40.8619 92.0674 41.0484 92.8134 41.3592C92.9378 41.4214 93.0621 41.4214 93.1864 41.4836ZM94.9428 44.8719C94.6941 44.9341 94.2589 45.0585 94.1346 44.7476C93.7926 44.1881 93.9636 43.6907 94.1346 43.2866C94.2589 43.644 94.3211 44.0015 94.3833 44.3124C94.4454 44.5611 94.8185 44.6854 94.9428 44.8719ZM87.0314 36.2767L86.5962 36.401L86.6584 36.0902C86.7827 35.9036 86.8449 35.7171 87.0314 35.5306V36.2767ZM97.3986 45.8045C97.1499 45.8045 96.7302 45.8045 96.4971 45.618C96.1241 45.4315 95.9997 45.3071 95.8132 45.1206C96.0619 44.9341 96.3728 44.9341 96.4971 44.8719C96.7458 45.1206 96.9634 45.5558 97.3986 45.8045ZM95.6889 44.0637C95.378 44.1259 95.1293 43.815 94.8185 43.6907C94.6941 43.3487 94.6941 42.9757 94.5698 42.7892C94.8185 42.9757 95.378 42.9757 95.2537 43.5352C95.2537 43.6907 95.5024 43.815 95.6889 44.0637ZM100.771 48.4468C100.771 48.8199 100.523 49.1307 100.461 49.5038C100.461 49.1307 100.398 48.8199 100.15 48.5712C100.15 48.4468 100.321 48.4468 100.212 48.2603C100.212 48.2603 99.8699 48.0738 99.8699 47.8251C99.8699 47.5764 100.103 47.3899 100.212 47.2034C100.212 47.1412 100.461 47.3277 100.461 47.7008C100.461 47.7629 100.461 47.9495 100.398 48.0738C100.336 48.2603 100.771 48.2603 100.771 48.4468ZM102.201 49.1307C102.201 49.4416 101.828 49.8146 101.704 50.0633C101.828 49.7524 101.828 49.1307 101.704 49.1307C101.58 49.0686 101.331 49.1307 101.331 49.0064C101.331 48.8199 101.393 48.5712 101.393 48.4468C101.393 48.1981 101.207 48.0738 101.207 47.9495C101.207 47.5764 101.642 47.5143 101.766 47.2656C101.828 47.5143 101.828 47.7629 101.828 48.0738C101.828 48.1981 102.015 48.5712 101.828 48.882C101.828 49.0686 102.201 48.9442 102.201 49.1307ZM97.1499 43.3487C96.808 43.3487 96.3728 43.5352 96.1862 43.1622C96.3106 43.1 96.4349 42.9135 96.5593 42.7892L97.1499 43.3487ZM98.8907 44.7476L98.5799 44.8719C97.896 44.8719 97.5851 44.6854 97.2743 44.4367C97.5229 44.4367 97.8338 44.1259 97.8338 44.1259C98.1447 44.4367 98.5799 44.6854 98.8907 44.7476ZM96.3728 40.8618C95.6267 40.4577 94.8185 40.1469 93.917 40.0847C93.917 40.2712 93.917 40.4577 93.8548 40.5199C94.5698 40.8619 95.2537 41.1727 95.8754 41.7323V42.2918C95.2537 41.6701 94.5698 41.0484 93.7926 40.8618C93.7304 40.9862 93.4973 41.1105 93.4351 41.3592C92.9999 41.0484 92.5026 40.7375 92.0052 40.6753C91.8187 40.6753 91.6943 40.0225 91.6943 40.0225C92.0052 39.8982 92.1917 39.7117 92.316 39.4008H92.5647C92.7512 39.4008 92.7512 39.2765 92.7512 39.09C92.7512 38.7169 91.943 38.7169 91.57 38.7169C91.1348 38.7169 90.8239 38.7169 90.5752 38.9034C90.4509 38.9034 90.513 39.09 90.513 39.2143C90.513 39.2765 90.6996 39.4008 90.6996 39.4008C90.8239 39.4008 90.9483 39.2765 91.0726 39.2765C91.0104 39.6495 91.1348 39.836 91.5078 40.0225L91.4456 40.6287C90.6996 40.6287 90.2022 40.924 89.6426 41.1727C89.4561 41.0484 89.3318 40.8619 89.2074 40.6753C88.4614 40.924 87.2024 41.9188 87.2024 41.9188V41.4836C87.7464 40.9862 88.4614 40.7375 89.0209 40.4577V40.0225C88.7722 39.8982 88.5235 40.0225 88.2749 40.0225C87.7464 40.1002 87.249 40.3023 86.8294 40.6287C86.8294 40.4577 86.7672 40.209 86.7672 40.209C87.4511 39.836 88.2749 39.5252 89.0676 39.6495V39.4008C89.0054 39.2765 89.0054 39.09 88.881 39.09C88.508 38.7169 88.135 38.1574 88.135 37.7843L88.3837 37.66C88.2593 37.3025 88.135 36.3855 88.3837 36.0746C88.0262 35.8881 87.6842 35.5772 87.5599 35.3285C87.4355 35.0177 87.3112 34.8312 87.249 34.4892C87.4355 34.1162 87.5599 33.9918 87.7309 33.6188C87.8397 33.6188 88.0106 33.5566 88.0728 33.4323C88.3837 33.3701 88.5702 33.0593 88.9432 33.2458C89.1919 33.2458 89.4406 33.3701 89.6271 33.4323C89.6271 33.5566 89.6271 33.6188 89.7514 33.7432C90.1245 33.7432 90.1245 34.1162 90.311 34.4271C90.4975 34.4892 90.684 34.4892 90.8084 34.4892C91.1814 34.598 91.4923 34.598 91.6166 34.769C92.114 34.4892 92.6114 34.4271 93.1709 34.4892C93.2331 34.3027 93.3574 34.054 93.4196 33.7432C93.4818 33.9297 93.4818 33.7432 93.6061 33.7432C93.8392 33.5566 94.119 33.2458 94.5542 33.3701C94.8029 33.5566 95.2381 33.4323 95.4868 33.7432C95.6733 33.9919 95.7977 34.3649 95.9842 34.6447C95.7977 35.0021 95.9842 35.4995 95.6112 35.686L95.2381 36.0591C95.1138 36.0591 95.1138 36.1834 94.9273 36.1834C95.1138 36.6186 94.9894 37.2248 94.8029 37.6445C94.9273 37.5978 95.1138 37.5978 95.1138 37.4113C95.1759 37.4735 95.1138 37.5823 95.1138 37.6445V37.831C95.1138 38.1418 94.9273 38.4527 94.6786 38.7014C94.5542 39.0744 94.2434 39.5718 93.8392 39.634V39.7583C94.7407 39.7583 95.4868 40.007 96.3572 40.4422L96.3728 40.8618ZM101.144 46.8304C101.144 46.9547 100.958 47.079 100.896 47.079C100.896 47.079 100.585 46.7682 100.523 46.4884C100.461 46.2397 100.709 45.8045 100.709 45.8045C100.771 45.8045 100.834 45.9289 100.896 45.9289C100.958 45.991 100.896 46.1776 100.958 46.3641C101.144 46.4884 101.269 46.706 101.144 46.8304ZM106.134 51.1202C106.134 51.1513 106.009 51.2601 106.009 51.2601C105.73 51.1202 105.543 51.0736 105.17 51.0736C105.17 50.8249 104.984 50.514 104.859 50.514C104.486 50.514 104.548 50.7627 104.238 50.7627L104.797 50.2032C104.859 50.0788 104.859 50.0788 104.984 50.0788C105.17 50.2032 105.232 50.2654 105.419 50.2654C105.419 50.3897 105.419 50.4519 105.357 50.6384C105.543 50.7627 105.652 50.5762 105.776 50.7627C105.963 50.8094 106.134 50.8715 106.134 51.1202ZM100.336 45.4937C100.336 45.6802 100.212 45.7424 100.103 45.8667C100.103 45.8667 99.8699 45.5558 99.8699 45.4315C99.8699 45.1828 99.8699 45.0585 99.9321 44.8719C100.103 45.0585 100.336 45.3071 100.336 45.4937ZM102.761 47.3277C102.761 47.7008 102.699 48.136 102.699 48.5712C102.512 48.5712 102.512 48.4468 102.512 48.1981C102.45 47.8251 102.326 47.5143 102.201 47.1412C102.077 46.6594 101.766 46.2397 101.517 45.6802C101.455 45.4315 101.144 45.3071 100.896 45.1206C101.207 45.1206 101.517 45.1206 101.766 45.3693C101.766 45.4937 101.828 45.5558 102.015 45.7424C102.45 45.7424 102.326 46.3019 102.699 46.5506C102.512 46.706 102.45 46.8304 102.326 46.9547C102.512 47.079 102.699 47.1412 102.761 47.3277ZM99.5746 43.815C99.3881 44.0015 98.8907 44.0637 98.5177 43.7528L99.0151 43.5352C99.2016 43.6907 99.4503 43.7528 99.5746 43.815ZM98.2068 42.4161C98.1447 42.6648 97.896 42.4161 97.8338 42.4161H97.2743C97.2121 42.2918 97.1499 42.2296 97.1499 42.1053C97.3986 42.0431 97.5851 41.9188 97.7716 42.0431C97.896 42.2296 98.0203 42.4161 98.2068 42.4161ZM103.631 47.2656C103.631 47.5143 103.507 47.7008 103.569 47.9495C103.445 47.5764 103.196 47.2034 103.072 46.8304C103.072 46.7682 103.01 46.7682 103.134 46.706C103.196 46.706 103.445 46.706 103.445 46.7682C103.507 46.8925 103.631 47.079 103.631 47.2656ZM106.74 49.8146C106.74 50.0633 106.678 50.1255 106.616 50.4363C106.196 50.3742 106.196 49.8768 106.134 49.8146C105.838 49.4416 105.434 49.7524 105.123 49.7524C104.999 49.3794 105.186 49.3794 105.186 49.1307C105.372 49.1307 105.559 49.0064 105.73 49.1307C106.009 49.0064 106.196 49.3172 106.491 49.3172C106.553 49.4416 106.678 49.7524 106.74 49.8146ZM107.983 51.5554C107.859 51.7419 107.859 51.7419 107.797 51.9129C107.797 51.6176 107.424 51.4311 107.175 50.9182L107.424 50.483C107.61 50.6073 107.859 50.7938 107.859 51.1047C107.859 51.1047 107.797 51.2446 107.859 51.3689C107.859 51.4311 107.983 51.4311 107.983 51.5554ZM97.7716 41.0484C97.3986 41.0484 97.2121 40.8619 97.0256 40.5199C97.0256 40.3334 96.9634 40.0847 97.0256 39.7738C97.1499 40.0225 97.1499 40.1469 97.2743 40.2712C97.5229 40.1469 97.5229 40.4577 97.5851 40.5199C97.6473 40.6909 97.7716 40.8619 97.7716 41.0484ZM103.056 45.618C102.497 45.3071 102.186 44.7476 101.688 44.1881C102.186 44.1881 102.31 44.6854 102.683 44.7476C102.808 44.8719 102.932 44.9341 103.056 45.1206V45.618ZM106.926 49.1307C106.491 49.1307 106.74 48.2603 105.838 48.2603C105.667 48.2603 105.543 48.5712 105.294 48.6333C105.294 48.5712 105.357 48.1981 105.357 48.1981C105.357 48.0738 105.419 47.8251 105.652 47.7008C106.118 47.7008 105.994 47.8873 106.351 48.0116C106.538 48.0738 106.662 48.1981 106.911 48.1981L106.926 49.1307ZM108.419 49.939C108.419 50.312 108.419 50.4363 108.232 50.7472L107.859 50.1876C107.983 50.0011 107.983 49.7524 108.17 49.4416C108.232 49.4416 108.419 49.8768 108.419 49.939ZM96.4971 38.1107C96.4971 38.1729 96.3728 38.7325 96.3728 38.7325L95.8754 38.8568L96.1862 37.5201C96.3106 37.7377 96.4971 37.9709 96.4971 38.1107ZM107.237 47.7629C107.051 47.7008 106.616 47.6386 106.616 47.4521C106.616 47.2034 106.491 47.1412 106.196 47.1412C105.963 47.1412 105.792 47.2034 105.434 47.3277C105.434 47.3277 105.248 47.079 105.186 46.8304C105.31 46.7682 105.792 46.6438 106.025 46.6438C106.445 46.6438 106.88 46.6438 106.88 46.8304C106.864 47.079 107.237 47.1412 107.237 47.7629ZM107.797 46.4262C107.362 46.4262 106.926 46.3019 106.864 46.1154C106.74 45.991 106.864 45.7424 106.553 45.7424C106.429 45.7424 106.243 45.9289 106.243 45.9289C106.134 45.991 105.776 45.7423 105.776 45.9289C105.776 46.2397 105.543 46.3641 105.232 46.3641C105.108 46.3641 104.984 46.3641 104.859 46.3019V45.6802C105.652 45.6802 105.605 45.4315 105.947 45.4315C106.18 45.4315 106.351 45.5558 106.538 45.5558C106.849 45.5558 106.662 45.4315 106.973 45.4315C107.284 45.4315 107.408 45.6802 107.595 45.7424C107.61 45.9289 107.797 46.1776 107.797 46.4262ZM107.61 45.0585C107.113 44.7476 106.367 44.5611 105.963 44.5611C105.73 44.5611 104.999 44.8719 104.75 45.1206L104.626 44.5611C104.999 44.4989 104.999 44.1881 105.248 44.1881C105.434 44.1881 105.683 44.1259 105.854 44.1259C106.025 44.1259 106.149 44.0015 106.211 44.0015C106.507 44.0015 106.382 44.3124 106.569 44.3124C106.755 44.3124 106.88 44.1881 107.004 44.1881C107.299 44.1881 107.548 44.6854 107.61 45.0585ZM106.196 43.6907C105.838 43.6907 105.792 43.644 105.559 43.644C105.248 43.644 104.875 43.7528 104.688 44.0637C104.564 43.815 104.626 43.6907 104.688 43.5352C104.875 43.3487 105.186 43.1 105.434 43.1C105.838 43.1 106.196 43.4109 106.196 43.6907ZM106.243 42.7892C105.838 42.6648 105.605 42.4783 105.232 42.4783C105.108 42.4783 104.548 42.6648 104.486 42.7892C104.3 42.5405 104.611 42.0431 104.859 41.9188C105.108 41.7944 105.232 41.8566 105.357 41.9188C105.357 42.2918 105.776 42.1053 106.009 42.2296C106.134 42.4161 106.196 42.5405 106.243 42.7892ZM107.735 35.7171H107.051C106.926 35.5306 106.74 35.7171 106.616 35.7171C106.491 35.7171 106.429 35.7171 106.196 35.5306C106.553 35.5306 106.74 35.3441 107.066 35.2197C107.299 35.4063 107.548 35.4684 107.735 35.7171ZM109.6 37.0227C109.476 36.774 109.227 36.6497 109.04 36.6497C108.854 36.401 108.605 36.0902 108.356 36.0902C108.543 36.0902 108.792 35.9036 109.102 35.9036C109.227 36.2145 109.475 36.401 109.538 36.6497L109.6 37.0227ZM93.373 52.5968C93.3108 52.5968 93.4351 52.7212 92.8134 52.0994C92.6891 52.0994 92.5026 52.4725 92.5026 52.5968C92.5026 53.0942 92.6269 53.7781 92.8134 54.2755H93.3108C93.3108 53.7159 93.373 53.0942 93.373 52.5968ZM94.6941 52.659C94.6941 52.4103 94.5076 52.3481 94.2589 52.3481C94.1346 52.3481 93.8548 52.5346 93.8548 52.659C93.8548 52.9077 93.746 54.2755 93.746 54.2755H94.1501C94.3211 53.7159 94.6941 52.9698 94.6941 52.659ZM102.823 51.9129L102.201 51.9751C102.45 52.0994 102.45 52.4103 102.45 52.4725C102.45 52.659 102.326 52.8455 102.201 52.9698C102.077 52.8455 102.077 52.659 101.953 52.4725C101.828 52.4725 101.766 52.7833 101.766 52.9077C101.766 53.4672 102.015 53.9024 102.201 54.2755H102.761C102.699 53.7781 102.574 53.3429 102.574 52.7833C102.559 52.4725 102.761 52.115 102.823 51.9129ZM116.175 46.3019C116.175 43.5974 115.055 40.8619 113.066 38.9034C112.196 38.033 111.263 37.6134 110.501 36.7585C110.128 36.3855 109.849 36.0124 109.6 35.5151C109.289 35.2042 109.102 35.0177 108.729 34.8312C108.792 35.0177 108.854 35.2042 108.916 35.3907H108.854C108.543 35.3907 108.232 35.2042 107.983 35.0177L108.232 34.769C108.17 34.6447 107.983 34.6447 107.859 34.6447C106.864 34.4737 105.963 35.0021 104.999 35.2042V35.3285C105.621 35.5151 105.73 36.2611 106.072 36.6342H106.429C106.553 36.6342 106.74 36.7585 106.864 36.7585C106.864 36.6342 106.74 36.3855 106.74 36.3855C106.864 36.2611 106.989 36.2611 107.113 36.3855C107.424 36.572 107.859 36.2611 108.17 36.7585C107.797 36.7585 107.424 36.7585 107.113 36.945C107.113 37.0072 107.299 37.116 107.237 37.2403C106.926 37.116 106.553 37.2403 106.429 37.0072L106.367 37.0538C106.74 37.489 107.299 37.8465 107.859 38.033C108.667 38.1574 109.351 37.7843 110.128 37.9709C112.926 39.3386 114.916 42.5405 114.916 45.7268C114.916 50.2964 112.304 52.0994 110.688 52.0994C110.377 52.0994 109.895 51.9129 109.709 51.7419C109.895 51.1047 110.004 50.3586 110.004 49.2395C110.004 46.5972 108.963 43.7373 107.533 42.2763C106.849 41.5924 106.118 41.0328 105.341 41.0328C104.968 41.0328 104.595 41.0328 104.346 41.3437C104.035 41.5924 103.849 42.0897 103.911 42.4006C103.414 42.7736 102.605 42.9602 101.984 42.9602C101.3 42.9602 100.429 42.7115 99.6679 42.0897V41.1572C99.4814 41.095 98.8752 40.722 99.1705 40.4422C99.357 40.5044 99.4814 40.6132 99.5435 40.6598C99.4814 40.2557 99.4814 39.7583 99.1705 39.3853C99.0462 39.3853 98.8596 39.3853 98.6731 39.2609C98.4866 39.0744 98.3001 38.8257 98.3001 38.5149C98.4866 38.8257 98.7975 38.7014 98.984 38.8879C98.6731 38.1418 98.7975 37.831 98.2379 36.743C98.1136 36.1834 97.554 35.8726 97.181 35.4995C96.9945 35.3752 96.9323 35.1887 96.6992 35.1887C96.4505 35.1265 96.4505 34.8156 96.4505 34.6291C96.5126 34.6291 96.6992 34.7535 96.8235 34.8001C96.4505 33.9608 96.2018 33.0282 95.3935 32.5308L95.207 32.6552H94.2589C94.3833 32.5308 94.6319 32.4686 94.8185 32.3443C94.6319 32.1578 94.5076 32.0956 94.1346 32.0956C93.9636 32.1578 93.7304 32.3443 93.4973 32.3443H93.4351C93.4351 32.1578 93.373 31.9091 93.7304 31.7847C93.373 31.7226 93.0621 31.7226 92.6269 31.7847C92.5647 32.0956 92.3782 32.2821 92.3782 32.5308C92.1917 32.6552 92.1295 32.8417 91.943 33.0282C91.943 32.6552 92.1295 32.2821 92.1917 31.9091C91.943 31.9713 91.6321 32.1578 91.5078 32.1578C91.0104 31.9091 90.3887 31.6604 90.14 31.6604C90.513 31.9091 90.3265 32.3443 90.3887 32.6552L90.14 32.5308C90.0778 32.2821 89.767 32.0956 89.7048 31.7847C89.3318 31.7847 89.0831 31.9091 88.7722 32.0956V32.1578C88.9588 32.1578 89.2074 32.3443 89.3318 32.5308C88.8966 32.5308 88.5857 32.3443 88.1505 32.3443C88.1505 32.3443 88.1505 32.2821 88.0883 32.2821C87.9174 32.3443 87.7464 32.5308 87.6376 32.6552C87.2024 33.0282 86.8915 33.339 86.705 33.8986C86.8294 33.8986 87.0159 33.8986 87.078 33.9608C86.8294 34.0229 86.705 34.3338 86.4563 34.396V35.2975C86.2698 35.484 86.0211 35.6705 85.8968 36.0435C85.5859 37.0227 85.5237 38.1263 85.5237 39.3697C85.4616 39.6184 85.3372 39.6806 85.2129 39.7428V40.7064C85.2129 40.7064 85.5859 40.3645 85.7724 40.2401V41.0173C85.5237 41.0173 85.3372 41.3281 85.3372 41.5147C85.3372 41.7633 85.3994 42.012 85.3994 42.2607C85.3994 42.3851 85.3994 42.3851 85.4616 42.5094C85.4616 42.3851 85.5859 42.2607 85.7724 42.1985C85.7724 42.1985 85.8968 42.0742 86.1455 42.0742C85.959 42.2607 85.8968 42.5094 85.7724 42.7581L85.5859 42.9446C85.5859 42.9446 85.5237 43.069 85.5237 43.1311C85.7724 44.4057 86.1455 45.5247 86.6428 46.7371C86.1455 47.5453 85.5859 49.0996 85.2129 50.5762C84.902 50.2654 84.4668 50.2032 84.0938 50.2032C83.7518 50.2654 83.3788 50.3897 83.1301 50.7627C82.7571 50.5762 82.2597 50.6384 82.0266 50.8871C81.5137 51.3378 81.5137 51.571 81.5137 51.944C81.3893 52.0683 81.1406 52.3792 81.1406 52.8144C81.1406 53.374 81.2028 53.747 81.5137 54.2444H90.8395C90.7773 54.0578 90.6529 53.8092 90.5286 53.6848C90.3421 53.3118 90.4664 52.8144 90.4664 52.4414C90.6529 52.0683 90.8395 51.7109 91.0881 51.4C91.1503 51.2135 91.0881 51.2135 91.1503 51.1513L91.5855 51.0736C91.8342 51.0736 92.0207 50.8871 92.3316 50.8871C92.5181 51.1513 92.5181 50.7006 92.829 50.5762C93.5128 50.4519 94.1501 50.5762 94.5231 51.0736C94.5231 51.1513 94.5853 51.1513 94.5853 51.2135H94.2745C93.9325 51.0736 93.5128 50.9026 93.0776 51.0736C93.0776 51.2135 93.0155 51.2135 93.0155 51.4V51.7109C93.2642 51.7109 93.4507 51.944 93.6838 52.0683C93.7926 51.8818 94.1346 51.7109 94.3833 51.7109C94.6941 51.7109 95.1293 51.8818 95.1293 52.3792V53.0631C95.378 53.3118 95.6889 53.374 95.9997 53.4983C95.8754 53.747 95.6889 53.747 95.5023 53.747H95.005C94.9428 53.6848 94.8185 53.6848 94.8185 53.4983C94.6319 53.747 94.5076 53.9957 94.3833 54.2444H101.58C101.455 53.9957 101.331 53.8092 101.269 53.6848C101.144 53.3118 101.144 52.8144 101.144 52.4414L101.828 51.5243C102.201 51.5243 102.512 51.4 103.196 51.3378C103.32 51.1513 103.196 51.0736 103.756 51.0736C104.191 51.0736 104.502 51.1513 104.626 51.2135C104.688 51.3378 104.688 51.3378 104.626 51.4622C104.502 51.5865 104.253 51.3378 104.067 51.4C103.942 51.5243 104.129 51.5865 104.129 51.7109C104.253 51.8197 103.569 51.5865 103.569 51.5865C103.569 51.5865 103.445 51.944 103.383 52.0683C103.383 52.0683 103.631 52.317 103.756 52.4414C103.88 52.6279 103.569 52.8144 103.569 53.0009C103.445 52.9388 103.196 52.7522 103.196 52.8144C103.072 53.3118 103.196 53.747 103.134 54.2444H103.818L103.88 53.1874C103.942 52.5657 104.688 51.4622 105.123 51.4622C105.372 51.4622 105.559 51.5865 105.73 51.7109C105.838 51.944 106.134 52.0683 106.134 52.1927C106.134 52.317 105.963 52.3792 105.667 52.3792C105.543 52.3792 105.543 52.1927 105.372 52.0683L104.999 52.4414C104.999 52.4414 105.434 52.8144 105.434 53.0631C105.434 53.374 105.372 53.4983 105.186 53.6848L104.813 52.9388C104.626 52.9388 104.315 53.3118 104.315 53.4983C104.315 53.747 104.191 53.8713 104.191 54.2444H107.999C108.434 54.2444 108.807 54.12 109.242 53.8713H109.988C111.527 53.8713 112.708 53.4361 113.828 52.317C115.304 50.9337 116.175 48.5712 116.175 46.3019ZM92.316 54.2755C92.0052 53.7159 91.943 52.8455 91.943 52.659C91.943 52.3481 91.943 51.9129 92.1295 51.6176L91.4456 51.7419C91.2591 51.9751 91.1969 52.0994 91.1969 52.2238L91.5078 52.0994C91.57 52.0994 91.6321 52.2238 91.6943 52.3481C91.6321 52.659 91.2591 52.659 91.1348 52.7833C90.9483 53.405 91.5078 53.7781 91.57 54.2755C91.5855 54.2755 92.316 54.2755 92.316 54.2755Z" fill="black"/>
</svg>
