<svg width="139" height="87" viewBox="0 0 139 87" fill="none" xmlns="http://www.w3.org/2000/svg">
<path d="M93.947 35.9399H89.1179C89.0686 35.9401 89.0213 35.9598 88.9864 35.9947C88.9515 36.0296 88.9318 36.0768 88.9316 36.1262V56.1305C88.9318 56.1798 88.9515 56.2271 88.9864 56.262C89.0213 56.2969 89.0686 56.3166 89.1179 56.3168H93.947C93.9963 56.3166 94.0436 56.2969 94.0785 56.262C94.1134 56.2271 94.133 56.1798 94.1332 56.1305V36.1269C94.1349 36.102 94.1312 36.0771 94.1224 36.0537C94.1136 36.0303 94.1 36.0091 94.0823 35.9914C94.0647 35.9737 94.0436 35.9599 94.0202 35.9511C93.9969 35.9422 93.9719 35.9384 93.947 35.9399Z" fill="#111111"/>
<path d="M51.795 51.0987H48.1785C47.8882 51.0986 47.601 51.04 47.3338 50.9267C47.0666 50.8133 46.8249 50.6473 46.6232 50.4387C46.4214 50.23 46.2636 49.9829 46.1593 49.7121C46.0549 49.4413 46.006 49.1522 46.0156 48.8621V41.0894H49.5203C49.5696 41.0892 49.6169 41.0695 49.6518 41.0346C49.6867 40.9997 49.7063 40.9525 49.7066 40.9032V36.1311C49.7063 36.0818 49.6867 36.0345 49.6518 35.9997C49.6169 35.9648 49.5696 35.9451 49.5203 35.9449H46.033V29.7573C46.033 29.4966 45.7723 29.3658 45.6415 29.552L40.8861 33.82C40.8606 33.8475 40.8408 33.8798 40.8281 33.9151C40.8153 33.9504 40.8097 33.9878 40.8116 34.0253V35.9449H37.4773C37.4279 35.9451 37.3807 35.9648 37.3458 35.9997C37.3109 36.0345 37.2912 36.0818 37.291 36.1311V40.9C37.2912 40.9493 37.3109 40.9966 37.3458 41.0315C37.3807 41.0663 37.4279 41.086 37.4773 41.0862H40.8148V48.6909C40.7967 49.7066 40.9871 50.7152 41.3743 51.6543C41.749 52.5526 42.2864 53.374 42.9594 54.0772C43.6292 54.7658 44.4272 55.3167 45.3086 55.6988C46.2138 56.0943 47.1914 56.2976 48.1793 56.2956H51.795C51.8443 56.2954 51.8916 56.2757 51.9264 56.2408C51.9613 56.2059 51.981 56.1587 51.9812 56.1093V51.2826C51.9804 51.2337 51.9604 51.187 51.9256 51.1527C51.8908 51.1183 51.8439 51.0989 51.795 51.0987Z" fill="#111111"/>
<path d="M65.0468 35.6238C65.0961 35.624 65.1434 35.6437 65.1783 35.6786C65.2132 35.7134 65.2328 35.7607 65.2331 35.81V40.1541C65.2328 40.2034 65.2132 40.2507 65.1783 40.2856C65.1434 40.3204 65.0961 40.3401 65.0468 40.3403H64.45C63.6997 40.3544 62.9602 40.5221 62.2772 40.8332C61.5942 41.1443 60.9823 41.5921 60.4792 42.149L60.442 42.1862C60.4047 42.2425 60.3485 42.2797 60.3112 42.3352C60.255 42.3915 60.2177 42.466 60.1622 42.5215C59.4502 43.4613 59.0582 44.6047 59.0439 45.7837V56.1306C59.0437 56.18 59.024 56.2272 58.9891 56.2621C58.9542 56.297 58.907 56.3167 58.8577 56.3169H54.0476C53.9982 56.3167 53.951 56.297 53.9161 56.2621C53.8812 56.2272 53.8615 56.18 53.8613 56.1306V36.1271C53.8615 36.0777 53.8812 36.0305 53.9161 35.9956C53.951 35.9607 53.9982 35.941 54.0476 35.9408H58.8759C58.9252 35.941 58.9725 35.9607 59.0074 35.9956C59.0422 36.0305 59.0619 36.0777 59.0621 36.1271V38.569C59.6606 37.7051 60.4521 36.9924 61.3738 36.4876C62.2955 35.9827 63.3221 35.6994 64.3723 35.6602L65.0468 35.6238Z" fill="#111111"/>
<path d="M86.9572 35.9402H82.1107C82.0614 35.9404 82.0141 35.9601 81.9792 35.9949C81.9444 36.0298 81.9247 36.0771 81.9245 36.1264V38.5834C81.1851 37.629 80.2305 36.8629 79.1386 36.3478C78.0468 35.8326 76.8485 35.583 75.6418 35.6192C69.7506 35.7499 65.7799 40.9698 65.7054 45.8544C65.645 47.2211 65.8563 48.5863 66.3272 49.8708C66.798 51.1553 67.519 52.3337 68.4484 53.3377C69.3777 54.3416 70.497 55.1513 71.7415 55.7197C72.9859 56.2881 74.3307 56.604 75.6981 56.6491C76.9018 56.7116 78.1019 56.4693 79.1871 55.9447C80.2723 55.42 81.2076 54.6299 81.9062 53.6477V56.1086C81.9064 56.1579 81.9261 56.2052 81.961 56.24C81.9959 56.2749 82.0431 56.2946 82.0925 56.2948H86.9398C86.9891 56.2946 87.0364 56.2749 87.0713 56.24C87.1062 56.2052 87.1259 56.1579 87.1261 56.1086V36.1264C87.1304 36.1025 87.1292 36.0779 87.1225 36.0546C87.1158 36.0312 87.1039 36.0097 87.0875 35.9917C87.0712 35.9737 87.051 35.9597 87.0284 35.9507C87.0058 35.9418 86.9815 35.9382 86.9572 35.9402ZM76.4986 51.8057C75.0285 51.7759 73.6302 51.1647 72.6099 50.106C71.5896 49.0472 71.0306 47.6273 71.0552 46.1571C71.0287 45.4257 71.1499 44.6964 71.4116 44.0128C71.6732 43.3292 72.07 42.7054 72.5781 42.1785C73.0862 41.6517 73.6952 41.2327 74.3689 40.9464C75.0426 40.6602 75.767 40.5127 76.4989 40.5127C77.2309 40.5127 77.9553 40.6602 78.629 40.9464C79.3026 41.2327 79.9117 41.6517 80.4198 42.1785C80.9279 42.7054 81.3247 43.3292 81.5863 44.0128C81.848 44.6964 81.9692 45.4257 81.9427 46.1571C81.9642 47.6265 81.404 49.0448 80.3842 50.1029C79.3644 51.161 77.9677 51.7731 76.4986 51.8057Z" fill="#111111"/>
<path d="M93.7186 29.3602L89.002 33.5917C88.853 33.778 88.9648 34.095 89.17 34.095H93.8866C94.0546 34.095 94.1291 34.026 94.1291 33.8398V29.5647C94.1069 29.3039 93.8692 29.1732 93.7186 29.3602Z" fill="#111111"/>
<path d="M101.165 33.7588C101.167 33.7213 101.162 33.6839 101.149 33.6486C101.136 33.6134 101.116 33.581 101.091 33.5535L96.4114 29.3601C96.2624 29.1738 96.0199 29.3038 96.0199 29.5653V56.1068C96.0183 56.1316 96.0221 56.1565 96.031 56.1798C96.0398 56.2031 96.0535 56.2242 96.0711 56.2418C96.0887 56.2594 96.1098 56.2731 96.1331 56.2819C96.1564 56.2907 96.1813 56.2945 96.2061 56.293H100.997C101.022 56.2945 101.047 56.2907 101.07 56.2819C101.093 56.2731 101.115 56.2594 101.132 56.2418C101.15 56.2242 101.163 56.2031 101.172 56.1798C101.181 56.1565 101.185 56.1316 101.183 56.1068V34.0941L101.165 33.7588Z" fill="#111111"/>
</svg>
