<svg width="139" height="87" viewBox="0 0 139 87" fill="none" xmlns="http://www.w3.org/2000/svg">
<path d="M8.60742 35.4287C8.60742 33.9211 9.7846 32.7041 11.2387 32.7041H26.0919V34.9564C26.0919 36.464 24.9147 37.681 23.4605 37.681H8.60742V35.4287Z" fill="black"/>
<path d="M8.60742 42.3383C8.60742 41.3393 9.38643 40.522 10.3732 40.522H20.8812V42.7924C20.8812 44.3 19.704 45.517 18.2498 45.517H8.60742V42.3383Z" fill="black"/>
<path d="M8.60742 49.248C8.60742 48.7394 9.00559 48.3398 9.4903 48.3398H15.6301V50.6102C15.6301 52.1178 14.4529 53.3348 12.9987 53.3348H8.60742V49.248Z" fill="black"/>
<path d="M86.0253 40.8296L85.9443 40.9569V49.3563L86.0253 49.4411H87.9254L88.0064 49.3563V40.9569L87.9254 40.8296H86.0253Z" fill="black"/>
<path d="M86.0654 39.3031C86.3083 39.5576 86.6314 39.6424 86.9954 39.6424C87.3594 39.6424 87.6832 39.5152 87.9254 39.2607C88.1683 39.0061 88.2894 38.6668 88.2894 38.3274C88.2894 37.988 88.1683 37.6911 87.9254 37.4365C87.6832 37.182 87.3594 37.0972 86.9954 37.0972C86.6314 37.0972 86.3083 37.2244 86.0654 37.479C85.8232 37.7335 85.7021 38.0304 85.7021 38.3698C85.7021 38.7516 85.8232 39.0486 86.0654 39.3031Z" fill="black"/>
<path d="M69.225 37.5645H67.3652L67.2843 37.6493V41.7217C67.0013 41.4248 66.6779 41.1703 66.2736 41.0006C65.8289 40.7885 65.3033 40.7036 64.7776 40.7036C64.0095 40.7036 63.2817 40.8733 62.6349 41.2551C62.0283 41.6369 61.5027 42.1459 61.1389 42.7823C60.775 43.4611 60.6133 44.2246 60.6133 45.073C60.6133 45.9214 60.775 46.7275 61.1389 47.4062C61.5027 48.085 61.9879 48.594 62.6349 48.9334C63.2817 49.3152 63.969 49.4848 64.7776 49.4848C65.3437 49.4848 65.8693 49.4 66.314 49.1879C66.7183 49.0182 67.0417 48.7637 67.3652 48.4667V49.3152L67.446 49.4H69.2655L69.3463 49.3152V37.6493L69.225 37.5645ZM67.2843 45.1579C67.2843 45.667 67.163 46.1335 66.9609 46.5154C66.7587 46.8972 66.4757 47.1941 66.1523 47.4062C65.7884 47.6183 65.4246 47.7031 64.9798 47.7031C64.535 47.7031 64.1712 47.6183 63.8073 47.4062C63.4434 47.1941 63.2009 46.8972 62.9987 46.5154C62.7966 46.1335 62.6753 45.667 62.6753 45.1579C62.6753 44.6488 62.7966 44.1822 62.9987 43.8004C63.2009 43.4186 63.4839 43.1217 63.8073 42.9095C64.1712 42.6974 64.535 42.5702 64.9798 42.5702C65.4246 42.5702 65.7884 42.6974 66.1523 42.9095C66.5162 43.1217 66.7587 43.4186 66.9609 43.8004C67.163 44.1822 67.2843 44.6488 67.2843 45.1579Z" fill="black"/>
<path d="M40.0713 38.2427H32.4299L32.3086 38.3275V49.357L32.4299 49.4419H34.3706L34.4515 49.357V45.2422H39.4244L39.5457 45.115V43.4181L39.4244 43.2908H34.4515V40.1516H40.0713L40.1926 40.0668V38.3275L40.0713 38.2427Z" fill="black"/>
<path d="M49.2086 40.8311H47.3488L47.2679 40.916V45.158C47.2679 45.9641 47.0658 46.558 46.7019 46.9822C46.3381 47.4064 45.8124 47.6185 45.1655 47.6185C44.5995 47.6185 44.1548 47.4488 43.8314 47.1095C43.5079 46.7701 43.3866 46.2186 43.3866 45.455V40.9583L43.3057 40.8735H41.4459L41.2842 40.9583V45.752C41.2842 46.9822 41.6076 47.9579 42.2141 48.5942C42.861 49.2305 43.7101 49.5699 44.8016 49.5699C45.3272 49.5699 45.8528 49.485 46.2976 49.2729C46.7019 49.1033 47.0254 48.8487 47.3084 48.5518V49.4002L47.3892 49.485H49.1682L49.2491 49.4002V40.9583L49.2086 40.8311Z" fill="black"/>
<path d="M58.3678 41.7218C57.7613 41.0854 56.9123 40.7461 55.8611 40.7461C55.2546 40.7461 54.729 40.8309 54.2438 41.043C53.8395 41.2127 53.4756 41.4672 53.1926 41.7641V40.9157L53.1118 40.8309H51.3328L51.252 40.9157V49.3151L51.3328 49.4H53.1926L53.2735 49.3151V45.0731C53.2735 44.267 53.4756 43.6731 53.8395 43.2489C54.2034 42.8247 54.7695 42.6126 55.4163 42.6126C55.9824 42.6126 56.4675 42.7823 56.7505 43.1641C57.074 43.5035 57.2357 44.0549 57.2357 44.7761V49.3576L57.3166 49.4424H59.1764L59.2572 49.3576V44.5215C59.3381 43.2914 59.0146 42.3581 58.3678 41.7218Z" fill="black"/>
<path d="M75.9585 40.7461C74.7052 40.7461 73.7752 41.1278 73.2092 41.8914V40.9582L73.1284 40.8733H71.3494L71.2686 40.9582V49.3576L71.3494 49.4424H73.2092L73.2901 49.3576V45.2852C73.2901 44.4791 73.4922 43.8428 73.8965 43.4186C74.3009 42.9944 74.8265 42.7823 75.5542 42.7823C75.6755 42.7823 75.8372 42.7823 75.9585 42.8247L76.0798 42.7399V40.8733L75.9585 40.7461Z" fill="black"/>
<path d="M83.2356 41.6793C82.5893 41.0854 81.6594 40.7461 80.4865 40.7461C79.8398 40.7461 79.1928 40.8309 78.5864 41.0006C77.9799 41.1703 77.4544 41.4672 77.0501 41.8066L77.0096 41.9339L77.7374 43.3762L77.8586 43.4186C78.1416 43.1641 78.5055 42.952 78.9098 42.8247C79.3546 42.6974 79.7993 42.6126 80.2034 42.6126C80.8504 42.6126 81.3355 42.7823 81.6185 43.0792C81.9424 43.3762 82.1036 43.8004 82.1036 44.3519V44.3943H80.1225C78.9502 44.3943 78.1012 44.6488 77.5352 45.1154C76.9692 45.5821 76.7266 46.2184 76.7266 46.982C76.7266 47.4911 76.8479 47.9577 77.0905 48.3395C77.3331 48.7213 77.6969 49.0607 78.1821 49.2728C78.6268 49.4849 79.1928 49.6121 79.7993 49.6121C80.4055 49.6121 80.9314 49.5272 81.3763 49.3151C81.7403 49.1455 82.0233 48.9334 82.2254 48.6364V49.4L82.3063 49.4849H84.0846L84.1656 49.4V44.4367C84.2065 43.2065 83.8826 42.2732 83.2356 41.6793ZM82.1444 45.8366V46.685C81.9825 47.0669 81.7403 47.3638 81.4165 47.6183C81.0525 47.8304 80.6484 47.9577 80.2034 47.9577C79.7589 47.9577 79.395 47.8728 79.112 47.6607C78.8694 47.4486 78.7481 47.1941 78.7481 46.8971C78.7481 46.2184 79.2333 45.879 80.2844 45.879H82.1444V45.8366Z" fill="black"/>
<path d="M96.4008 45.4124C96.1178 45.0731 95.7538 44.8185 95.3088 44.6912C94.9047 44.564 94.3796 44.4367 93.7326 44.3094C93.0856 44.1822 92.6407 44.0549 92.3175 43.97C92.0345 43.8428 91.9127 43.6731 91.9127 43.3762C91.9127 43.1216 92.0345 42.9095 92.2767 42.7823C92.5597 42.6126 92.9645 42.5277 93.4897 42.5277C94.3387 42.5277 95.0667 42.7399 95.7538 43.1641L95.8749 43.1216L96.6028 41.6369L96.5627 41.5097C96.1987 41.2976 95.7538 41.0854 95.1878 40.9582C94.6217 40.8309 94.0557 40.7461 93.5305 40.7461C92.4386 40.7461 91.5495 41.0006 90.9025 41.4672C90.2555 41.9762 89.9316 42.6126 89.9316 43.461C89.9316 44.0973 90.0935 44.6064 90.4174 44.9458C90.7405 45.2852 91.1045 45.5396 91.5495 45.6669C91.9535 45.7942 92.5196 45.9215 93.1666 46.0487C93.7727 46.1336 94.2578 46.2608 94.5007 46.3881C94.7428 46.4729 94.8646 46.6426 94.8646 46.8971C94.8646 47.4486 94.3387 47.7455 93.2876 47.7455C92.8026 47.7455 92.3175 47.6607 91.7916 47.5334C91.3066 47.3638 90.8616 47.1941 90.5385 46.9396L90.4174 46.982L89.6895 48.4667L89.7296 48.594C90.0935 48.8909 90.6195 49.103 91.2256 49.2728C91.8325 49.4424 92.5196 49.5272 93.1666 49.5272C94.2986 49.5272 95.2286 49.2728 95.8749 48.8061C96.5627 48.297 96.8858 47.6607 96.8858 46.8547C96.8858 46.2608 96.7239 45.7517 96.4008 45.4124Z" fill="black"/>
<path d="M105.865 42.8671C105.501 42.1884 105.016 41.6793 104.409 41.2976C103.803 40.9157 103.075 40.7461 102.267 40.7461C101.458 40.7461 100.73 40.9157 100.084 41.2976C99.4365 41.6793 98.9106 42.1884 98.5467 42.8671C98.1827 43.5458 98.0215 44.267 98.0215 45.1154C98.0215 45.9638 98.2235 46.7275 98.5875 47.4062C98.9515 48.0849 99.5175 48.594 100.164 48.9758C100.852 49.3576 101.66 49.5272 102.55 49.5272C103.237 49.5272 103.884 49.4 104.45 49.1879C105.016 48.9334 105.501 48.594 105.865 48.1274V48.0001L104.854 46.7699H104.733C104.167 47.3638 103.48 47.6607 102.631 47.6607C101.943 47.6607 101.377 47.4911 100.933 47.1517C100.528 46.8123 100.245 46.3881 100.124 45.8366H106.31L106.39 45.7517C106.39 45.4973 106.431 45.2852 106.431 45.1579C106.39 44.3094 106.188 43.5458 105.865 42.8671ZM100.084 44.3943C100.164 43.8428 100.407 43.4186 100.771 43.0792C101.175 42.6974 101.66 42.5277 102.226 42.5277C102.792 42.5277 103.318 42.6974 103.682 43.0792C104.046 43.4186 104.288 43.8428 104.369 44.3943H100.084Z" fill="black"/>
<path d="M118.709 38.2427H116.768L116.688 38.3275V44.4786C116.688 46.5997 115.838 47.6178 114.1 47.6178C112.361 47.6178 111.512 46.5997 111.512 44.4786V38.3275L111.431 38.2427H109.491L109.41 38.3275V44.5635C109.41 46.1755 109.814 47.4481 110.663 48.2965C111.472 49.1449 112.644 49.6116 114.1 49.6116C115.555 49.6116 116.728 49.1874 117.537 48.2965C118.345 47.4057 118.79 46.1755 118.79 44.5635V38.3275L118.709 38.2427Z" fill="black"/>
<path d="M128.695 42.8658C128.331 42.1871 127.846 41.678 127.199 41.3386C126.593 40.9568 125.865 40.7871 125.056 40.7871C124.49 40.7871 123.964 40.872 123.52 41.0841C123.115 41.2538 122.792 41.5083 122.509 41.8052V40.9568L122.428 40.872H120.649L120.568 40.9568V52.4106L120.649 52.4954H122.509L122.59 52.4106V48.5502C123.237 49.229 124.045 49.526 125.056 49.526C125.865 49.526 126.552 49.3562 127.199 48.9745C127.846 48.5927 128.331 48.0836 128.695 47.4049C129.059 46.7261 129.221 45.9626 129.221 45.0717C129.221 44.1809 129.019 43.5021 128.695 42.8658ZM127.118 45.1565C127.118 45.9201 126.916 46.5564 126.471 46.9807C126.067 47.4473 125.501 47.6594 124.854 47.6594C124.409 47.6594 124.045 47.5745 123.681 47.3624C123.318 47.1503 123.075 46.8534 122.873 46.4716C122.671 46.0898 122.549 45.6232 122.549 45.1141C122.549 44.6051 122.671 44.1384 122.873 43.7567C123.075 43.3748 123.358 43.0779 123.681 42.8658C124.045 42.6537 124.409 42.5264 124.854 42.5264C125.501 42.5264 126.067 42.7809 126.471 43.2052C126.916 43.7567 127.118 44.393 127.118 45.1565Z" fill="black"/>
</svg>
