<svg width="139" height="87" viewBox="0 0 139 87" fill="none" xmlns="http://www.w3.org/2000/svg">
<path d="M34.3564 35.7009H37.1007L41.4228 45.8749H41.4929L45.7449 35.7009H48.4892V49.0969H46.6367V38.0749H46.6017L42.0396 49.132H40.8053L36.2429 38.1089H36.2079V49.131H34.3564V35.7009Z" fill="black"/>
<path d="M50.7549 40.2232L52.6074 39.5699V49.1956H50.7549V40.2232Z" fill="black"/>
<path d="M54.9424 35.7007H59.6761C60.5227 35.692 61.3661 35.8062 62.18 36.0397C62.8434 36.2377 63.4777 36.5227 64.0665 36.8875C64.5831 37.2228 65.036 37.6476 65.4041 38.142C65.7432 38.5761 66.0202 39.0554 66.2272 39.5661C66.4225 40.0365 66.5719 40.5249 66.6731 41.0242C66.7527 41.4723 66.7986 41.9256 66.8104 42.3806C66.8068 43.2286 66.6439 44.0684 66.3302 44.856C66.0214 45.6618 65.5419 46.3909 64.9246 46.993C64.2594 47.648 63.4648 48.1562 62.5919 48.4852C61.5739 48.8757 60.4918 49.0712 59.4018 49.0615H54.9424V35.7007ZM56.7606 47.4002H59.0932C59.8358 47.4034 60.575 47.3006 61.2886 47.0948C61.9518 46.903 62.57 46.5801 63.1068 46.1453C63.6358 45.7305 64.0591 45.1959 64.3418 44.5853C64.6596 43.9074 64.8124 43.1636 64.7877 42.415C64.789 41.9104 64.7197 41.4081 64.5817 40.9228C64.4389 40.3296 64.1697 39.7743 63.7926 39.2951C63.3539 38.746 62.805 38.2954 62.1814 37.9725C61.3481 37.5726 60.4288 37.3861 59.5058 37.4298H56.7606V47.4002Z" fill="black"/>
<path d="M83.6863 41.6007V48.2181C83.3224 48.4261 82.9441 48.6076 82.5543 48.7611C82.1292 48.9167 81.6935 49.0414 81.2506 49.1343C80.8047 49.2361 80.3245 49.3038 79.8787 49.3719C79.4328 49.407 79.0213 49.4397 78.575 49.4397C77.5168 49.4689 76.4645 49.2724 75.4879 48.8629C74.6337 48.5205 73.862 47.9998 73.2239 47.3356C72.611 46.6903 72.1329 45.9288 71.8176 45.0958C71.4897 44.2289 71.3269 43.308 71.3374 42.381C71.3355 41.4294 71.51 40.4858 71.8519 39.5981C72.1845 38.7659 72.6735 38.0055 73.2925 37.3582C73.9257 36.7125 74.6847 36.2043 75.5222 35.865C76.4387 35.4991 77.4173 35.3147 78.4038 35.322C79.4418 35.2916 80.4766 35.4527 81.4566 35.7973C82.2106 36.0666 82.8917 36.5081 83.446 37.0869L82.1424 38.4784C81.6406 37.9738 81.0305 37.5908 80.3585 37.3586C79.7149 37.1554 79.0439 37.0524 78.3691 37.0532C77.6765 37.0351 76.9879 37.1649 76.3493 37.434C75.7106 37.7032 75.1364 38.1055 74.6648 38.6142C74.2267 39.1161 73.8785 39.6901 73.6358 40.311C73.3917 40.9744 73.2641 41.6751 73.2585 42.382C73.2593 43.1028 73.3991 43.8167 73.6701 44.4843C73.9084 45.1232 74.2831 45.7023 74.7678 46.1811C75.2497 46.6611 75.8209 47.0415 76.449 47.3009C77.1131 47.5726 77.8241 47.7109 78.5414 47.7081C79.1625 47.7021 79.782 47.6454 80.3939 47.5385C80.9074 47.441 81.4042 47.2696 81.8688 47.0296V43.2975H78.8503V41.6007H83.6863Z" fill="black"/>
<path d="M90.7363 35.7009H92.4175L98.2145 49.0962H96.0535L94.6815 45.7728H88.2319L86.8943 49.0962H84.7676L90.7363 35.7009ZM94.0286 44.2128L91.4925 38.0749H91.4574L88.8848 44.2469L94.0286 44.2128Z" fill="black"/>
<path d="M100.095 37.4304H95.7383V35.7009H106.303V37.3967H101.947V49.0966H100.094L100.095 37.4304Z" fill="black"/>
<path d="M112.515 49.4744C111.539 49.4816 110.572 49.2971 109.668 48.9313C108.83 48.5921 108.071 48.0838 107.438 47.4381C106.808 46.7999 106.317 46.0371 105.997 45.1982C105.277 43.4133 105.277 41.4177 105.997 39.6328C106.33 38.8006 106.819 38.0402 107.438 37.393C108.071 36.7473 108.83 36.239 109.668 35.8997C111.499 35.1871 113.53 35.1871 115.362 35.8997C116.199 36.2389 116.958 36.7472 117.592 37.393C118.222 38.0311 118.713 38.794 119.032 39.6328C119.718 41.4243 119.718 43.4068 119.032 45.1982C118.7 46.0305 118.211 46.7909 117.592 47.4381C116.959 48.0838 116.2 48.5921 115.362 48.9313C114.458 49.3002 113.49 49.4848 112.515 49.4744ZM112.515 47.7775C113.207 47.7924 113.895 47.6611 114.533 47.3922C115.171 47.1232 115.746 46.7227 116.219 46.2166C116.658 45.7147 117.006 45.1406 117.249 44.5197C117.729 43.1816 117.729 41.7176 117.249 40.3794C117.006 39.7585 116.658 39.1845 116.219 38.6826C115.296 37.7051 114.026 37.1319 112.684 37.0874C111.341 37.0429 110.036 37.5307 109.05 38.445C108.962 38.5153 108.881 38.595 108.81 38.6826C108.372 39.1845 108.024 39.7585 107.781 40.3794C107.301 41.7176 107.301 43.1816 107.781 44.5197C108.024 45.1406 108.372 45.7147 108.81 46.2166C109.288 46.7165 109.864 47.1129 110.501 47.3814C111.138 47.6498 111.823 47.7847 112.514 47.7775H112.515Z" fill="black"/>
<path d="M121.057 35.7011H125.825C126.56 35.6781 127.293 35.7931 127.986 36.0402C128.487 36.2403 128.942 36.5403 129.324 36.922C129.643 37.2704 129.878 37.6882 130.01 38.1428C130.131 38.5623 130.2 38.995 130.216 39.4314C130.223 40.2865 129.903 41.112 129.323 41.7387C129.023 42.0752 128.662 42.3515 128.259 42.5527C127.836 42.785 127.368 42.9237 126.887 42.9595L130.729 49.0634H128.431L125.001 43.1628H122.942V49.0634H121.092L121.057 35.7011ZM122.875 41.6018H125.276C125.619 41.6018 125.996 41.5667 126.339 41.534C126.664 41.4893 126.978 41.386 127.265 41.229C127.538 41.0785 127.763 40.8554 127.917 40.5845C128.101 40.2417 128.184 39.8537 128.157 39.4655C128.164 39.0789 128.082 38.6961 127.917 38.3464C127.763 38.0755 127.538 37.8525 127.265 37.7019C126.98 37.54 126.665 37.4364 126.339 37.3969C125.99 37.3238 125.632 37.301 125.276 37.3292H122.875V41.6018Z" fill="black"/>
<path d="M52.6072 38.5741L50.7891 39.227V36.3051L52.6072 35.6519V38.5741Z" fill="black"/>
<path d="M68.0469 40.2233L69.899 39.5701V49.1957H68.0469V40.2233Z" fill="black"/>
<path d="M69.8992 38.5742L68.0811 39.2271V36.3052L69.8992 35.652V38.5742Z" fill="black"/>
<path d="M3.28418 48.3222L13.8072 54.3559L24.2889 48.3222L24.3302 36.2551L13.8072 30.2214L3.28418 36.2551V48.3222Z" fill="white"/>
<path d="M13.8076 48.5246V41.3698L22.5149 36.3242L22.7626 49.1863L17.1914 52.3708L13.8076 48.5246Z" fill="#F1F1F2"/>
<path d="M3.28418 36.1951V48.3541L6.09041 49.967V37.7666L3.28418 36.1951Z" fill="black"/>
<path d="M13.8076 47.3663V54.3559L17.6044 52.1641V45.1746L13.8076 47.3663Z" fill="black"/>
<path d="M13.8072 54.3559L10.0518 52.1637V45.1746L13.8072 47.3663V54.3559Z" fill="black"/>
<path d="M21.5654 37.7666L24.3303 36.1951L24.289 48.3541L21.5654 49.967V37.7666Z" fill="black"/>
<path d="M18.5941 32.9927L8.27734 39.1963L10.0517 40.23L12.734 41.7601L13.8068 42.3804L24.3298 36.301L18.5941 32.9927ZM13.7658 40.7264L11.6611 39.5269L13.7658 38.2036L15.8292 39.5269L13.7658 40.7264Z" fill="black"/>
<path d="M16.4071 31.7103L13.7659 30.1802L11.125 31.7103L3.28418 36.3009L6.09041 37.8724L16.4071 31.7103Z" fill="black"/>
<path d="M131.484 37.4057C131.487 36.9234 131.679 36.4618 132.02 36.1208C132.36 35.7798 132.82 35.5868 133.302 35.5835C133.615 35.5778 133.925 35.6612 134.193 35.8243C134.466 35.9777 134.692 36.2038 134.845 36.4776C135.002 36.7491 135.085 37.0575 135.085 37.3715C135.085 37.6854 135.002 37.9938 134.845 38.2653C134.692 38.5391 134.466 38.7652 134.193 38.9186C133.921 39.1015 133.594 39.1864 133.267 39.1594C132.942 39.1653 132.622 39.082 132.341 38.9186C132.076 38.7667 131.856 38.5462 131.706 38.2801C131.555 38.0139 131.478 37.712 131.484 37.406V37.4057ZM131.758 37.4057C131.756 37.6844 131.828 37.9588 131.966 38.2004C132.105 38.4421 132.306 38.6424 132.547 38.7806C132.782 38.9158 133.048 38.9869 133.319 38.9869C133.59 38.9869 133.856 38.9158 134.091 38.7806C134.333 38.6408 134.534 38.4392 134.674 38.1962C134.809 37.9546 134.88 37.6824 134.88 37.4055C134.88 37.1286 134.809 36.8564 134.674 36.6148C134.534 36.3718 134.333 36.1702 134.091 36.0304C133.914 35.9251 133.717 35.8567 133.513 35.8291C133.309 35.8016 133.102 35.8155 132.903 35.87C132.705 35.9246 132.519 36.0187 132.358 36.1466C132.197 36.2746 132.063 36.4338 131.964 36.6148C131.828 36.8561 131.757 37.1286 131.758 37.4057ZM134.057 36.9932C134.059 37.1158 134.023 37.2361 133.954 37.3369C133.874 37.4432 133.767 37.5263 133.645 37.5777L134.228 38.5402H133.816L133.302 37.6809H132.959V38.5402H132.616V36.34H133.234C133.442 36.3276 133.648 36.3884 133.817 36.512C133.897 36.5626 133.961 36.6342 134.004 36.719C134.046 36.8039 134.065 36.8987 134.057 36.9932H134.057ZM132.993 37.3369H133.268C133.379 37.3343 133.486 37.2983 133.576 37.2337C133.655 37.1625 133.704 37.0644 133.714 36.9588C133.716 36.8573 133.679 36.7587 133.611 36.684C133.563 36.6469 133.507 36.6213 133.447 36.6092C133.388 36.597 133.327 36.5986 133.268 36.6138H132.993V37.3369Z" fill="black"/>
</svg>
