<svg width="139" height="87" viewBox="0 0 139 87" fill="none" xmlns="http://www.w3.org/2000/svg">
<g clip-path="url(#clip0_1351_148)">
<path d="M68.8398 57.0195V37.4811H71.7086V39.0809C72.1496 38.281 73.6652 37.2596 75.4849 37.2596C79.5938 37.2596 81.6889 39.9923 81.6889 44.4348C81.6889 48.7401 79.6209 51.6114 75.4307 51.6114C73.6938 51.6114 72.3422 50.7557 71.7086 49.8444V57.0195H68.8398ZM75.0996 49.0716C77.1676 49.0716 78.6561 47.306 78.6561 44.4348C78.6561 41.5635 77.1676 39.7995 75.0996 39.7995C73.0315 39.7995 71.543 41.565 71.543 44.4348C71.543 47.3045 73.0315 49.0716 75.0996 49.0716Z" fill="black"/>
<path d="M83.7568 57.0195V37.4811H86.6256V39.0809C87.0666 38.281 88.5822 37.2596 90.4019 37.2596C94.5108 37.2596 96.6074 39.9923 96.6074 44.4348C96.6074 48.7401 94.5379 51.6114 90.3477 51.6114C88.6108 51.6114 87.2592 50.7557 86.6256 49.8444V57.0195H83.7568ZM90.0166 49.0716C92.0846 49.0716 93.5731 47.306 93.5731 44.4348C93.5731 41.5635 92.0846 39.7995 90.0166 39.7995C87.9485 39.7995 86.46 41.565 86.46 44.4348C86.46 47.3045 87.9485 49.0716 90.0166 49.0716Z" fill="black"/>
<path d="M98.6201 51.39V31.8501H101.48V51.39H98.6201Z" fill="black"/>
<path d="M110.862 37.2596C115.164 37.2596 117.7 40.5165 117.7 44.4348C117.7 48.353 115.164 51.6159 110.862 51.6159C106.561 51.6159 104.024 48.359 104.024 44.4393C104.024 40.5196 106.561 37.2596 110.862 37.2596ZM110.862 49.0716C113.371 49.0716 114.667 46.7532 114.667 44.4348C114.667 42.1164 113.371 39.7995 110.862 39.7995C108.353 39.7995 107.057 42.1164 107.057 44.4348C107.057 46.7532 108.353 49.0716 110.862 49.0716Z" fill="black"/>
<path d="M121.616 31.5474C121.879 31.5469 122.14 31.5989 122.383 31.7003C122.626 31.8017 122.846 31.9505 123.031 32.138C123.215 32.3255 123.361 32.5479 123.459 32.7923C123.557 33.0367 123.606 33.2981 123.602 33.5615C123.602 34.0884 123.392 34.5938 123.02 34.9665C122.648 35.3391 122.143 35.5484 121.616 35.5484C121.09 35.5484 120.585 35.3391 120.213 34.9665C119.84 34.5938 119.631 34.0884 119.631 33.5615C119.627 33.2981 119.676 33.0367 119.774 32.7923C119.872 32.5479 120.017 32.3255 120.202 32.138C120.387 31.9505 120.607 31.8017 120.85 31.7003C121.093 31.5989 121.353 31.5469 121.616 31.5474ZM120.182 51.3901V37.4812H123.042V51.3901H120.182Z" fill="black"/>
<path d="M59.0467 32.2102H55.8363L48.1016 51.3901H50.9718L53.3092 45.643H61.5527L63.8585 51.3901H66.7814L59.0467 32.2102ZM57.4437 35.3255L60.4389 42.9074H54.3944L57.4437 35.3255Z" fill="black"/>
<path d="M21.8916 47.8152H24.0303L25.5972 45.1383C26.7451 45.8976 28.0924 46.2987 29.4684 46.2907C30.8443 46.2826 32.1869 45.8658 33.3259 45.0931L34.9122 47.8183H37.057L29.4743 34.7861L21.8916 47.8152ZM32.3084 43.3502C31.4787 43.946 30.485 44.2701 29.4639 44.2779C28.4428 44.2857 27.4443 43.9769 26.6056 43.3939L29.4653 38.4724L32.3084 43.3502Z" fill="black"/>
<path d="M29.4741 29.0195C26.7304 29.0195 24.0483 29.8339 21.7669 31.3595C19.4856 32.8852 17.7075 35.0537 16.6576 37.5908C15.6076 40.1279 15.3329 42.9197 15.8681 45.6131C16.4034 48.3065 17.7246 50.7805 19.6647 52.7223C21.6048 54.6641 24.0767 55.9865 26.7677 56.5223C29.4587 57.058 32.248 56.783 34.7829 55.7321C37.3177 54.6812 39.4843 52.9016 41.0087 50.6182C42.533 48.3349 43.3466 45.6504 43.3466 42.9043C43.3422 39.2232 41.8792 35.6941 39.2786 33.0911C36.6779 30.4882 33.152 29.0239 29.4741 29.0195V29.0195ZM29.4741 54.9301C27.0968 54.9307 24.7728 54.2257 22.796 52.9041C20.8191 51.5826 19.2783 49.704 18.3683 47.5059C17.4582 45.3078 17.22 42.889 17.6836 40.5553C18.1473 38.2217 19.2919 36.078 20.9729 34.3956C22.6539 32.7132 24.7956 31.5675 27.1272 31.1034C29.4588 30.6394 31.8755 30.8778 34.0716 31.7887C36.2678 32.6995 38.1448 34.2417 39.4651 36.2203C40.7855 38.1989 41.4899 40.525 41.4893 42.9043C41.4849 46.0924 40.2176 49.1487 37.9653 51.403C35.7129 53.6573 32.6594 54.9257 29.4741 54.9301Z" fill="black"/>
</g>
<defs>
<clipPath id="clip0_1351_148">
<rect width="108" height="28" fill="white" transform="translate(15.6016 29.0195)"/>
</clipPath>
</defs>
</svg>
