<svg width="139" height="87" viewBox="0 0 139 87" fill="none" xmlns="http://www.w3.org/2000/svg">
<g clip-path="url(#clip0_1352_718)">
<path fill-rule="evenodd" clip-rule="evenodd" d="M118.335 22.0197H20.0693C18.7782 22.0197 17.54 22.5403 16.627 23.4671C15.7141 24.3938 15.2012 25.6508 15.2012 26.9614L15.2012 34.4754C15.2012 34.9121 15.3135 35.3413 15.5269 35.7204C15.7404 36.0996 16.0476 36.4157 16.4182 36.6374C17.5327 37.2737 18.459 38.2012 19.101 39.3237C19.7431 40.4461 20.0774 41.7226 20.0693 43.0205C20.0684 44.3164 19.7302 45.589 19.0891 46.7096C18.4479 47.8302 17.5266 48.759 16.4182 49.402C16.0565 49.6337 15.7564 49.952 15.5442 50.329C15.332 50.7059 15.2142 51.13 15.2012 51.564L15.2012 59.078C15.2012 60.3886 15.7141 61.6455 16.627 62.5723C17.54 63.4991 18.7782 64.0197 20.0693 64.0197H118.335C118.974 64.0197 119.607 63.8919 120.198 63.6435C120.788 63.3952 121.325 63.0312 121.777 62.5723C122.229 62.1134 122.588 61.5686 122.832 60.9691C123.077 60.3695 123.203 59.7269 123.203 59.078V51.564C123.203 51.1273 123.09 50.6981 122.877 50.319C122.664 49.9398 122.356 49.6237 121.986 49.402C120.871 48.7657 119.945 47.8382 119.303 46.7157C118.661 45.5933 118.326 44.3168 118.335 43.0189C118.335 41.7232 118.673 40.4507 119.314 39.3301C119.955 38.2095 120.876 37.2806 121.984 36.6374C122.369 36.4325 122.688 36.1201 122.904 35.737C123.12 35.3539 123.223 34.9161 123.201 34.4754V26.9614C123.21 26.3102 123.09 25.6639 122.848 25.0605C122.606 24.4572 122.248 23.9091 121.795 23.4485C121.341 22.9879 120.801 22.6242 120.207 22.3788C119.613 22.1334 118.976 22.0113 118.335 22.0197ZM118.335 22.9463C119.383 22.9475 120.389 23.3709 121.13 24.1236C121.872 24.8764 122.289 25.8969 122.29 26.9614V34.4754C122.278 34.7382 122.208 34.9948 122.085 35.2264C121.962 35.4581 121.789 35.6588 121.58 35.8138C120.339 36.5549 119.305 37.6061 118.578 38.8672C117.85 40.1284 117.452 41.5576 117.422 43.0189C117.427 44.4856 117.814 45.9248 118.544 47.1903C119.275 48.4559 120.322 49.5025 121.58 50.224C121.805 50.3628 121.989 50.5599 122.114 50.7952C122.239 51.0305 122.3 51.2954 122.29 51.5624V59.0764C122.289 60.1409 121.872 61.1615 121.13 61.9142C120.389 62.6669 119.383 63.0903 118.335 63.0916H20.0693C19.0209 63.0903 18.0158 62.6671 17.2743 61.9147C16.5329 61.1624 16.1156 60.1422 16.114 59.078V51.564C16.1262 51.3012 16.1963 51.0446 16.3192 50.813C16.4421 50.5813 16.6145 50.3806 16.8239 50.2256C18.0649 49.4845 19.0985 48.4333 19.8264 47.1722C20.5542 45.911 20.9521 44.4818 20.9821 43.0205C20.9775 41.5535 20.5903 40.114 19.86 38.8482C19.1296 37.5824 18.0821 36.5354 16.8239 35.8138C16.6266 35.654 16.4685 35.45 16.3619 35.2178C16.2552 34.9856 16.203 34.7315 16.2092 34.4754V26.9614C16.2104 25.8958 16.6284 24.8743 17.3713 24.1214C18.1141 23.3685 19.121 22.9459 20.1708 22.9463H118.335Z" fill="black"/>
<path fill-rule="evenodd" clip-rule="evenodd" d="M32.3747 39.6228L36.2271 33.7608C36.3441 33.5998 36.497 33.4692 36.6733 33.3797C36.8496 33.2902 37.0442 33.2444 37.2413 33.246C37.4 33.2379 37.5582 33.2715 37.7003 33.3436C37.8425 33.4158 37.9639 33.524 38.0527 33.6578C38.1778 33.777 38.2782 33.9203 38.3479 34.0795C38.4175 34.2386 38.4551 34.4103 38.4583 34.5844C38.4524 34.8383 38.3826 35.0864 38.2555 35.3051L33.5902 42.5102V49.6124C33.5896 49.7869 33.5533 49.9595 33.4834 50.119C33.4136 50.2785 33.3118 50.4216 33.1845 50.5389C33.0672 50.666 32.9259 50.7679 32.7692 50.8386C32.6124 50.9093 32.4432 50.9475 32.2717 50.9508C32.113 50.9589 31.9549 50.9253 31.8127 50.8531C31.6705 50.781 31.5492 50.6728 31.4604 50.5389C31.3352 50.4198 31.2349 50.2765 31.1652 50.1173C31.0955 49.9582 31.0579 49.7865 31.0547 49.6124V42.504L26.3894 35.2988C26.2623 35.0801 26.1925 34.832 26.1865 34.5782C26.1871 34.4036 26.2234 34.2311 26.2933 34.0715C26.3631 33.912 26.4649 33.769 26.5922 33.6516C26.7096 33.5246 26.8508 33.4227 27.0075 33.3519C27.1643 33.2812 27.3335 33.2431 27.505 33.2398C27.7 33.2495 27.8908 33.3003 28.0654 33.3889C28.24 33.4775 28.3945 33.602 28.5192 33.7545L32.3747 39.6228ZM41.2981 41.0642C40.8659 41.2428 40.483 41.5255 40.1825 41.8878C39.8546 42.1976 39.6102 42.5875 39.4725 43.0203C39.2639 43.4709 39.1588 43.9638 39.1652 44.4616C39.1695 44.9583 39.2741 45.4489 39.4725 45.903C39.6486 46.3162 39.8882 46.6985 40.1825 47.0354C40.5105 47.3665 40.8868 47.6443 41.2981 47.8591C41.742 48.0708 42.2275 48.1775 42.718 48.171C43.2073 48.1667 43.6906 48.0605 44.1379 47.8591C44.57 47.6804 44.9529 47.3978 45.2535 47.0354C45.5814 46.7256 45.8258 46.3357 45.9634 45.903C46.172 45.4523 46.2771 44.9595 46.2708 44.4616C46.2665 43.9649 46.1619 43.4743 45.9634 43.0203C45.7874 42.607 45.5477 42.2247 45.2535 41.8878C44.9255 41.5567 44.5492 41.2789 44.1379 41.0642C43.6914 40.8606 43.2075 40.7553 42.718 40.7553C42.2285 40.7553 41.7446 40.8606 41.2981 41.0642ZM46.2677 49.1959C45.8669 49.702 45.3424 50.0925 44.7464 50.3284C44.0906 50.5401 43.4061 50.6453 42.718 50.6403C41.9345 50.6524 41.1576 50.4931 40.4401 50.1733C39.7226 49.8536 39.0813 49.3808 38.5598 48.7872C37.4566 47.6259 36.8388 46.0764 36.8356 44.4632C36.8182 43.6613 36.9621 42.8642 37.2585 42.1207C37.555 41.3773 37.9978 40.703 38.5598 40.1392C39.0887 39.5551 39.7313 39.0888 40.447 38.7699C41.1626 38.4509 41.9356 38.2862 42.7172 38.2862C43.4988 38.2862 44.2718 38.4509 44.9875 38.7699C45.7031 39.0888 46.3457 39.5551 46.8747 40.1392C47.9778 41.3005 48.5956 42.8499 48.5988 44.4632V49.4049C48.5983 49.5795 48.5619 49.752 48.4921 49.9116C48.4222 50.0711 48.3204 50.2141 48.1931 50.3315C48.0917 50.5374 47.7874 50.6435 47.3818 50.6435C47.0535 50.6349 46.7355 50.5261 46.469 50.3315C46.3595 50.2057 46.2759 50.0588 46.2231 49.8997C46.1703 49.7406 46.1494 49.5724 46.1617 49.4049V49.199L46.2677 49.1959ZM53.0628 45.9014C53.2389 46.3147 53.4785 46.6969 53.7728 47.0339C54.1007 47.365 54.477 47.6428 54.8884 47.8575C55.3323 48.0693 55.8178 48.176 56.3083 48.1695C56.7976 48.1651 57.2808 48.0589 57.7281 47.8575C58.1603 47.6789 58.5432 47.3962 58.8438 47.0339C59.1717 46.724 59.4161 46.3342 59.5537 45.9014C59.7623 45.4508 59.8674 44.9579 59.861 44.4601C59.8567 43.9633 59.7521 43.4728 59.5537 43.0187C59.3776 42.6054 59.138 42.2232 58.8438 41.8862C58.5158 41.5552 58.1395 41.2774 57.7281 41.0626C57.2842 40.8508 56.7987 40.7442 56.3083 40.7506C55.8189 40.755 55.3357 40.8612 54.8884 41.0626C54.4562 41.2412 54.0733 41.5239 53.7728 41.8862C53.4448 42.1961 53.2004 42.5859 53.0628 43.0187C52.8542 43.4694 52.7491 43.9622 52.7555 44.4601C52.8569 44.9748 52.9583 45.3866 53.0628 45.9014ZM52.86 49.4018V54.5494C52.8594 54.724 52.8231 54.8965 52.7532 55.0561C52.6834 55.2156 52.5816 55.3586 52.4543 55.476C52.2343 55.6834 51.9431 55.7954 51.6429 55.788C51.3147 55.7794 50.9967 55.6707 50.7302 55.476C50.6206 55.3502 50.537 55.2034 50.4843 55.0442C50.4315 54.8851 50.4106 54.7169 50.4228 54.5494V44.4601C50.4054 43.6582 50.5493 42.8611 50.8457 42.1176C51.1422 41.3741 51.585 40.6999 52.147 40.1361C52.6759 39.552 53.3185 39.0857 54.0342 38.7668C54.7498 38.4478 55.5229 38.2831 56.3044 38.2831C57.086 38.2831 57.859 38.4478 58.5747 38.7668C59.2903 39.0857 59.9329 39.552 60.4619 40.1361C61.0377 40.6893 61.4897 41.3617 61.7872 42.1077C62.0846 42.8538 62.2207 43.656 62.186 44.4601C62.2035 45.2619 62.0595 46.059 61.7631 46.8025C61.4666 47.546 61.0239 48.2203 60.4619 48.7841C59.913 49.3551 59.258 49.81 58.5349 50.1225C57.8287 50.4164 57.0696 50.5567 56.3067 50.5343C55.6868 50.5848 55.0632 50.5108 54.4715 50.3165C53.8798 50.1222 53.3317 49.8113 52.8584 49.4018H52.86ZM64.5202 44.0561C64.0057 43.4968 63.7162 42.7622 63.7088 41.997C63.6725 41.4509 63.8151 40.9079 64.1145 40.4527C64.434 40.0255 64.8093 39.6445 65.2301 39.3202C65.7169 39.0381 66.2258 38.7971 66.7514 38.5996C67.3044 38.3964 67.8875 38.2909 68.4756 38.2876C69.3445 38.2951 70.2016 38.492 70.9891 38.865C71.7765 39.238 72.4757 39.7784 73.0395 40.4496C73.1985 40.653 73.2715 40.9122 73.2423 41.1703C73.2339 41.5034 73.1268 41.8263 72.935 42.0968C72.715 42.3043 72.4238 42.4162 72.1236 42.4088C71.9029 42.4051 71.6885 42.3333 71.509 42.2029L71.1033 41.7911C70.7751 41.4491 70.3798 41.1807 69.9431 41.0034C69.5064 40.8261 69.0378 40.7437 68.5678 40.7616C68.1365 40.7399 67.7057 40.8113 67.3036 40.971C66.9015 41.1307 66.5374 41.3751 66.2351 41.6881C66.1337 41.7911 66.1337 41.894 66.1337 42.1C66.1337 42.2029 66.2351 42.3059 66.3365 42.4119L71.2124 44.0561C71.7327 44.2371 72.2145 44.5165 72.6323 44.8797C73.1468 45.4389 73.4363 46.1735 73.4436 46.9387C73.48 47.4848 73.3373 48.0278 73.0379 48.483C72.7185 48.9102 72.3432 49.2912 71.9223 49.6155C71.4355 49.8976 70.9267 50.1386 70.401 50.3362C69.8424 50.5058 69.259 50.5755 68.6769 50.5421C67.8046 50.5558 66.9406 50.3683 66.15 49.9938C65.3594 49.6193 64.6629 49.0675 64.113 48.3801C63.9086 48.1567 63.7983 47.8612 63.8057 47.5564C63.8141 47.2233 63.9212 46.9004 64.113 46.6299C64.237 46.5187 64.3816 46.4338 64.5383 46.3802C64.6951 46.3267 64.8608 46.3055 65.0258 46.3179C65.2758 46.3239 65.5202 46.3948 65.7357 46.5238L66.1414 46.9356C66.4696 47.2776 66.8649 47.546 67.3016 47.7233C67.7383 47.9006 68.2068 47.983 68.6769 47.9651C69.107 47.9771 69.5351 47.9013 69.9358 47.7421C70.3365 47.5829 70.7017 47.3437 71.0095 47.0386C71.0485 46.9977 71.0779 46.9484 71.0954 46.8944C71.113 46.8403 71.1183 46.783 71.111 46.7266C71.111 46.6236 71.0095 46.5207 70.9081 46.4146L66.04 44.7674C65.2286 44.5615 64.7215 44.3555 64.5187 44.0467L64.5202 44.0561ZM84.8042 48.7919C84.2763 49.3775 83.6338 49.8449 82.9178 50.164C82.2017 50.4831 81.428 50.6469 80.646 50.645C79.8625 50.657 79.0856 50.4978 78.3681 50.178C77.6506 49.8582 77.0093 49.3855 76.4878 48.7919C75.3846 47.6306 74.7668 46.0811 74.7636 44.4679C74.7462 43.666 74.8901 42.8689 75.1865 42.1254C75.483 41.3819 75.9258 40.7077 76.4878 40.1438C77.0167 39.5598 77.6593 39.0935 78.375 38.7746C79.0906 38.4556 79.8636 38.2909 80.6452 38.2909C81.4268 38.2909 82.1998 38.4556 82.9155 38.7746C83.6311 39.0935 84.2737 39.5598 84.8027 40.1438C85.3785 40.6971 85.8305 41.3695 86.128 42.1155C86.4254 42.8616 86.5615 43.6638 86.5268 44.4679C86.5675 45.2726 86.4343 46.0767 86.1365 46.8237C85.8386 47.5707 85.3834 48.2424 84.8027 48.7919H84.8042ZM79.2261 41.072C78.7939 41.2506 78.411 41.5333 78.1105 41.8956C77.7826 42.2054 77.5382 42.5953 77.4006 43.0281C77.1919 43.4787 77.0868 43.9716 77.0932 44.4694C77.0975 44.9661 77.2021 45.4567 77.4006 45.9108C77.5766 46.324 77.8162 46.7063 78.1105 47.0432C78.4385 47.3743 78.8148 47.6521 79.2261 47.8669C79.67 48.0786 80.1555 48.1853 80.646 48.1788C81.1353 48.1745 81.6186 48.0683 82.0659 47.8669C82.498 47.6882 82.8809 47.4056 83.1815 47.0432C83.5095 46.7334 83.7539 46.3436 83.8914 45.9108C84.1001 45.4601 84.2051 44.9673 84.1988 44.4694C84.1945 43.9727 84.0899 43.4821 83.8914 43.0281C83.7154 42.6148 83.4757 42.2325 83.1815 41.8956C82.8535 41.5645 82.4772 41.2867 82.0659 41.072C81.6219 40.8602 81.1364 40.7535 80.646 40.76C80.1567 40.7644 79.6734 40.8705 79.2261 41.072ZM97.1759 43.0281C96.9998 42.6148 96.7602 42.2325 96.466 41.8956C96.138 41.5645 95.7617 41.2867 95.3503 41.072C94.9064 40.8602 94.4209 40.7535 93.9305 40.76C93.4411 40.7644 92.9579 40.8705 92.5106 41.072C92.0784 41.2506 91.6955 41.5333 91.395 41.8956C91.067 42.2054 90.8226 42.5953 90.685 43.0281C90.4764 43.4787 90.3713 43.9716 90.3777 44.4694C90.382 44.9661 90.4866 45.4567 90.685 45.9108C90.8611 46.324 91.1007 46.7063 91.395 47.0432C91.723 47.3743 92.0993 47.6521 92.5106 47.8669C92.9545 48.0786 93.44 48.1853 93.9305 48.1788C94.4198 48.1745 94.903 48.0683 95.3503 47.8669C95.7825 47.6882 96.1654 47.4056 96.466 47.0432C96.7939 46.7334 97.0383 46.3435 97.1759 45.9108C97.3845 45.4601 97.4896 44.9673 97.4832 44.4694C97.479 43.9727 97.3743 43.4821 97.1759 43.0281ZM97.4832 39.5277V34.3801C97.4917 34.0469 97.5988 33.724 97.7906 33.4535C97.9145 33.3423 98.0591 33.2574 98.2159 33.2039C98.3727 33.1503 98.5384 33.1291 98.7034 33.1415C99.0035 33.1341 99.2947 33.246 99.5147 33.4535C99.6399 33.5726 99.7402 33.716 99.8099 33.8751C99.8796 34.0343 99.9171 34.2059 99.9204 34.3801V44.4679C99.9378 45.2697 99.7939 46.0668 99.4975 46.8103C99.201 47.5538 98.7582 48.2281 98.1963 48.7919C97.6684 49.3775 97.0258 49.8449 96.3098 50.164C95.5938 50.4831 94.82 50.6469 94.038 50.645C93.2545 50.657 92.4777 50.4978 91.7602 50.178C91.0427 49.8582 90.4014 49.3855 89.8798 48.7919C88.7767 47.6306 88.1589 46.0811 88.1557 44.4679C88.1382 43.666 88.2821 42.8689 88.5786 42.1254C88.875 41.3819 89.3178 40.7077 89.8798 40.1438C90.8324 39.079 92.1485 38.422 93.5608 38.3062C94.9732 38.1903 96.3761 38.6242 97.4848 39.5199L97.4832 39.5277ZM101.337 40.1516C101.264 39.9906 101.229 39.8142 101.236 39.6369C101.221 39.459 101.256 39.2804 101.337 39.1221C101.439 39.0192 101.439 38.8101 101.54 38.7103C101.655 38.582 101.793 38.4763 101.946 38.3983C102.098 38.3056 102.277 38.2692 102.453 38.2954C102.701 38.3157 102.942 38.3857 103.163 38.5013C103.284 38.5663 103.391 38.6549 103.478 38.7619C103.565 38.869 103.63 38.9925 103.67 39.1252L106.51 46.126L109.349 39.1268C109.425 38.9147 109.568 38.7338 109.755 38.612C109.851 38.5261 109.964 38.463 110.087 38.4274C110.21 38.3918 110.339 38.3845 110.465 38.4061C110.64 38.3906 110.816 38.4264 110.972 38.5091C111.074 38.612 111.279 38.715 111.378 38.8211C111.44 38.8701 111.49 38.9324 111.525 39.0037C111.56 39.0749 111.579 39.1532 111.581 39.2329C111.648 39.396 111.682 39.5709 111.682 39.7476C111.682 39.9243 111.648 40.0993 111.581 40.2624L105.597 55.0813C105.499 55.3118 105.361 55.5229 105.191 55.7053C105.095 55.7912 104.982 55.8543 104.859 55.89C104.736 55.9256 104.607 55.9328 104.481 55.9112C104.312 55.9123 104.145 55.8776 103.99 55.8093C103.835 55.741 103.696 55.6407 103.582 55.5148C103.467 55.3888 103.38 55.24 103.325 55.0778C103.27 54.9156 103.25 54.7436 103.264 54.5728C103.238 54.3945 103.274 54.2126 103.366 54.0581L105.191 49.4252L101.337 40.1516Z" fill="black"/>
</g>
<defs>
<clipPath id="clip0_1352_718">
<rect width="108" height="42" fill="white" transform="translate(15.2012 22.0195)"/>
</clipPath>
</defs>
</svg>
